<?xml version="1.0" standalone="no"?>
<!DOCTYPE svg PUBLIC "-//W3C//DTD SVG 1.1//EN" "http://www.w3.org/Graphics/SVG/1.1/DTD/svg11.dtd" >
<svg xmlns="http://www.w3.org/2000/svg" xmlns:xlink="http://www.w3.org/1999/xlink" version="1.1">
<metadata>
Created by FontForge 20200306 at Wed Aug  8 13:48:06 2018
 By convertio
Copyright (c) 2015 by Letters from Sweden. All rights reserved. |DCNT
</metadata>
<defs>
<font id="LabGrotesque-Medium" horiz-adv-x="590" >
  <font-face 
    font-family="Lab Grotesque"
    font-weight="500"
    font-stretch="normal"
    units-per-em="1000"
    panose-1="0 0 5 0 0 0 0 0 0 0"
    ascent="750"
    descent="-250"
    x-height="502"
    cap-height="710"
    bbox="-431 -257 1742 942"
    underline-thickness="59"
    underline-position="-276"
    unicode-range="U+0020-FB02"
  />
<missing-glyph horiz-adv-x="579" 
d="M479 810v-910h-379v910h379z" />
    <glyph glyph-name="fi" unicode="fi" horiz-adv-x="582" 
d="M217 554v-52h117v-83h-117v-419h-110v419h-89v83h89v60q0 79 39 119.5t114 40.5q42 0 85 -12l-14 -85q-32 5 -48 5q-38 0 -52 -16.5t-14 -59.5zM410 702h110v-113h-110v113zM410 0v502h110v-502h-110z" />
    <glyph glyph-name="fl" unicode="fl" horiz-adv-x="584" 
d="M217 554v-52h117v-83h-117v-419h-110v419h-89v83h89v60q0 79 39 119.5t114 40.5q42 0 85 -12l-14 -85q-32 5 -48 5q-38 0 -52 -16.5t-14 -59.5zM410 710h110v-710h-110v710z" />
    <glyph glyph-name="f_f.liga" unicode="ff" horiz-adv-x="687" 
d="M217 559v-57h97v-83h-97v-419h-110v419h-89v83h89v66q0 78 40.5 118.5t117.5 40.5q55 0 104 -18l-20 -82q-37 9 -64 9q-36 0 -52 -18t-16 -59zM551 559v-57h118v-83h-118v-419h-110v419h-81v83h81v66q0 78 40.5 118.5t116.5 40.5q50 0 105 -18l-21 -82q-36 9 -63 9
q-36 0 -52 -18t-16 -59z" />
    <glyph glyph-name="f_f_i.liga" unicode="ffi" horiz-adv-x="915" 
d="M217 554v-52h97v-83h-97v-419h-110v419h-89v83h89v60q0 79 40.5 119.5t117.5 40.5q55 0 104 -18l-20 -83q-34 10 -64 10q-36 0 -52 -18t-16 -59zM551 554v-52h116v-83h-116v-419h-110v419h-81v83h81v60q0 160 152 160q43 0 86 -12l-14 -85q-32 5 -49 5q-37 0 -51 -17
t-14 -59zM744 702h110v-113h-110v113zM744 0v502h110v-502h-110z" />
    <glyph glyph-name="f_f_j.liga" unicode="ffj" horiz-adv-x="915" 
d="M217 554v-52h97v-83h-97v-419h-110v419h-89v83h89v60q0 79 40.5 119.5t117.5 40.5q55 0 104 -18l-20 -83q-34 10 -64 10q-36 0 -52 -18t-16 -59zM667 419h-116v-419h-110v419h-81v83h81v60q0 160 152 160q43 0 86 -12l-14 -85q-32 5 -49 5q-37 0 -51 -17t-14 -59v-52h116
v-83zM744 702h110v-113h-110v113zM744 -29v531h110v-529q0 -164 -150 -164q-54 0 -101 15l20 83q37 -9 62 -9q32 0 45.5 17t13.5 56z" />
    <glyph glyph-name="f_j.liga" unicode="fj" horiz-adv-x="582" 
d="M334 419h-117v-419h-110v419h-89v83h89v60q0 79 39 119.5t114 40.5q42 0 85 -12l-14 -85q-32 5 -48 5q-38 0 -52 -16.5t-14 -59.5v-52h117v-83zM410 702h110v-113h-110v113zM410 -29v531h110v-530q0 -164 -150 -164q-48 0 -101 15l21 83q35 -8 62 -8q31 0 44.5 17
t13.5 56z" />
    <glyph glyph-name=".notdef" horiz-adv-x="579" 
d="M479 810v-910h-379v910h379z" />
    <glyph glyph-name=".null" horiz-adv-x="0" 
 />
    <glyph glyph-name="nonmarkingreturn" horiz-adv-x="333" 
 />
    <glyph glyph-name="space" unicode=" " horiz-adv-x="223" 
 />
    <glyph glyph-name="exclam" unicode="!" horiz-adv-x="287" 
d="M208 710v-214l-26 -282h-67l-26 282v214h119zM210 128v-128h-124v128h124z" />
    <glyph glyph-name="quotedbl" unicode="&#x22;" horiz-adv-x="410" 
d="M159 710l-10 -257h-85l-11 257h106zM356 710l-10 -257h-85l-11 257h106z" />
    <glyph glyph-name="numbersign" unicode="#" 
d="M566 431h-90l-38 -180h90l-16 -74h-90l-37 -177h-84l37 177h-143l-37 -177h-84l37 177h-92l16 74h92l38 180h-92l17 74h91l37 175h84l-37 -175h143l37 175h84l-37 -175h91zM354 251l38 180h-143l-38 -180h143z" />
    <glyph glyph-name="dollar" unicode="$" horiz-adv-x="610" 
d="M348 -14v-86h-80v86q-66 6 -122 34t-120 85l71 74q92 -85 171 -95v224q-119 35 -164 76.5t-45 117.5t59 130t150 63v85h80v-85q109 -12 209 -101l-70 -74q-74 67 -139 77v-204q118 -34 165 -77t47 -123q0 -85 -57.5 -141.5t-154.5 -65.5zM268 415v183q-47 -7 -74 -32.5
t-27 -61.5q0 -33 23 -53t78 -36zM450 188q0 37 -23.5 58.5t-78.5 39.5v-202q47 7 74.5 34.5t27.5 69.5z" />
    <glyph glyph-name="percent" unicode="%" horiz-adv-x="871" 
d="M641 696l65 -41l-472 -671l-64 42zM818 154q0 -72 -46.5 -118t-115.5 -46t-115 46t-46 118q0 70 46 116.5t115 46.5q68 0 115 -46.5t47 -116.5zM574 154q0 -43 22 -69t60 -26t60.5 26.5t22.5 68.5t-22.5 68t-60.5 26q-37 0 -59.5 -26.5t-22.5 -67.5zM376 528
q0 -72 -46.5 -118t-115.5 -46t-115 46t-46 118q0 70 46 116.5t115 46.5q68 0 115 -46.5t47 -116.5zM132 528q0 -43 22 -69t60 -26t60.5 26.5t22.5 68.5t-22.5 68t-60.5 26q-37 0 -59.5 -26.5t-22.5 -67.5z" />
    <glyph glyph-name="ampersand" unicode="&#x26;" horiz-adv-x="711" 
d="M708 0h-134l-76 88q-51 -53 -103.5 -78t-122.5 -25q-101 0 -165 54t-64 138q0 72 42 123q44 52 141 107q-73 87 -73 156q0 70 53 116t131 46q80 0 132 -44t52 -110q0 -59 -31 -99q-32 -41 -111 -89l122 -142l98 122l77 -59l-111 -137zM256 565q1 -25 15.5 -50t48.5 -64
q57 33 78 58.5t21 61.5q0 31 -23 51.5t-58 20.5q-36 0 -59 -21.5t-23 -56.5zM435 162l-151 177q-75 -45 -101 -77q-29 -34 -29 -77q0 -48 34 -78t91 -30q44 0 80 20.5t76 64.5z" />
    <glyph glyph-name="quotesingle" unicode="'" horiz-adv-x="212" 
d="M159 710l-10 -257h-85l-11 257h106z" />
    <glyph glyph-name="parenleft" unicode="(" horiz-adv-x="341" 
d="M268 783l70 -55q-83 -106 -125 -206q-40 -95 -40 -215t40 -215q42 -100 125 -206l-70 -55q-101 110 -151.5 224t-50.5 252t50.5 252t151.5 224z" />
    <glyph glyph-name="parenright" unicode=")" horiz-adv-x="341" 
d="M73 -166l-70 55q83 106 125 206q40 95 40 215t-40 215q-41 98 -125 205l70 56q101 -110 151.5 -224t50.5 -252t-50.5 -252t-151.5 -224z" />
    <glyph glyph-name="asterisk" unicode="*" horiz-adv-x="436" 
d="M253 710v-129l119 41l21 -63l-122 -40l80 -102l-54 -42l-80 106l-77 -104l-55 42l81 100l-123 40l22 63l116 -41v129h72z" />
    <glyph glyph-name="plus" unicode="+" horiz-adv-x="600" 
d="M348 570v-213h212v-94h-212v-213h-96v213h-212v94h212v213h96z" />
    <glyph glyph-name="comma" unicode="," horiz-adv-x="230" 
d="M184 128v-128l-71 -138h-64l63 138h-59v128h131z" />
    <glyph glyph-name="hyphen" unicode="-" horiz-adv-x="408" 
d="M354 339v-99h-301v99h301z" />
    <glyph glyph-name="period" unicode="." horiz-adv-x="230" 
d="M177 128v-128h-124v128h124z" />
    <glyph glyph-name="slash" unicode="/" horiz-adv-x="455" 
d="M437 710l-310 -710h-109l310 710h109z" />
    <glyph glyph-name="zero" unicode="0" 
d="M508 568q47 -92 47 -228t-47 -228q-68 -128 -213 -128t-213 128q-47 92 -47 228t47 228q68 128 213 128t213 -128zM182 521q-32 -70 -32 -181t32 -181q36 -78 113 -78t113 78q32 70 32 181t-32 181q-36 78 -113 78t-113 -78z" />
    <glyph glyph-name="one" unicode="1" horiz-adv-x="460" 
d="M236 680h88v-680h-114v539l-129 -90l-56 78z" />
    <glyph glyph-name="two" unicode="2" horiz-adv-x="585" 
d="M311 242l-22 -13q-30 -18 -67 -43q-54 -39 -65 -91h381v-95h-498v44q0 71 27 119q26 48 66 80q41 33 109 75l49 28q48 28 74 46q60 43 60 105q0 47 -32 74.5t-83 27.5t-92.5 -27t-93.5 -92l-83 60q55 79 119 117.5t147 38.5q106 0 169 -56.5t63 -140.5q0 -59 -24 -100
q-22 -39 -59 -67q-35 -26 -100 -64q-10 -5 -45 -26z" />
    <glyph glyph-name="three" unicode="3" horiz-adv-x="577" 
d="M531 207q0 -90 -67.5 -156.5t-181.5 -66.5q-70 0 -130 19.5t-127 66.5l55 81q60 -36 106 -54q42 -16 93 -16q63 0 100.5 34t37.5 91q0 56 -39.5 88t-107.5 32q-48 0 -80 -13l-51 69l231 203h-311v95h448v-93l-201 -177q98 0 161.5 -55t63.5 -148z" />
    <glyph glyph-name="four" unicode="4" horiz-adv-x="582" 
d="M471 246h97v-92h-97v-154h-111v154h-334v104l270 422h125l-277 -434h216v145h111v-145z" />
    <glyph glyph-name="five" unicode="5" horiz-adv-x="583" 
d="M537 226q0 -103 -70.5 -172.5t-178.5 -69.5q-74 0 -132 20q-56 21 -130 71l56 81q67 -43 107 -59q41 -16 91 -16q62 0 102 39q41 39 41 97q0 60 -36 95t-100 35q-74 0 -120 -46l-100 10l30 369h406v-95h-310l-15 -185q56 41 136 41q98 0 160.5 -62t62.5 -153z" />
    <glyph glyph-name="six" unicode="6" horiz-adv-x="589" 
d="M554 219q0 -96 -69.5 -165.5t-182.5 -69.5q-118 0 -188 75.5t-70 197.5q0 102 51 193t153 188l45 42h150v-2l-112 -102q-105 -95 -149 -179q56 50 145 50q99 0 163 -66.5t64 -161.5zM441 217q0 61 -37.5 98.5t-99.5 37.5q-65 0 -105 -38t-40 -98q0 -59 40 -97.5
t104 -38.5q63 0 100.5 37.5t37.5 98.5z" />
    <glyph glyph-name="seven" unicode="7" horiz-adv-x="540" 
d="M23 680h498v-84q-97 -118 -169 -276q-74 -160 -98 -320h-125q19 147 92 303q74 156 169 282h-367v95z" />
    <glyph glyph-name="eight" unicode="8" horiz-adv-x="587" 
d="M555 189q0 -90 -70.5 -147.5t-190.5 -57.5t-191 57.5t-71 147.5q0 128 125 180q-92 45 -92 148q0 80 63.5 130t165.5 50t165 -50t63 -130q0 -102 -91 -148q59 -25 91.5 -71.5t32.5 -108.5zM174 511q0 -45 33 -73t87 -28t87 28t33 73q0 43 -33 70.5t-87 27.5t-87 -27.5
t-33 -70.5zM440 197q0 56 -39 90.5t-107 34.5t-107.5 -34.5t-39.5 -90.5q0 -52 40 -86t107 -34t106.5 33.5t39.5 86.5z" />
    <glyph glyph-name="nine" unicode="9" horiz-adv-x="589" 
d="M544 423q0 -102 -50.5 -193t-153.5 -188l-45 -42h-149v2l112 102q103 91 147 178q-53 -49 -143 -49q-99 0 -163 66.5t-64 161.5q0 96 69.5 165.5t182.5 69.5q118 0 187.5 -75.5t69.5 -197.5zM429 463q0 59 -40 97.5t-103 38.5q-62 0 -100 -37.5t-38 -98.5t37 -98.5
t99 -37.5q65 0 105 38t40 98z" />
    <glyph glyph-name="colon" unicode=":" horiz-adv-x="270" 
d="M197 502v-128h-124v128h124zM197 128v-128h-124v128h124z" />
    <glyph glyph-name="semicolon" unicode=";" horiz-adv-x="270" 
d="M208 128v-128l-71 -138h-64l63 138h-59v128h131zM203 502v-128h-124v128h124z" />
    <glyph glyph-name="less" unicode="&#x3c;" horiz-adv-x="600" 
d="M540 534v-98l-356 -126l356 -126v-98l-480 180v88z" />
    <glyph glyph-name="equal" unicode="=" horiz-adv-x="600" 
d="M560 457v-94h-520v94h520zM560 257v-94h-520v94h520z" />
    <glyph glyph-name="greater" unicode="&#x3e;" horiz-adv-x="600" 
d="M60 534l480 -180v-88l-480 -180v98l356 126l-356 126v98z" />
    <glyph glyph-name="question" unicode="?" horiz-adv-x="500" 
d="M487 539q0 -42 -17 -74q-16 -31 -38 -53q-13 -13 -74 -67q-39 -34 -59 -59q-16 -19 -21 -53l-3 -24h-95v28q0 59 16 89t80 86l16 14q44 36 60.5 58.5t16.5 53.5q0 40 -29.5 63t-78.5 23q-41 0 -77.5 -17.5t-94.5 -61.5l-66 76q117 105 241 105q99 0 161 -50t62 -137z
M292 128v-128h-124v128h124z" />
    <glyph glyph-name="at" unicode="@" horiz-adv-x="962" 
d="M711 473l-56 -265q-6 -26 -6 -51q0 -68 67 -68q51 0 83.5 55.5t32.5 145.5q0 157 -93.5 242t-243.5 85q-164 0 -262 -104.5t-98 -271.5q0 -163 97.5 -259t278.5 -96h224v-76h-245q-206 0 -326.5 118.5t-120.5 314.5q-2 198 122.5 327.5t324.5 126.5q188 2 309.5 -111.5
t119.5 -293.5q0 -123 -58 -198t-151 -75q-116 0 -139 89q-57 -89 -161 -89q-76 0 -116 43t-40 120q-1 70 28.5 139.5t85.5 115.5t122 44q97 0 121 -76l11 68h89zM574 315q0 45 -18 66t-57 21q-61 3 -105.5 -67t-43.5 -147q0 -90 73 -90q48 -2 84.5 37.5t52 88.5t14.5 91z
" />
    <glyph glyph-name="A" unicode="A" horiz-adv-x="693" 
d="M557 0l-56 160h-313l-55 -160h-120l256 710h155l256 -710h-123zM222 258h245l-30 87l-23 67q-50 141 -69 208q-23 -76 -85 -253l-8 -23z" />
    <glyph glyph-name="B" unicode="B" horiz-adv-x="676" 
d="M640 200q0 -92 -59.5 -146t-159.5 -54h-344v710h327q95 0 153 -48t58 -134q0 -57 -29.5 -97t-81.5 -58q65 -19 100.5 -63t35.5 -110zM195 617v-200h182q58 0 90.5 27.5t32.5 75.5q0 97 -123 97h-182zM522 208q0 54 -37.5 85t-103.5 31h-186v-231h185q68 0 105 30.5
t37 84.5z" />
    <glyph glyph-name="C" unicode="C" horiz-adv-x="674" 
d="M647 623l-69 -82q-53 46 -96.5 64t-94.5 18q-104 0 -166 -73.5t-62 -193.5q0 -121 61.5 -195t162.5 -74q58 0 101 22q45 23 104 75l71 -80q-69 -64 -132 -92t-142 -28q-158 0 -252.5 104t-94.5 268q0 163 94.5 266.5t255.5 103.5q75 0 135 -24t124 -79z" />
    <glyph glyph-name="D" unicode="D" horiz-adv-x="712" 
d="M674 355q0 -159 -85.5 -257t-233.5 -98h-278v710h278q148 0 233.5 -98t85.5 -257zM337 610h-142v-510h142q101 0 158.5 66.5t57.5 188.5t-57.5 188.5t-158.5 66.5z" />
    <glyph glyph-name="E" unicode="E" horiz-adv-x="620" 
d="M564 710v-100h-369v-194h344v-99h-344v-217h379v-100h-497v710h487z" />
    <glyph glyph-name="F" unicode="F" horiz-adv-x="602" 
d="M564 710v-100h-369v-211h343v-100h-343v-299h-118v710h487z" />
    <glyph glyph-name="G" unicode="G" horiz-adv-x="749" 
d="M364 284v100h322v-384h-91l-7 78q-64 -93 -212 -93q-157 0 -247.5 102t-90.5 269q0 162 96 265.5t256 103.5q90 0 158.5 -31t137.5 -102l-74 -77q-62 59 -112 83q-49 24 -112 24q-104 0 -166.5 -72t-62.5 -195q0 -125 60.5 -196t165.5 -71q88 0 140.5 48t52.5 129v19
h-214z" />
    <glyph glyph-name="H" unicode="H" horiz-adv-x="737" 
d="M660 710v-710h-119v321h-346v-321h-118v710h118v-289h346v289h119z" />
    <glyph glyph-name="I" unicode="I" horiz-adv-x="286" 
d="M202 710v-710h-118v710h118z" />
    <glyph glyph-name="J" unicode="J" horiz-adv-x="468" 
d="M396 710v-523q0 -100 -53 -150.5t-151 -50.5q-92 0 -184 45l37 94q84 -34 142 -34q91 0 91 108v511h118z" />
    <glyph glyph-name="K" unicode="K" horiz-adv-x="679" 
d="M540 0l-226 350l-119 -123v-227h-118v710h118v-339l317 339h147l-266 -276l281 -434h-134z" />
    <glyph glyph-name="L" unicode="L" horiz-adv-x="560" 
d="M195 710v-609h337v-101h-455v710h118z" />
    <glyph glyph-name="M" unicode="M" horiz-adv-x="892" 
d="M630 710h185v-710h-115v358q0 110 4 265l-48 -149l-38 -116l-119 -358h-104l-121 358q-14 45 -30 89l-56 170q2 -226 2 -260v-357h-113v710h187l101 -300q50 -141 83 -262q33 116 82 262z" />
    <glyph glyph-name="N" unicode="N" horiz-adv-x="739" 
d="M547 710h115v-710h-128l-193 304q-112 174 -154 250q5 -117 5 -275v-279h-115v710h130l201 -316l19 -30q99 -159 125 -206q-5 112 -5 264v288z" />
    <glyph glyph-name="O" unicode="O" horiz-adv-x="765" 
d="M727 355q2 -161 -93.5 -267t-250.5 -104q-156 0 -250.5 104.5t-94.5 266.5t94.5 266.5t250.5 104.5q155 2 250.5 -104t93.5 -267zM159 355q0 -119 62 -193t162 -74q101 0 162 73.5t61 193.5t-61 193.5t-162 73.5q-100 0 -162 -74t-62 -193z" />
    <glyph glyph-name="P" unicode="P" horiz-adv-x="668" 
d="M635 491q0 -102 -64 -160q-62 -58 -169 -58h-207v-273h-118v710h325q105 0 169 -59q64 -58 64 -160zM383 612h-188v-241h188q63 0 98.5 31.5t35.5 88.5q0 58 -35.5 89.5t-98.5 31.5z" />
    <glyph glyph-name="Q" unicode="Q" horiz-adv-x="765" 
d="M612 67l59 -78l-84 -59l-62 81q-64 -27 -142 -27q-156 0 -250.5 104.5t-94.5 266.5t94.5 266.5t250.5 104.5q155 2 250.5 -104t93.5 -267q0 -89 -30 -164t-85 -124zM458 100l-88 117l83 59l89 -118q64 75 64 197q0 120 -61 193.5t-162 73.5q-100 0 -162 -74t-62 -193
t62 -193t162 -74q41 0 75 12z" />
    <glyph glyph-name="R" unicode="R" horiz-adv-x="682" 
d="M654 0h-133l-178 273h-148v-273h-118v710h319q102 0 167 -60.5t65 -158.5q0 -79 -43.5 -135t-117.5 -74zM195 612v-241h180q64 0 100 31.5t36 88.5t-36.5 89t-99.5 32h-180z" />
    <glyph glyph-name="S" unicode="S" horiz-adv-x="638" 
d="M591 618l-69 -82q-61 50 -105 68q-44 19 -105 19q-65 0 -104.5 -28t-39.5 -71q0 -32 18 -50q20 -18 54 -30q40 -13 110 -29q141 -35 194 -76.5t56 -129.5q0 -100 -75 -162.5t-197 -62.5q-90 0 -160 29q-67 28 -148 98l71 83q75 -64 124 -85q51 -22 115 -22q69 0 111 30.5
t42 83.5q0 37 -22 56q-23 20 -55 30q-40 13 -112 29q-139 33 -191 76.5t-52 127.5q0 89 75 147.5t188 58.5q85 0 147 -25q64 -26 130 -83z" />
    <glyph glyph-name="T" unicode="T" horiz-adv-x="613" 
d="M585 710v-101h-219v-609h-119v609h-218v101h556z" />
    <glyph glyph-name="U" unicode="U" horiz-adv-x="698" 
d="M626 710v-476q0 -124 -71 -187t-206 -63t-206 63t-71 187v476h118v-471q0 -73 40.5 -112t118.5 -39t118.5 39t40.5 112v471h118z" />
    <glyph glyph-name="V" unicode="V" horiz-adv-x="652" 
d="M516 710h122l-238 -710h-148l-238 710h123l113 -345q48 -145 77 -252q40 139 77 250z" />
    <glyph glyph-name="W" unicode="W" horiz-adv-x="956" 
d="M812 710h116l-171 -710h-139l-78 298q-34 129 -61 254q-30 -135 -61 -255l-78 -297h-140l-172 710h120l75 -322q19 -79 53 -253q40 174 61 253l86 322h117l84 -322q34 -136 60 -255q34 177 52 255z" />
    <glyph glyph-name="X" unicode="X" horiz-adv-x="677" 
d="M666 0h-133l-195 290l-196 -290h-131l256 376l-231 334h134l170 -251l169 251h132l-232 -335z" />
    <glyph glyph-name="Y" unicode="Y" horiz-adv-x="642" 
d="M504 710h127l-251 -410v-300h-119v301l-250 409h131l181 -305z" />
    <glyph glyph-name="Z" unicode="Z" horiz-adv-x="633" 
d="M590 710v-96l-405 -514h404v-100h-546v96l405 514h-389v100h531z" />
    <glyph glyph-name="bracketleft" unicode="[" horiz-adv-x="341" 
d="M308 767v-81h-111v-756h111v-80h-215v917h215z" />
    <glyph glyph-name="backslash" unicode="\" horiz-adv-x="455" 
d="M18 710h109l310 -710h-109z" />
    <glyph glyph-name="bracketright" unicode="]" horiz-adv-x="341" 
d="M33 767h215v-917h-215v80h111v756h-111v81z" />
    <glyph glyph-name="asciicircum" unicode="^" 
d="M340 710l199 -430h-91l-152 332l-153 -332h-92l200 430h89z" />
    <glyph glyph-name="underscore" unicode="_" horiz-adv-x="600" 
d="M605 -114v-76h-610v76h610z" />
    <glyph glyph-name="grave" unicode="`" horiz-adv-x="298" 
d="M52 713h122l70 -143h-97z" />
    <glyph glyph-name="a" unicode="a" horiz-adv-x="547" 
d="M486 343v-343h-99v57q-50 -73 -166 -73q-81 0 -130.5 36t-49.5 106q0 79 59 117q61 40 166 59l115 21v18q0 41 -28 63.5t-76 22.5q-46 0 -80.5 -18.5t-80.5 -64.5l-69 64q92 110 227 110q101 0 156.5 -47t55.5 -128zM381 197v46l-87 -18q-79 -17 -112 -36.5t-33 -56.5
q0 -28 23.5 -44t64.5 -16q63 0 103.5 33.5t40.5 91.5z" />
    <glyph glyph-name="b" unicode="b" horiz-adv-x="587" 
d="M552 251q0 -118 -63 -191t-160 -73q-112 0 -165 83v-70h-102v710h110v-268q54 74 158 74q98 0 160 -73.5t62 -191.5zM440 251q0 78 -36 124.5t-97 46.5q-63 0 -101.5 -46.5t-38.5 -124.5q0 -77 39 -123t101 -46q60 0 96.5 46t36.5 123z" />
    <glyph glyph-name="c" unicode="c" horiz-adv-x="516" 
d="M286 425q-67 0 -104 -51q-36 -50 -36 -123t36 -123q37 -49 104 -49q38 0 69.5 17.5t72.5 62.5l73 -61q-49 -62 -99 -87.5t-117 -25.5q-113 0 -182 72.5t-69 193.5t70 194t182 73q63 0 111 -22t96 -73l-70 -68q-40 40 -70.5 55t-66.5 15z" />
    <glyph glyph-name="d" unicode="d" horiz-adv-x="587" 
d="M415 710h110v-710h-102v73q-54 -87 -166 -87q-97 0 -159.5 73.5t-62.5 191.5t63.5 191.5t159.5 73.5q105 0 157 -73v267zM419 251q0 78 -38.5 124t-100.5 46q-60 0 -96.5 -46.5t-36.5 -123.5q0 -78 36 -124.5t96 -46.5q63 0 101.5 46.5t38.5 124.5z" />
    <glyph glyph-name="e" unicode="e" horiz-adv-x="549" 
d="M449 153l64 -67q-53 -54 -105.5 -77.5t-116.5 -23.5q-119 0 -188 71.5t-69 191.5q0 119 67.5 194.5t179.5 75.5q110 0 170.5 -65.5t60.5 -181.5q0 -19 -2 -45h-368q6 -68 45 -108t106 -40q43 0 75 16t81 59zM145 306h259q-3 58 -36 91.5t-90 33.5q-53 0 -87.5 -32.5
t-45.5 -92.5z" />
    <glyph glyph-name="f" unicode="f" horiz-adv-x="354" 
d="M217 559v-57h118v-83h-118v-419h-110v419h-89v83h89v66q0 78 40.5 118.5t117.5 40.5q55 0 104 -18l-20 -82q-37 9 -64 9q-36 0 -52 -18t-16 -59z" />
    <glyph glyph-name="g" unicode="g" horiz-adv-x="579" 
d="M415 502h102v-483q0 -102 -66 -157q-65 -56 -172 -56q-125 0 -234 73l54 80q56 -34 95.5 -48t83.5 -14q61 0 96 33t35 98v52q-53 -71 -153 -71q-96 0 -158 71.5t-62 183.5q0 111 62 182.5t158 71.5q107 0 159 -79v63zM412 264q0 71 -37 115.5t-96 44.5q-60 0 -96 -44
t-36 -116q0 -73 36 -117.5t96 -44.5q59 0 96 45t37 117z" />
    <glyph glyph-name="h" unicode="h" horiz-adv-x="560" 
d="M499 344v-344h-110v310q0 55 -27 84.5t-77 29.5q-49 0 -81 -33t-32 -84v-307h-110v710h110v-258q52 66 147 66q85 0 132.5 -47.5t47.5 -126.5z" />
    <glyph glyph-name="i" unicode="i" horiz-adv-x="233" 
d="M172 502v-502h-110v502h110zM172 702v-113h-110v113h110z" />
    <glyph glyph-name="j" unicode="j" horiz-adv-x="237" 
d="M7 -102q32 0 45 17t13 56v531h110v-530q0 -163 -150 -163q-55 0 -100 15l20 82q43 -8 62 -8zM175 702v-113h-110v113h110z" />
    <glyph glyph-name="k" unicode="k" horiz-adv-x="531" 
d="M405 0l-153 240l-80 -81v-159h-110v710h110v-430l211 222h132l-187 -192l200 -310h-123z" />
    <glyph glyph-name="l" unicode="l" horiz-adv-x="238" 
d="M174 710v-710h-110v710h110z" />
    <glyph glyph-name="m" unicode="m" horiz-adv-x="831" 
d="M770 351v-351h-110v318q0 106 -89 106q-46 0 -73.5 -31t-27.5 -81v-312h-110v318q0 106 -89 106q-45 0 -72 -31t-27 -81v-312h-110v502h102v-58q47 74 144 74q99 0 142 -77q51 77 152 77q80 0 124 -45t44 -122z" />
    <glyph glyph-name="n" unicode="n" horiz-adv-x="560" 
d="M499 344v-344h-110v310q0 55 -27 84.5t-77 29.5q-49 0 -81 -33t-32 -84v-307h-110v502h102v-61q50 77 155 77q85 0 132.5 -47.5t47.5 -126.5z" />
    <glyph glyph-name="o" unicode="o" horiz-adv-x="579" 
d="M545 251q0 -117 -71.5 -191.5t-183.5 -74.5q-113 0 -184.5 74t-71.5 192q0 119 71.5 193t184.5 74q112 0 183.5 -74.5t71.5 -192.5zM146 251q0 -78 39 -125.5t105 -47.5q64 0 103.5 47.5t39.5 125.5q0 79 -39 126.5t-104 47.5q-66 0 -105 -47.5t-39 -126.5z" />
    <glyph glyph-name="p" unicode="p" horiz-adv-x="587" 
d="M552 252q0 -119 -63 -192t-160 -73q-103 0 -157 71v-238h-110v682h102v-71q55 85 166 85q97 0 159.5 -73t62.5 -191zM440 252q0 77 -36 123.5t-97 46.5q-63 0 -101.5 -46.5t-38.5 -123.5q0 -78 39 -124t101 -46q60 0 96.5 46.5t36.5 123.5z" />
    <glyph glyph-name="q" unicode="q" horiz-adv-x="587" 
d="M423 502h102v-682h-110v240q-56 -74 -158 -74q-96 0 -159 73.5t-63 191.5t63 191.5t160 73.5q111 0 165 -85v71zM419 251q0 78 -38.5 124t-100.5 46q-60 0 -96.5 -46.5t-36.5 -123.5q0 -78 36 -124.5t96 -46.5q63 0 101.5 46.5t38.5 124.5z" />
    <glyph glyph-name="r" unicode="r" horiz-adv-x="379" 
d="M369 494l-20 -95q-36 10 -64 10q-52 0 -82.5 -40.5t-30.5 -111.5v-257h-110v502h102v-75q40 82 126 82q30 0 79 -15z" />
    <glyph glyph-name="s" unicode="s" horiz-adv-x="495" 
d="M457 442l-60 -73q-45 35 -78.5 47.5t-75.5 12.5q-44 0 -70 -17t-26 -44q0 -18 12 -29q18 -14 113 -36q107 -24 150 -57.5t43 -99.5q0 -72 -57 -116.5t-152 -44.5q-70 0 -124 21t-114 73l64 72q52 -43 92 -61q36 -16 84 -16q43 0 71 17.5t28 47.5q-4 34 -28.5 46
t-102.5 29q-107 24 -145.5 55t-38.5 95q0 67 55.5 110.5t147.5 43.5q64 0 112.5 -17t99.5 -59z" />
    <glyph glyph-name="t" unicode="t" horiz-adv-x="373" 
d="M340 95l14 -87q-54 -19 -108 -19q-72 0 -104.5 33t-32.5 102v295h-91v83h91v162h110v-162h127v-83h-127v-282q0 -29 13 -41t41 -12q25 0 67 11z" />
    <glyph glyph-name="u" unicode="u" horiz-adv-x="552" 
d="M380 502h110v-502h-101v58q-45 -73 -149 -73q-88 0 -133.5 43t-45.5 118v356h110v-326q0 -46 24 -71t69 -25q53 0 84.5 31t31.5 87v304z" />
    <glyph glyph-name="v" unicode="v" horiz-adv-x="502" 
d="M377 502h114l-173 -502h-135l-172 502h116l55 -173q36 -108 70 -238q34 130 70 238z" />
    <glyph glyph-name="w" unicode="w" horiz-adv-x="766" 
d="M636 502h113l-140 -502h-132l-41 147q-31 112 -54 218l-6 -27l-19 -78q-18 -76 -28 -113l-40 -147h-131l-141 502h116l44 -175q29 -113 52 -228q36 151 56 228l47 175h103l48 -175q31 -115 56 -230q25 124 52 230z" />
    <glyph glyph-name="x" unicode="x" horiz-adv-x="504" 
d="M496 0h-122l-122 186l-125 -186h-119l182 263l-166 239h120l109 -161l107 161h119l-164 -235z" />
    <glyph glyph-name="y" unicode="y" horiz-adv-x="504" 
d="M379 502h112l-197 -564q-24 -72 -61 -102t-103 -30q-46 0 -88 11l18 83q36 -6 57 -6q30 0 50 16t32 55l3 9l-189 528h116l49 -147q51 -151 77 -236q42 138 75 237z" />
    <glyph glyph-name="z" unicode="z" horiz-adv-x="489" 
d="M447 502v-82l-275 -330h275v-90h-411v83l275 330h-258v89h394z" />
    <glyph glyph-name="braceleft" unicode="{" horiz-adv-x="370" 
d="M337 767v-81h-29q-36 0 -50 -11q-15 -11 -16 -27q-2 -22 -2 -67v-143q0 -57 -20.5 -86t-73.5 -38v-2q53 -9 73.5 -38t20.5 -86v-153v-44q0 -36 15.5 -48.5t52.5 -12.5h29v-80h-53q-81 0 -114.5 34t-33.5 124v163q0 56 -17.5 76t-68.5 20v93q52 0 69 19t17 76v154
q0 90 33.5 124t114.5 34h53z" />
    <glyph glyph-name="bar" unicode="|" horiz-adv-x="387" 
d="M241 800v-940h-95v940h95z" />
    <glyph glyph-name="braceright" unicode="}" horiz-adv-x="370" 
d="M33 767h53q81 0 114 -34t33 -124v-154q0 -56 18 -75.5t69 -19.5v-93q-51 0 -69 -20t-18 -76v-163q0 -90 -33 -124t-114 -34h-53v80h29q36 0 50 11q15 11 16 27q2 22 2 67v153q0 57 20.5 86t73.5 38v2q-53 9 -73.5 38t-20.5 86v143v44q0 36 -15.5 48.5t-52.5 12.5h-29v81z
" />
    <glyph glyph-name="asciitilde" unicode="~" horiz-adv-x="600" 
d="M317 383q53 -24 88 -24q50 0 55 48h89q0 -63 -35.5 -100t-95.5 -37q-45 0 -124 31q-62 24 -91 24q-26 0 -43 -13.5t-21 -35.5h-88q1 63 41 100t103 37q45 0 122 -30z" />
    <glyph glyph-name="uni00A0" unicode="&#xa0;" horiz-adv-x="223" 
 />
    <glyph glyph-name="exclamdown" unicode="&#xa1;" horiz-adv-x="241" 
d="M61 375v128h123v-128h-123zM62 -207v214l26 282h68l26 -282v-214h-120z" />
    <glyph glyph-name="cent" unicode="&#xa2;" 
d="M359 -12v-88h-80v87q-99 10 -158 82q-58 70 -58 182q0 111 59 182t157 83v86h80v-87q90 -11 163 -93l-70 -67q-52 52 -93 64v-334q44 14 98 74l73 -61q-77 -97 -171 -110zM279 83v337q-49 -12 -76.5 -58.5t-27.5 -110.5t27.5 -110t76.5 -58z" />
    <glyph glyph-name="sterling" unicode="&#xa3;" 
d="M524 119l37 -86q-74 -46 -147 -46q-53 0 -131 21l-28 6q-40 11 -77 11q-52 0 -109 -27l-32 87q42 16 63 28q62 33 62 108q0 25 -4 53h-96v85h73q-22 72 -22 142q0 87 63.5 139.5t156.5 52.5q116 0 217 -79l-61 -79q-85 61 -153 61q-49 0 -78.5 -28t-29.5 -76
q0 -56 24 -133h204v-85h-185q2 -32 2 -38q-2 -79 -67 -122q17 -2 37 -5.5t35 -7t16 -3.5q71 -16 111 -16q53 0 119 37z" />
    <glyph glyph-name="currency" unicode="&#xa4;" 
d="M487 581l49 -48l-64 -64q41 -56 41 -129t-41 -129l64 -64l-49 -48l-65 65q-53 -34 -125 -34t-127 36l-68 -67l-48 48l67 66q-40 53 -40 127t39 126l-67 67l49 48l67 -68q55 37 128 37q72 0 124 -34zM162 340q0 -60 38 -98t97 -38t97 38t38 98t-38 98t-97 38t-97 -38
t-38 -98z" />
    <glyph glyph-name="yen" unicode="&#xa5;" 
d="M566 680l-152 -268h116v-78h-160l-19 -34v-44h179v-78h-179v-178h-114v178h-176v78h176v45l-19 33h-157v78h114l-151 268h126l147 -274l148 274h121z" />
    <glyph glyph-name="brokenbar" unicode="&#xa6;" horiz-adv-x="387" 
d="M241 800v-400h-95v400h95zM241 260v-400h-95v400h95z" />
    <glyph glyph-name="section" unicode="&#xa7;" 
d="M519 80q0 -73 -62 -120t-162 -47q-70 0 -124.5 19t-111.5 64l59 73q55 -40 92 -53q39 -14 86 -14q53 0 85.5 20.5t32.5 53.5q0 22 -15 34q-15 14 -42 21q-43 12 -91 22q-121 26 -171 62q-52 37 -52 109q0 82 84 123q-56 35 -56 110q0 73 62 120t162 47q70 0 124.5 -19
t111.5 -64l-59 -74q-53 40 -92 53q-39 14 -86 14q-53 0 -85.5 -20.5t-32.5 -52.5q0 -21 15 -35q25 -20 133 -42q121 -26 172 -63t51 -107q0 -84 -84 -124q56 -35 56 -110zM312 241q19 -5 36 -8q92 20 92 74q0 25 -21 42q-19 16 -49 24q-52 14 -92 23q-19 5 -36 8
q-43 -8 -67.5 -27.5t-24.5 -46.5q0 -25 20 -42q20 -15 49 -24t93 -23z" />
    <glyph glyph-name="dieresis" unicode="&#xa8;" horiz-adv-x="401" 
d="M160 702v-113h-107v113h107zM348 702v-113h-107v113h107z" />
    <glyph glyph-name="copyright" unicode="&#xa9;" horiz-adv-x="856" 
d="M60 355q-2 154 106.5 262.5t261.5 105.5q153 3 261.5 -105.5t106.5 -262.5q2 -154 -106.5 -262.5t-261.5 -105.5q-153 -3 -261.5 105.5t-106.5 262.5zM729 355q2 130 -85.5 220.5t-215.5 89.5q-128 1 -215.5 -89.5t-85.5 -220.5q-2 -130 85.5 -220.5t215.5 -89.5
q128 -1 215.5 89.5t85.5 220.5zM224 355q0 95 58 158t150 63q122 0 176 -107l-66 -31q-21 38 -47 53.5t-63 15.5q-59 0 -94.5 -42t-35.5 -110q0 -67 35.5 -109.5t94.5 -42.5q40 0 64.5 17t49.5 62l65 -33q-31 -61 -72.5 -88t-106.5 -27q-92 0 -150 63t-58 158z" />
    <glyph glyph-name="ordfeminine" unicode="&#xaa;" horiz-adv-x="429" 
d="M381 580v-265h-77v47q-40 -60 -134 -60q-62 0 -99.5 29t-37.5 82q0 58 43.5 88t138.5 48l83 15v9q0 72 -86 72q-62 0 -120 -61l-55 51q72 81 178 81q79 0 122.5 -36.5t43.5 -99.5zM298 470v31l-67 -14q-64 -14 -88.5 -27.5t-24.5 -41.5q0 -46 68 -46q50 0 81 25.5
t31 72.5z" />
    <glyph glyph-name="guillemotleft" unicode="&#xab;" horiz-adv-x="594" 
d="M305 475l-144 -222l144 -222h-105l-142 222l142 222h105zM530 475l-143 -222l143 -222h-105l-141 222l141 222h105z" />
    <glyph glyph-name="logicalnot" unicode="&#xac;" horiz-adv-x="600" 
d="M40 357h520v-287h-95v193h-425v94z" />
    <glyph glyph-name="registered" unicode="&#xae;" horiz-adv-x="548" 
d="M53 501q0 94 63.5 157.5t157.5 63.5t157.5 -63.5t63.5 -157.5t-63.5 -157.5t-157.5 -63.5t-157.5 63.5t-63.5 157.5zM448 501q0 77 -49.5 128t-124.5 51t-124.5 -51t-49.5 -128t49.5 -128t124.5 -51t124.5 51t49.5 128zM188 381v248h104q35 0 57.5 -22.5t22.5 -55.5
q0 -53 -48 -73l59 -97h-54l-55 92h-37v-92h-49zM237 514h46q41 0 41 36q0 35 -41 35h-46v-71z" />
    <glyph glyph-name="overscore" unicode="&#xaf;" horiz-adv-x="408" 
d="M355 674v-82h-301v82h301z" />
    <glyph glyph-name="degree" unicode="&#xb0;" horiz-adv-x="421" 
d="M60 576q0 63 43.5 105t106.5 42t107 -42t44 -105t-44 -105.5t-107 -42.5t-106.5 42.5t-43.5 105.5zM290 576q0 35 -22.5 57.5t-57.5 22.5t-57 -22.5t-22 -57.5t22.5 -58t56.5 -23q35 0 57.5 23t22.5 58z" />
    <glyph glyph-name="plusminus" unicode="&#xb1;" horiz-adv-x="600" 
d="M348 676v-213h212v-94h-212v-213h-96v213h-212v94h212v213h96zM560 94v-94h-520v94h520z" />
    <glyph glyph-name="uni00B2" unicode="&#xb2;" horiz-adv-x="398" 
d="M123 372h237v-70h-323v33q0 61 31.5 96.5t99.5 71.5l25 13q49 24 67 39.5t18 40.5t-19.5 38.5t-52.5 13.5q-52 0 -118 -52l-45 54q77 71 164 71q70 0 112.5 -35.5t42.5 -86.5q0 -35 -15 -61q-14 -23 -36 -38.5t-71 -40.5l-25 -13q-48 -25 -67 -39.5t-25 -34.5z" />
    <glyph glyph-name="uni00B3" unicode="&#xb3;" horiz-adv-x="393" 
d="M356 427q0 -57 -44 -96.5t-118 -39.5q-88 0 -169 53l40 59q74 -39 128 -39q36 0 57 17t21 46t-24 45t-64 16q-33 0 -50 -6l-36 49l138 109h-189v70h292v-69l-121 -94q62 -2 100.5 -34.5t38.5 -85.5z" />
    <glyph glyph-name="acute" unicode="&#xb4;" horiz-adv-x="298" 
d="M244 713l-94 -143h-97l70 143h121z" />
    <glyph glyph-name="uni00B5" unicode="&#xb5;" horiz-adv-x="553" 
d="M381 502h110v-502h-100v66q-40 -81 -130 -81q-58 0 -89 28v-196h-110v685h110v-326q0 -95 98 -95q51 0 81 30.5t30 86.5v304z" />
    <glyph glyph-name="paragraph" unicode="&#xb6;" horiz-adv-x="668" 
d="M423 710v-810h-86v364h-77q-102 0 -164.5 61t-62.5 162t62.5 162t164.5 61h163zM591 710v-810h-86v810h86z" />
    <glyph glyph-name="middot" unicode="&#xb7;" horiz-adv-x="230" 
d="M177 387v-128h-124v128h124z" />
    <glyph glyph-name="cedilla" unicode="&#xb8;" horiz-adv-x="328" 
d="M275 -146q0 -42 -30.5 -68t-79.5 -26q-54 0 -112 38l30 47q47 -27 81 -27q22 0 35.5 9t13.5 26q0 15 -16 24t-38 9q-16 0 -28 -3l-31 29l49 108l51 -20l-31 -66q48 1 77 -21.5t29 -58.5z" />
    <glyph glyph-name="uni00B9" unicode="&#xb9;" horiz-adv-x="318" 
d="M160 710h64v-408h-83v308l-69 -49l-41 56z" />
    <glyph glyph-name="ordmasculine" unicode="&#xba;" horiz-adv-x="464" 
d="M426 511q0 -90 -54.5 -148.5t-139.5 -58.5t-139.5 58.5t-54.5 148.5q0 92 54 149.5t140 57.5t140 -57.5t54 -149.5zM126 511q0 -61 28.5 -97.5t77.5 -36.5t77.5 36.5t28.5 97.5q0 60 -29 97t-77 37t-77 -37t-29 -97z" />
    <glyph glyph-name="guillemotright" unicode="&#xbb;" horiz-adv-x="594" 
d="M63 475h105l142 -222l-142 -222h-105l140 222zM289 475h105l141 -222l-141 -222h-105l140 222z" />
    <glyph glyph-name="onequarter" unicode="&#xbc;" horiz-adv-x="895" 
d="M160 680h64v-408h-83v308l-69 -49l-41 56zM626 696l65 -41l-472 -671l-64 42zM812 155h56v-66h-56v-89h-82v89h-201v78l162 241h89l-167 -253h117v82h82v-82z" />
    <glyph glyph-name="onehalf" unicode="&#xbd;" horiz-adv-x="926" 
d="M160 680h64v-408h-83v308l-69 -49l-41 56zM626 696l65 -41l-472 -671l-64 42zM652 70h237v-70h-323v33q0 61 31.5 96.5t99.5 71.5l25 13q49 24 67 39.5t18 40.5t-19.5 38.5t-52.5 13.5q-52 0 -118 -52l-45 54q77 71 164 71q70 0 112.5 -35.5t42.5 -86.5q0 -35 -15 -61
q-14 -23 -36 -38.5t-71 -40.5l-25 -13q-48 -25 -67 -39.5t-25 -34.5z" />
    <glyph glyph-name="threequarters" unicode="&#xbe;" horiz-adv-x="970" 
d="M356 397q0 -57 -44 -96.5t-118 -39.5q-88 0 -169 53l40 59q74 -39 128 -39q36 0 57 17t21 46t-24 45t-64 16q-33 0 -50 -6l-36 49l138 109h-189v70h292v-69l-121 -94q62 -2 100.5 -34.5t38.5 -85.5zM701 696l65 -41l-472 -671l-64 42zM887 155h56v-66h-56v-89h-82v89
h-201v78l162 241h89l-167 -253h117v82h82v-82z" />
    <glyph glyph-name="questiondown" unicode="&#xbf;" horiz-adv-x="477" 
d="M198 375v128h124v-128h-124zM3 -36q0 38 14 69q13 28 33.5 50t65.5 62l16 14q40 35 58 57q18 24 22 55l3 23h95v-27q-2 -61 -16.5 -89.5t-79.5 -85.5l-18 -15q-43 -36 -59 -58.5t-16 -52.5q0 -40 29.5 -63.5t78.5 -23.5q40 0 76.5 17.5t95.5 62.5l66 -77
q-117 -105 -241 -105q-97 0 -161 50q-62 50 -62 137z" />
    <glyph glyph-name="Agrave" unicode="&#xc0;" horiz-adv-x="693" 
d="M557 0l-56 160h-313l-55 -160h-120l256 710h155l256 -710h-123zM222 258h245l-30 87l-23 67q-50 141 -69 208q-23 -76 -85 -253l-8 -23zM204 914h122l70 -143h-97z" />
    <glyph glyph-name="Aacute" unicode="&#xc1;" horiz-adv-x="693" 
d="M557 0l-56 160h-313l-55 -160h-120l256 710h155l256 -710h-123zM222 258h245l-30 87l-23 67q-50 141 -69 208q-23 -76 -85 -253l-8 -23zM486 914l-94 -143h-97l70 143h121z" />
    <glyph glyph-name="Acircumflex" unicode="&#xc2;" horiz-adv-x="693" 
d="M557 0l-56 160h-313l-55 -160h-120l256 710h155l256 -710h-123zM222 258h245l-30 87l-23 67q-50 141 -69 208q-23 -76 -85 -253l-8 -23zM420 771l-75 94l-76 -94h-93l100 143h138l100 -143h-94z" />
    <glyph glyph-name="Atilde" unicode="&#xc3;" horiz-adv-x="693" 
d="M557 0l-56 160h-313l-55 -160h-120l256 710h155l256 -710h-123zM222 258h245l-30 87l-23 67q-50 141 -69 208q-23 -76 -85 -253l-8 -23zM360 868q34 -22 54 -22q32 0 32 50h65q0 -56 -24.5 -88t-66.5 -32q-33 0 -80 28q-43 22 -60 22q-15 0 -24.5 -14t-9.5 -36h-66
q0 56 27 88.5t70 32.5q32 0 83 -29z" />
    <glyph glyph-name="Adieresis" unicode="&#xc4;" horiz-adv-x="693" 
d="M557 0l-56 160h-313l-55 -160h-120l256 710h155l256 -710h-123zM222 258h245l-30 87l-23 67q-50 141 -69 208q-23 -76 -85 -253l-8 -23zM305 903v-113h-107v113h107zM493 903v-113h-107v113h107z" />
    <glyph glyph-name="Aring" unicode="&#xc5;" horiz-adv-x="699" 
d="M563 0l-56 161h-318l-56 -161h-120l251 698q-46 39 -46 98q0 52 38 90q37 37 93 37t93 -37q39 -38 39 -90q0 -58 -46 -97l251 -699h-123zM280 796q0 -31 19.5 -50.5t49.5 -19.5t49.5 19.5t19.5 50.5t-19.5 50t-49.5 19t-49.5 -19.5t-19.5 -49.5zM222 258h252l-31 88
l-35 102q-46 135 -60 180q-22 -74 -74 -220q-7 -17 -22 -64z" />
    <glyph glyph-name="AE" unicode="&#xc6;" horiz-adv-x="985" 
d="M561 100h378v-100h-497v160h-236l-82 -160h-121l366 710h560v-100h-368v-194h344v-99h-344v-217zM256 258h186v366z" />
    <glyph glyph-name="Ccedilla" unicode="&#xc7;" horiz-adv-x="674" 
d="M482 -146q0 -42 -30.5 -68t-79.5 -26q-53 0 -111 38l30 47q45 -27 80 -27q49 0 49 35q0 15 -15 24t-39 9q-16 0 -28 -3l-31 29l34 74q-139 15 -221 117t-82 253q0 163 94.5 266.5t255.5 103.5q75 0 135 -24t124 -79l-69 -82q-53 46 -96.5 64t-94.5 18q-104 0 -166 -73.5
t-62 -193.5q0 -121 61.5 -195t162.5 -74q58 0 101 22q45 23 104 75l71 -80q-66 -61 -125 -89t-133 -31l-24 -50q48 0 76.5 -22t28.5 -58z" />
    <glyph glyph-name="Egrave" unicode="&#xc8;" horiz-adv-x="620" 
d="M564 710v-100h-369v-194h344v-99h-344v-217h379v-100h-497v710h487zM183 914h122l70 -143h-97z" />
    <glyph glyph-name="Eacute" unicode="&#xc9;" horiz-adv-x="620" 
d="M564 710v-100h-369v-194h344v-99h-344v-217h379v-100h-497v710h487zM465 914l-94 -143h-97l70 143h121z" />
    <glyph glyph-name="Ecircumflex" unicode="&#xca;" horiz-adv-x="620" 
d="M564 710v-100h-369v-194h344v-99h-344v-217h379v-100h-497v710h487zM399 771l-75 94l-76 -94h-93l100 143h138l100 -143h-94z" />
    <glyph glyph-name="Edieresis" unicode="&#xcb;" horiz-adv-x="620" 
d="M564 710v-100h-369v-194h344v-99h-344v-217h379v-100h-497v710h487zM284 903v-113h-107v113h107zM472 903v-113h-107v113h107z" />
    <glyph glyph-name="Igrave" unicode="&#xcc;" horiz-adv-x="286" 
d="M202 710v-710h-118v710h118zM2 914h122l70 -143h-97z" />
    <glyph glyph-name="Iacute" unicode="&#xcd;" horiz-adv-x="286" 
d="M202 710v-710h-118v710h118zM284 914l-94 -143h-97l70 143h121z" />
    <glyph glyph-name="Icircumflex" unicode="&#xce;" horiz-adv-x="286" 
d="M202 710v-710h-118v710h118zM218 771l-75 94l-76 -94h-93l100 143h138l100 -143h-94z" />
    <glyph glyph-name="Idieresis" unicode="&#xcf;" horiz-adv-x="286" 
d="M202 710v-710h-118v710h118zM103 903v-113h-107v113h107zM291 903v-113h-107v113h107z" />
    <glyph glyph-name="Eth" unicode="&#xd0;" horiz-adv-x="741" 
d="M703 355q0 -159 -85.5 -257t-233.5 -98h-279v317h-79v99h79v294h279q148 0 233.5 -98t85.5 -257zM581 355q0 122 -57 188.5t-159 66.5h-141v-194h177v-99h-177v-217h141q102 0 159 66.5t57 188.5z" />
    <glyph glyph-name="Ntilde" unicode="&#xd1;" horiz-adv-x="739" 
d="M547 710h115v-710h-128l-193 304q-112 174 -154 250q5 -117 5 -275v-279h-115v710h130l201 -316l19 -30q99 -159 125 -206q-5 112 -5 264v288zM393 868q34 -22 54 -22q32 0 32 50h65q0 -56 -24.5 -88t-66.5 -32q-33 0 -80 28q-43 22 -60 22q-15 0 -24.5 -14t-9.5 -36h-66
q0 56 27 88.5t70 32.5q32 0 83 -29z" />
    <glyph glyph-name="Ograve" unicode="&#xd2;" horiz-adv-x="765" 
d="M727 355q2 -161 -93.5 -267t-250.5 -104q-156 0 -250.5 104.5t-94.5 266.5t94.5 266.5t250.5 104.5q155 2 250.5 -104t93.5 -267zM159 355q0 -119 62 -193t162 -74q101 0 162 73.5t61 193.5t-61 193.5t-162 73.5q-100 0 -162 -74t-62 -193zM241 914h122l70 -143h-97z" />
    <glyph glyph-name="Oacute" unicode="&#xd3;" horiz-adv-x="765" 
d="M727 355q2 -161 -93.5 -267t-250.5 -104q-156 0 -250.5 104.5t-94.5 266.5t94.5 266.5t250.5 104.5q155 2 250.5 -104t93.5 -267zM159 355q0 -119 62 -193t162 -74q101 0 162 73.5t61 193.5t-61 193.5t-162 73.5q-100 0 -162 -74t-62 -193zM523 914l-94 -143h-97l70 143
h121z" />
    <glyph glyph-name="Ocircumflex" unicode="&#xd4;" horiz-adv-x="765" 
d="M727 355q2 -161 -93.5 -267t-250.5 -104q-156 0 -250.5 104.5t-94.5 266.5t94.5 266.5t250.5 104.5q155 2 250.5 -104t93.5 -267zM159 355q0 -119 62 -193t162 -74q101 0 162 73.5t61 193.5t-61 193.5t-162 73.5q-100 0 -162 -74t-62 -193zM457 771l-75 94l-76 -94h-93
l100 143h138l100 -143h-94z" />
    <glyph glyph-name="Otilde" unicode="&#xd5;" horiz-adv-x="765" 
d="M727 355q2 -161 -93.5 -267t-250.5 -104q-156 0 -250.5 104.5t-94.5 266.5t94.5 266.5t250.5 104.5q155 2 250.5 -104t93.5 -267zM159 355q0 -119 62 -193t162 -74q101 0 162 73.5t61 193.5t-61 193.5t-162 73.5q-100 0 -162 -74t-62 -193zM397 868q34 -22 54 -22
q32 0 32 50h65q0 -56 -24.5 -88t-66.5 -32q-33 0 -80 28q-43 22 -60 22q-15 0 -24.5 -14t-9.5 -36h-66q0 56 27 88.5t70 32.5q32 0 83 -29z" />
    <glyph glyph-name="Odieresis" unicode="&#xd6;" horiz-adv-x="765" 
d="M727 355q2 -161 -93.5 -267t-250.5 -104q-156 0 -250.5 104.5t-94.5 266.5t94.5 266.5t250.5 104.5q155 2 250.5 -104t93.5 -267zM159 355q0 -119 62 -193t162 -74q101 0 162 73.5t61 193.5t-61 193.5t-162 73.5q-100 0 -162 -74t-62 -193zM342 903v-113h-107v113h107z
M530 903v-113h-107v113h107z" />
    <glyph glyph-name="multiply" unicode="&#xd7;" horiz-adv-x="600" 
d="M537 480l-170 -170l170 -170l-67 -67l-170 170l-170 -170l-67 67l170 170l-170 170l67 67l170 -170l170 170z" />
    <glyph glyph-name="Oslash" unicode="&#xd8;" horiz-adv-x="765" 
d="M727 355q2 -161 -93.5 -267t-250.5 -104q-118 0 -205 63l-44 -53l-63 53l48 57q-81 99 -81 251q0 162 94.5 266.5t250.5 104.5q118 0 204 -62l44 52l63 -53l-47 -57q80 -100 80 -251zM196 197l319 381q-56 44 -132 44q-100 0 -162 -74t-62 -193q0 -94 37 -158zM606 355
q0 93 -37 158l-319 -380q56 -45 133 -45q101 0 162 73.5t61 193.5z" />
    <glyph glyph-name="Ugrave" unicode="&#xd9;" horiz-adv-x="698" 
d="M626 710v-476q0 -124 -71 -187t-206 -63t-206 63t-71 187v476h118v-471q0 -73 40.5 -112t118.5 -39t118.5 39t40.5 112v471h118zM207 914h122l70 -143h-97z" />
    <glyph glyph-name="Uacute" unicode="&#xda;" horiz-adv-x="698" 
d="M626 710v-476q0 -124 -71 -187t-206 -63t-206 63t-71 187v476h118v-471q0 -73 40.5 -112t118.5 -39t118.5 39t40.5 112v471h118zM489 914l-94 -143h-97l70 143h121z" />
    <glyph glyph-name="Ucircumflex" unicode="&#xdb;" horiz-adv-x="698" 
d="M626 710v-476q0 -124 -71 -187t-206 -63t-206 63t-71 187v476h118v-471q0 -73 40.5 -112t118.5 -39t118.5 39t40.5 112v471h118zM424 771l-75 94l-76 -94h-93l100 143h138l100 -143h-94z" />
    <glyph glyph-name="Udieresis" unicode="&#xdc;" horiz-adv-x="698" 
d="M626 710v-476q0 -124 -71 -187t-206 -63t-206 63t-71 187v476h118v-471q0 -73 40.5 -112t118.5 -39t118.5 39t40.5 112v471h118zM308 903v-113h-107v113h107zM496 903v-113h-107v113h107z" />
    <glyph glyph-name="Yacute" unicode="&#xdd;" horiz-adv-x="642" 
d="M504 710h127l-251 -410v-300h-119v301l-250 409h131l181 -305zM462 914l-94 -143h-97l70 143h121z" />
    <glyph glyph-name="Thorn" unicode="&#xde;" horiz-adv-x="668" 
d="M635 367q0 -102 -64 -160q-62 -58 -169 -58h-207v-149h-118v710h118v-124h207q105 0 169 -59q64 -58 64 -160zM517 367q0 58 -35.5 89.5t-98.5 31.5h-188v-241h188q63 0 98.5 31.5t35.5 88.5z" />
    <glyph glyph-name="germandbls" unicode="&#xdf;" horiz-adv-x="595" 
d="M559 212q0 -94 -60.5 -157t-160.5 -63q-58 0 -114 15l17 89q60 -11 87 -11q54 0 86.5 35t32.5 95q0 61 -43 95t-120 34h-24v88h24q51 0 79.5 27t28.5 75q0 43 -30 70.5t-77 27.5q-52 0 -82.5 -34t-30.5 -96v-502h-110v509q0 103 63.5 159.5t160.5 56.5q94 0 154 -54
t60 -130q0 -98 -83 -139q142 -44 142 -190z" />
    <glyph glyph-name="agrave" unicode="&#xe0;" horiz-adv-x="547" 
d="M486 343v-343h-99v57q-50 -73 -166 -73q-81 0 -130.5 36t-49.5 106q0 79 59 117q61 40 166 59l115 21v18q0 41 -28 63.5t-76 22.5q-46 0 -80.5 -18.5t-80.5 -64.5l-69 64q92 110 227 110q101 0 156.5 -47t55.5 -128zM381 197v46l-87 -18q-79 -17 -112 -36.5t-33 -56.5
q0 -28 23.5 -44t64.5 -16q63 0 103.5 33.5t40.5 91.5zM138 713h122l70 -143h-97z" />
    <glyph glyph-name="aacute" unicode="&#xe1;" horiz-adv-x="547" 
d="M486 343v-343h-99v57q-50 -73 -166 -73q-81 0 -130.5 36t-49.5 106q0 79 59 117q61 40 166 59l115 21v18q0 41 -28 63.5t-76 22.5q-46 0 -80.5 -18.5t-80.5 -64.5l-69 64q92 110 227 110q101 0 156.5 -47t55.5 -128zM381 197v46l-87 -18q-79 -17 -112 -36.5t-33 -56.5
q0 -28 23.5 -44t64.5 -16q63 0 103.5 33.5t40.5 91.5zM419 713l-94 -143h-97l70 143h121z" />
    <glyph glyph-name="acircumflex" unicode="&#xe2;" horiz-adv-x="547" 
d="M486 343v-343h-99v57q-50 -73 -166 -73q-81 0 -130.5 36t-49.5 106q0 79 59 117q61 40 166 59l115 21v18q0 41 -28 63.5t-76 22.5q-46 0 -80.5 -18.5t-80.5 -64.5l-69 64q92 110 227 110q101 0 156.5 -47t55.5 -128zM381 197v46l-87 -18q-79 -17 -112 -36.5t-33 -56.5
q0 -28 23.5 -44t64.5 -16q63 0 103.5 33.5t40.5 91.5zM354 570l-75 94l-76 -94h-93l100 143h138l100 -143h-94z" />
    <glyph glyph-name="atilde" unicode="&#xe3;" horiz-adv-x="547" 
d="M486 343v-343h-99v57q-50 -73 -166 -73q-81 0 -130.5 36t-49.5 106q0 79 59 117q61 40 166 59l115 21v18q0 41 -28 63.5t-76 22.5q-46 0 -80.5 -18.5t-80.5 -64.5l-69 64q92 110 227 110q101 0 156.5 -47t55.5 -128zM381 197v46l-87 -18q-79 -17 -112 -36.5t-33 -56.5
q0 -28 23.5 -44t64.5 -16q63 0 103.5 33.5t40.5 91.5zM294 667q34 -22 54 -22q32 0 32 50h65q0 -56 -24.5 -88t-66.5 -32q-33 0 -80 28q-43 22 -60 22q-15 0 -24.5 -14t-9.5 -36h-66q0 56 27 88.5t70 32.5q32 0 83 -29z" />
    <glyph glyph-name="adieresis" unicode="&#xe4;" horiz-adv-x="547" 
d="M486 343v-343h-99v57q-50 -73 -166 -73q-81 0 -130.5 36t-49.5 106q0 79 59 117q61 40 166 59l115 21v18q0 41 -28 63.5t-76 22.5q-46 0 -80.5 -18.5t-80.5 -64.5l-69 64q92 110 227 110q101 0 156.5 -47t55.5 -128zM381 197v46l-87 -18q-79 -17 -112 -36.5t-33 -56.5
q0 -28 23.5 -44t64.5 -16q63 0 103.5 33.5t40.5 91.5zM239 702v-113h-107v113h107zM427 702v-113h-107v113h107z" />
    <glyph glyph-name="aring" unicode="&#xe5;" horiz-adv-x="547" 
d="M486 343v-343h-99v57q-50 -73 -166 -73q-81 0 -130.5 36t-49.5 106q0 79 59 117q61 40 166 59l115 21v18q0 41 -28 63.5t-76 22.5q-46 0 -80.5 -18.5t-80.5 -64.5l-69 64q92 110 227 110q101 0 156.5 -47t55.5 -128zM381 197v46l-87 -18q-79 -17 -112 -36.5t-33 -56.5
q0 -28 23.5 -44t64.5 -16q63 0 103.5 33.5t40.5 91.5zM394 677q0 -46 -34 -79q-35 -32 -81 -32q-47 0 -82 32q-34 33 -34 79q0 47 34 78q34 33 82 33q47 0 81 -33q34 -31 34 -78zM219 677q0 -27 17 -44t43 -17t42.5 17t16.5 44t-16.5 44t-42.5 17t-43 -17t-17 -44z" />
    <glyph glyph-name="ae" unicode="&#xe6;" horiz-adv-x="897" 
d="M796 153l63 -67q-53 -55 -105 -78t-117 -23q-132 0 -198 86q-85 -87 -212 -87q-87 0 -136.5 35.5t-49.5 104.5t47.5 109t152.5 60l140 26v15q0 93 -105 93q-42 0 -77 -18t-79 -63l-71 65q53 56 106.5 81.5t124.5 25.5q120 0 173 -71q68 71 175 71q110 0 171 -65.5
t61 -181.5q0 -14 -2 -44h-367q6 -69 43.5 -109t104.5 -40q46 0 77 16q36 18 80 59zM493 304h260q-3 60 -36.5 94.5t-89.5 34.5q-54 0 -89 -34t-45 -95zM397 146q-14 44 -15 95l-120 -27q-59 -13 -85.5 -32t-26.5 -49q0 -61 91 -61q95 0 156 74z" />
    <glyph glyph-name="ccedilla" unicode="&#xe7;" horiz-adv-x="516" 
d="M306 -14l-24 -52q48 0 77 -22t29 -58q0 -42 -30.5 -68t-80.5 -26q-53 0 -111 38l30 47q45 -27 80 -27q49 0 49 35q0 15 -15.5 24t-37.5 9q-17 0 -29 -3l-31 29l35 75q-99 12 -156 82.5t-57 181.5q0 121 70 194t182 73q63 0 111 -22t96 -73l-70 -68q-40 40 -70.5 55
t-66.5 15q-67 0 -104 -51q-36 -50 -36 -123t36 -123q37 -49 104 -49q38 0 69.5 17.5t72.5 62.5l73 -61q-45 -57 -91 -83t-104 -29z" />
    <glyph glyph-name="egrave" unicode="&#xe8;" horiz-adv-x="549" 
d="M449 153l64 -67q-53 -54 -105.5 -77.5t-116.5 -23.5q-119 0 -188 71.5t-69 191.5q0 119 67.5 194.5t179.5 75.5q110 0 170.5 -65.5t60.5 -181.5q0 -19 -2 -45h-368q6 -68 45 -108t106 -40q43 0 75 16t81 59zM145 306h259q-3 58 -36 91.5t-90 33.5q-53 0 -87.5 -32.5
t-45.5 -92.5zM149 713h122l70 -143h-97z" />
    <glyph glyph-name="eacute" unicode="&#xe9;" horiz-adv-x="549" 
d="M449 153l64 -67q-53 -54 -105.5 -77.5t-116.5 -23.5q-119 0 -188 71.5t-69 191.5q0 119 67.5 194.5t179.5 75.5q110 0 170.5 -65.5t60.5 -181.5q0 -19 -2 -45h-368q6 -68 45 -108t106 -40q43 0 75 16t81 59zM145 306h259q-3 58 -36 91.5t-90 33.5q-53 0 -87.5 -32.5
t-45.5 -92.5zM431 713l-94 -143h-97l70 143h121z" />
    <glyph glyph-name="ecircumflex" unicode="&#xea;" horiz-adv-x="549" 
d="M449 153l64 -67q-53 -54 -105.5 -77.5t-116.5 -23.5q-119 0 -188 71.5t-69 191.5q0 119 67.5 194.5t179.5 75.5q110 0 170.5 -65.5t60.5 -181.5q0 -19 -2 -45h-368q6 -68 45 -108t106 -40q43 0 75 16t81 59zM145 306h259q-3 58 -36 91.5t-90 33.5q-53 0 -87.5 -32.5
t-45.5 -92.5zM365 570l-75 94l-76 -94h-93l100 143h138l100 -143h-94z" />
    <glyph glyph-name="edieresis" unicode="&#xeb;" horiz-adv-x="549" 
d="M449 153l64 -67q-53 -54 -105.5 -77.5t-116.5 -23.5q-119 0 -188 71.5t-69 191.5q0 119 67.5 194.5t179.5 75.5q110 0 170.5 -65.5t60.5 -181.5q0 -19 -2 -45h-368q6 -68 45 -108t106 -40q43 0 75 16t81 59zM145 306h259q-3 58 -36 91.5t-90 33.5q-53 0 -87.5 -32.5
t-45.5 -92.5zM250 702v-113h-107v113h107zM438 702v-113h-107v113h107z" />
    <glyph glyph-name="igrave" unicode="&#xec;" horiz-adv-x="233" 
d="M172 502v-502h-110v502h110zM-25 713h122l70 -143h-97z" />
    <glyph glyph-name="iacute" unicode="&#xed;" horiz-adv-x="233" 
d="M172 502v-502h-110v502h110zM257 713l-94 -143h-97l70 143h121z" />
    <glyph glyph-name="icircumflex" unicode="&#xee;" horiz-adv-x="233" 
d="M172 502v-502h-110v502h110zM191 570l-75 94l-76 -94h-93l100 143h138l100 -143h-94z" />
    <glyph glyph-name="idieresis" unicode="&#xef;" horiz-adv-x="233" 
d="M172 502v-502h-110v502h110zM76 702v-113h-107v113h107zM264 702v-113h-107v113h107z" />
    <glyph glyph-name="eth" unicode="&#xf0;" horiz-adv-x="577" 
d="M529 293q0 -146 -67.5 -228t-184.5 -82q-109 0 -176 74t-67 177q0 101 61 171t160 70q108 0 164 -80q-24 104 -121 167l-93 -59l-35 49l68 43q-19 10 -57 25l-48 18l41 87l47 -16q63 -22 115 -52l82 52l35 -49l-63 -40q139 -112 139 -327zM412 231q0 63 -40 107t-99 44
q-58 0 -93.5 -42.5t-35.5 -108.5t37 -108.5t96 -42.5q60 0 97 43q38 44 38 108z" />
    <glyph glyph-name="ntilde" unicode="&#xf1;" horiz-adv-x="560" 
d="M499 344v-344h-110v310q0 55 -27 84.5t-77 29.5q-49 0 -81 -33t-32 -84v-307h-110v502h102v-61q50 77 155 77q85 0 132.5 -47.5t47.5 -126.5zM293 667q34 -22 54 -22q32 0 32 50h65q0 -56 -24.5 -88t-66.5 -32q-33 0 -80 28q-43 22 -60 22q-15 0 -24.5 -14t-9.5 -36h-66
q0 56 27 88.5t70 32.5q32 0 83 -29z" />
    <glyph glyph-name="ograve" unicode="&#xf2;" horiz-adv-x="579" 
d="M545 251q0 -117 -71.5 -191.5t-183.5 -74.5q-113 0 -184.5 74t-71.5 192q0 119 71.5 193t184.5 74q112 0 183.5 -74.5t71.5 -192.5zM146 251q0 -78 39 -125.5t105 -47.5q64 0 103.5 47.5t39.5 125.5q0 79 -39 126.5t-104 47.5q-66 0 -105 -47.5t-39 -126.5zM146 713h122
l70 -143h-97z" />
    <glyph glyph-name="oacute" unicode="&#xf3;" horiz-adv-x="579" 
d="M545 251q0 -117 -71.5 -191.5t-183.5 -74.5q-113 0 -184.5 74t-71.5 192q0 119 71.5 193t184.5 74q112 0 183.5 -74.5t71.5 -192.5zM146 251q0 -78 39 -125.5t105 -47.5q64 0 103.5 47.5t39.5 125.5q0 79 -39 126.5t-104 47.5q-66 0 -105 -47.5t-39 -126.5zM428 713
l-94 -143h-97l70 143h121z" />
    <glyph glyph-name="ocircumflex" unicode="&#xf4;" horiz-adv-x="579" 
d="M545 251q0 -117 -71.5 -191.5t-183.5 -74.5q-113 0 -184.5 74t-71.5 192q0 119 71.5 193t184.5 74q112 0 183.5 -74.5t71.5 -192.5zM146 251q0 -78 39 -125.5t105 -47.5q64 0 103.5 47.5t39.5 125.5q0 79 -39 126.5t-104 47.5q-66 0 -105 -47.5t-39 -126.5zM362 570
l-75 94l-76 -94h-93l100 143h138l100 -143h-94z" />
    <glyph glyph-name="otilde" unicode="&#xf5;" horiz-adv-x="579" 
d="M545 251q0 -117 -71.5 -191.5t-183.5 -74.5q-113 0 -184.5 74t-71.5 192q0 119 71.5 193t184.5 74q112 0 183.5 -74.5t71.5 -192.5zM146 251q0 -78 39 -125.5t105 -47.5q64 0 103.5 47.5t39.5 125.5q0 79 -39 126.5t-104 47.5q-66 0 -105 -47.5t-39 -126.5zM302 667
q34 -22 54 -22q32 0 32 50h65q0 -56 -24.5 -88t-66.5 -32q-33 0 -80 28q-43 22 -60 22q-15 0 -24.5 -14t-9.5 -36h-66q0 56 27 88.5t70 32.5q32 0 83 -29z" />
    <glyph glyph-name="odieresis" unicode="&#xf6;" horiz-adv-x="579" 
d="M545 251q0 -117 -71.5 -191.5t-183.5 -74.5q-113 0 -184.5 74t-71.5 192q0 119 71.5 193t184.5 74q112 0 183.5 -74.5t71.5 -192.5zM146 251q0 -78 39 -125.5t105 -47.5q64 0 103.5 47.5t39.5 125.5q0 79 -39 126.5t-104 47.5q-66 0 -105 -47.5t-39 -126.5zM247 702v-113
h-107v113h107zM435 702v-113h-107v113h107z" />
    <glyph glyph-name="divide" unicode="&#xf7;" horiz-adv-x="600" 
d="M362 558v-128h-124v128h124zM560 357v-94h-520v94h520zM362 190v-128h-124v128h124z" />
    <glyph glyph-name="oslash" unicode="&#xf8;" horiz-adv-x="579" 
d="M545 251q0 -117 -71.5 -191.5t-183.5 -74.5q-68 0 -124 29l-27 -39l-59 42l28 39q-74 74 -74 195q0 119 71.5 193t184.5 74q68 0 121 -28l27 38l59 -41l-27 -39q75 -75 75 -197zM171 146l184 263q-28 16 -65 16q-66 0 -105 -47.5t-39 -126.5q0 -62 25 -105zM433 251
q0 63 -26 107l-185 -264q31 -16 68 -16q64 0 103.5 47.5t39.5 125.5z" />
    <glyph glyph-name="ugrave" unicode="&#xf9;" horiz-adv-x="552" 
d="M380 502h110v-502h-101v58q-45 -73 -149 -73q-88 0 -133.5 43t-45.5 118v356h110v-326q0 -46 24 -71t69 -25q53 0 84.5 31t31.5 87v304zM127 713h122l70 -143h-97z" />
    <glyph glyph-name="uacute" unicode="&#xfa;" horiz-adv-x="552" 
d="M380 502h110v-502h-101v58q-45 -73 -149 -73q-88 0 -133.5 43t-45.5 118v356h110v-326q0 -46 24 -71t69 -25q53 0 84.5 31t31.5 87v304zM409 713l-94 -143h-97l70 143h121z" />
    <glyph glyph-name="ucircumflex" unicode="&#xfb;" horiz-adv-x="552" 
d="M380 502h110v-502h-101v58q-45 -73 -149 -73q-88 0 -133.5 43t-45.5 118v356h110v-326q0 -46 24 -71t69 -25q53 0 84.5 31t31.5 87v304zM343 570l-75 94l-76 -94h-93l100 143h138l100 -143h-94z" />
    <glyph glyph-name="udieresis" unicode="&#xfc;" horiz-adv-x="552" 
d="M380 502h110v-502h-101v58q-45 -73 -149 -73q-88 0 -133.5 43t-45.5 118v356h110v-326q0 -46 24 -71t69 -25q53 0 84.5 31t31.5 87v304zM228 702v-113h-107v113h107zM416 702v-113h-107v113h107z" />
    <glyph glyph-name="yacute" unicode="&#xfd;" horiz-adv-x="504" 
d="M379 502h112l-197 -564q-24 -72 -61 -102t-103 -30q-46 0 -88 11l18 83q36 -6 57 -6q30 0 50 16t32 55l3 9l-189 528h116l49 -147q51 -151 77 -236q42 138 75 237zM392 713l-94 -143h-97l70 143h121z" />
    <glyph glyph-name="thorn" unicode="&#xfe;" horiz-adv-x="587" 
d="M552 252q0 -119 -63 -192t-160 -73q-103 0 -157 71v-238h-110v891h110v-269q54 74 158 74q97 0 159.5 -73t62.5 -191zM440 252q0 77 -36 123.5t-97 46.5q-63 0 -101.5 -46.5t-38.5 -123.5q0 -78 39 -124t101 -46q60 0 96.5 46.5t36.5 123.5z" />
    <glyph glyph-name="ydieresis" unicode="&#xff;" horiz-adv-x="504" 
d="M379 502h112l-197 -564q-24 -72 -61 -102t-103 -30q-46 0 -88 11l18 83q36 -6 57 -6q30 0 50 16t32 55l3 9l-189 528h116l49 -147q51 -151 77 -236q42 138 75 237zM211 702v-113h-107v113h107zM399 702v-113h-107v113h107z" />
    <glyph glyph-name="Amacron" unicode="&#x100;" horiz-adv-x="693" 
d="M557 0l-56 160h-313l-55 -160h-120l256 710h155l256 -710h-123zM222 258h245l-30 87l-23 67q-50 141 -69 208q-23 -76 -85 -253l-8 -23zM496 875v-82h-301v82h301z" />
    <glyph glyph-name="amacron" unicode="&#x101;" horiz-adv-x="547" 
d="M486 343v-343h-99v57q-50 -73 -166 -73q-81 0 -130.5 36t-49.5 106q0 79 59 117q61 40 166 59l115 21v18q0 41 -28 63.5t-76 22.5q-46 0 -80.5 -18.5t-80.5 -64.5l-69 64q92 110 227 110q101 0 156.5 -47t55.5 -128zM381 197v46l-87 -18q-79 -17 -112 -36.5t-33 -56.5
q0 -28 23.5 -44t64.5 -16q63 0 103.5 33.5t40.5 91.5zM430 674v-82h-301v82h301z" />
    <glyph glyph-name="Abreve" unicode="&#x102;" horiz-adv-x="693" 
d="M557 0l-56 160h-313l-55 -160h-120l256 710h155l256 -710h-123zM222 258h245l-30 87l-23 67q-50 141 -69 208q-23 -76 -85 -253l-8 -23zM190 903h78q0 -33 20.5 -52t56.5 -19t56 19t21 52h77q0 -65 -42.5 -102.5t-111.5 -37.5t-112 37.5t-43 102.5z" />
    <glyph glyph-name="abreve" unicode="&#x103;" horiz-adv-x="547" 
d="M486 343v-343h-99v57q-50 -73 -166 -73q-81 0 -130.5 36t-49.5 106q0 79 59 117q61 40 166 59l115 21v18q0 41 -28 63.5t-76 22.5q-46 0 -80.5 -18.5t-80.5 -64.5l-69 64q92 110 227 110q101 0 156.5 -47t55.5 -128zM381 197v46l-87 -18q-79 -17 -112 -36.5t-33 -56.5
q0 -28 23.5 -44t64.5 -16q63 0 103.5 33.5t40.5 91.5zM124 702h78q0 -33 20.5 -52t56.5 -19t56 19t21 52h77q0 -65 -42.5 -102.5t-111.5 -37.5t-112 37.5t-43 102.5z" />
    <glyph glyph-name="Aogonek" unicode="&#x104;" horiz-adv-x="693" 
d="M646 -145q16 0 28 4v-66q-15 -7 -44 -7q-53 0 -82 23.5t-29 65.5q0 66 71 125h-33l-56 160h-313l-55 -160h-120l256 710h155l256 -710q-84 -54 -84 -106q0 -39 50 -39zM222 258h245l-30 87l-23 67q-50 141 -69 208q-23 -76 -85 -253l-8 -23z" />
    <glyph glyph-name="aogonek" unicode="&#x105;" horiz-adv-x="547" 
d="M403 -106q0 -39 50 -39q16 0 28 4v-66q-15 -7 -44 -7q-53 0 -82 23.5t-29 65.5q0 66 71 125h-10v57q-50 -73 -166 -73q-81 0 -130.5 36t-49.5 106q0 79 59 117q61 40 166 59l115 21v18q0 41 -28 63.5t-76 22.5q-46 0 -80.5 -18.5t-80.5 -64.5l-69 64q92 110 227 110
q101 0 156.5 -47t55.5 -128v-343q-83 -54 -83 -106zM381 197v46l-87 -18q-79 -17 -112 -36.5t-33 -56.5q0 -28 23.5 -44t64.5 -16q63 0 103.5 33.5t40.5 91.5z" />
    <glyph glyph-name="Cacute" unicode="&#x106;" horiz-adv-x="674" 
d="M647 623l-69 -82q-53 46 -96.5 64t-94.5 18q-104 0 -166 -73.5t-62 -193.5q0 -121 61.5 -195t162.5 -74q58 0 101 22q45 23 104 75l71 -80q-69 -64 -132 -92t-142 -28q-158 0 -252.5 104t-94.5 268q0 163 94.5 266.5t255.5 103.5q75 0 135 -24t124 -79zM530 914l-94 -143
h-97l70 143h121z" />
    <glyph glyph-name="cacute" unicode="&#x107;" horiz-adv-x="516" 
d="M286 425q-67 0 -104 -51q-36 -50 -36 -123t36 -123q37 -49 104 -49q38 0 69.5 17.5t72.5 62.5l73 -61q-49 -62 -99 -87.5t-117 -25.5q-113 0 -182 72.5t-69 193.5t70 194t182 73q63 0 111 -22t96 -73l-70 -68q-40 40 -70.5 55t-66.5 15zM422 713l-94 -143h-97l70 143h121
z" />
    <glyph glyph-name="Cdotaccent" unicode="&#x10a;" horiz-adv-x="674" 
d="M647 623l-69 -82q-53 46 -96.5 64t-94.5 18q-104 0 -166 -73.5t-62 -193.5q0 -121 61.5 -195t162.5 -74q58 0 101 22q45 23 104 75l71 -80q-69 -64 -132 -92t-142 -28q-158 0 -252.5 104t-94.5 268q0 163 94.5 266.5t255.5 103.5q75 0 135 -24t124 -79zM444 903v-113
h-110v113h110z" />
    <glyph glyph-name="cdotaccent" unicode="&#x10b;" horiz-adv-x="516" 
d="M286 425q-67 0 -104 -51q-36 -50 -36 -123t36 -123q37 -49 104 -49q38 0 69.5 17.5t72.5 62.5l73 -61q-49 -62 -99 -87.5t-117 -25.5q-113 0 -182 72.5t-69 193.5t70 194t182 73q63 0 111 -22t96 -73l-70 -68q-40 40 -70.5 55t-66.5 15zM337 702v-113h-110v113h110z" />
    <glyph glyph-name="Ccaron" unicode="&#x10c;" horiz-adv-x="674" 
d="M647 623l-69 -82q-53 46 -96.5 64t-94.5 18q-104 0 -166 -73.5t-62 -193.5q0 -121 61.5 -195t162.5 -74q58 0 101 22q45 23 104 75l71 -80q-69 -64 -132 -92t-142 -28q-158 0 -252.5 104t-94.5 268q0 163 94.5 266.5t255.5 103.5q75 0 135 -24t124 -79zM558 914
l-100 -143h-138l-100 143h94l76 -94l75 94h93z" />
    <glyph glyph-name="ccaron" unicode="&#x10d;" horiz-adv-x="516" 
d="M286 425q-67 0 -104 -51q-36 -50 -36 -123t36 -123q37 -49 104 -49q38 0 69.5 17.5t72.5 62.5l73 -61q-49 -62 -99 -87.5t-117 -25.5q-113 0 -182 72.5t-69 193.5t70 194t182 73q63 0 111 -22t96 -73l-70 -68q-40 40 -70.5 55t-66.5 15zM451 713l-100 -143h-138l-100 143
h94l76 -94l75 94h93z" />
    <glyph glyph-name="Dcaron" unicode="&#x10e;" horiz-adv-x="712" 
d="M674 355q0 -159 -85.5 -257t-233.5 -98h-278v710h278q148 0 233.5 -98t85.5 -257zM337 610h-142v-510h142q101 0 158.5 66.5t57.5 188.5t-57.5 188.5t-158.5 66.5zM521 914l-100 -143h-138l-100 143h94l76 -94l75 94h93z" />
    <glyph glyph-name="dcaron" unicode="&#x10f;" horiz-adv-x="744" 
d="M414 710h110v-710h-102v73q-54 -87 -166 -87q-98 0 -160 73.5t-62 191.5t63.5 191.5t159.5 73.5q105 0 157 -73v267zM418 251q0 78 -38.5 124t-100.5 46q-60 0 -96.5 -46.5t-36.5 -123.5q0 -78 36 -124.5t96 -46.5q63 0 101.5 46.5t38.5 124.5zM737 710l-69 -207h-68
l28 207h109z" />
    <glyph glyph-name="Dcroat" unicode="&#x110;" horiz-adv-x="741" 
d="M703 355q0 -159 -85.5 -257t-233.5 -98h-279v317h-79v99h79v294h279q148 0 233.5 -98t85.5 -257zM581 355q0 122 -57 188.5t-159 66.5h-141v-194h177v-99h-177v-217h141q102 0 159 66.5t57 188.5z" />
    <glyph glyph-name="dslash" unicode="&#x111;" horiz-adv-x="608" 
d="M596 636v-76h-71v-560h-102v72q-54 -86 -166 -86q-97 0 -159.5 72.5t-62.5 188.5t63.5 189t159.5 73q104 0 157 -72v123h-125v76h125v74h110v-74h71zM419 247q0 76 -38.5 121.5t-100.5 45.5q-59 0 -96 -46t-37 -121t36 -121t96 -46q63 0 101.5 46t38.5 121z" />
    <glyph glyph-name="Emacron" unicode="&#x112;" horiz-adv-x="620" 
d="M564 710v-100h-369v-194h344v-99h-344v-217h379v-100h-497v710h487zM475 875v-82h-301v82h301z" />
    <glyph glyph-name="emacron" unicode="&#x113;" horiz-adv-x="549" 
d="M449 153l64 -67q-53 -54 -105.5 -77.5t-116.5 -23.5q-119 0 -188 71.5t-69 191.5q0 119 67.5 194.5t179.5 75.5q110 0 170.5 -65.5t60.5 -181.5q0 -19 -2 -45h-368q6 -68 45 -108t106 -40q43 0 75 16t81 59zM145 306h259q-3 58 -36 91.5t-90 33.5q-53 0 -87.5 -32.5
t-45.5 -92.5zM441 674v-82h-301v82h301z" />
    <glyph glyph-name="Edotaccent" unicode="&#x116;" horiz-adv-x="620" 
d="M564 710v-100h-369v-194h344v-99h-344v-217h379v-100h-497v710h487zM379 903v-113h-110v113h110z" />
    <glyph glyph-name="edotaccent" unicode="&#x117;" horiz-adv-x="549" 
d="M449 153l64 -67q-53 -54 -105.5 -77.5t-116.5 -23.5q-119 0 -188 71.5t-69 191.5q0 119 67.5 194.5t179.5 75.5q110 0 170.5 -65.5t60.5 -181.5q0 -19 -2 -45h-368q6 -68 45 -108t106 -40q43 0 75 16t81 59zM145 306h259q-3 58 -36 91.5t-90 33.5q-53 0 -87.5 -32.5
t-45.5 -92.5zM345 702v-113h-110v113h110z" />
    <glyph glyph-name="Eogonek" unicode="&#x118;" horiz-adv-x="620" 
d="M491 -106q0 -39 50 -39q16 0 28 4v-66q-17 -7 -45 -7q-53 0 -82 23.5t-29 65.5q0 67 72 125h-408v710h487v-100h-369v-194h344v-99h-344v-217h379v-100q-83 -54 -83 -106z" />
    <glyph glyph-name="eogonek" unicode="&#x119;" horiz-adv-x="548" 
d="M296 -122q0 59 47 112q-32 -5 -53 -5q-117 0 -187 72t-70 191t67.5 194.5t179.5 75.5q110 0 170.5 -65.5t60.5 -181.5q0 -19 -2 -45h-368q7 -68 45.5 -108t105.5 -40q46 0 77 16q35 18 80 59l63 -67q-23 -23 -47 -44q-91 -81 -91 -144q0 -43 51 -43q16 0 28 4v-67
q-15 -6 -43 -6q-54 0 -84 24.5t-30 67.5zM144 306h259q-3 58 -36 91.5t-90 33.5q-53 0 -87.5 -32.5t-45.5 -92.5z" />
    <glyph glyph-name="Ecaron" unicode="&#x11a;" horiz-adv-x="620" 
d="M564 710v-100h-369v-194h344v-99h-344v-217h379v-100h-497v710h487zM493 914l-100 -143h-138l-100 143h94l76 -94l75 94h93z" />
    <glyph glyph-name="ecaron" unicode="&#x11b;" horiz-adv-x="549" 
d="M449 153l64 -67q-53 -54 -105.5 -77.5t-116.5 -23.5q-119 0 -188 71.5t-69 191.5q0 119 67.5 194.5t179.5 75.5q110 0 170.5 -65.5t60.5 -181.5q0 -19 -2 -45h-368q6 -68 45 -108t106 -40q43 0 75 16t81 59zM145 306h259q-3 58 -36 91.5t-90 33.5q-53 0 -87.5 -32.5
t-45.5 -92.5zM459 713l-100 -143h-138l-100 143h94l76 -94l75 94h93z" />
    <glyph glyph-name="Gbreve" unicode="&#x11e;" horiz-adv-x="749" 
d="M364 284v100h322v-384h-91l-7 78q-64 -93 -212 -93q-157 0 -247.5 102t-90.5 269q0 162 96 265.5t256 103.5q90 0 158.5 -31t137.5 -102l-74 -77q-62 59 -112 83q-49 24 -112 24q-104 0 -166.5 -72t-62.5 -195q0 -125 60.5 -196t165.5 -71q88 0 140.5 48t52.5 129v19
h-214zM231 903h78q0 -33 20.5 -52t56.5 -19t56 19t21 52h77q0 -65 -42.5 -102.5t-111.5 -37.5t-112 37.5t-43 102.5z" />
    <glyph glyph-name="gbreve" unicode="&#x11f;" horiz-adv-x="579" 
d="M415 502h102v-483q0 -102 -66 -157q-65 -56 -172 -56q-125 0 -234 73l54 80q56 -34 95.5 -48t83.5 -14q61 0 96 33t35 98v52q-53 -71 -153 -71q-96 0 -158 71.5t-62 183.5q0 111 62 182.5t158 71.5q107 0 159 -79v63zM412 264q0 71 -37 115.5t-96 44.5q-60 0 -96 -44
t-36 -116q0 -73 36 -117.5t96 -44.5q59 0 96 45t37 117zM135 702h78q0 -33 20.5 -52t56.5 -19t56 19t21 52h77q0 -65 -42.5 -102.5t-111.5 -37.5t-112 37.5t-43 102.5z" />
    <glyph glyph-name="Gdotaccent" unicode="&#x120;" horiz-adv-x="749" 
d="M364 284v100h322v-384h-91l-7 78q-64 -93 -212 -93q-157 0 -247.5 102t-90.5 269q0 162 96 265.5t256 103.5q90 0 158.5 -31t137.5 -102l-74 -77q-62 59 -112 83q-49 24 -112 24q-104 0 -166.5 -72t-62.5 -195q0 -125 60.5 -196t165.5 -71q88 0 140.5 48t52.5 129v19
h-214zM441 903v-113h-110v113h110z" />
    <glyph glyph-name="gdotaccent" unicode="&#x121;" horiz-adv-x="579" 
d="M415 502h102v-483q0 -102 -66 -157q-65 -56 -172 -56q-125 0 -234 73l54 80q56 -34 95.5 -48t83.5 -14q61 0 96 33t35 98v52q-53 -71 -153 -71q-96 0 -158 71.5t-62 183.5q0 111 62 182.5t158 71.5q107 0 159 -79v63zM412 264q0 71 -37 115.5t-96 44.5q-60 0 -96 -44
t-36 -116q0 -73 36 -117.5t96 -44.5q59 0 96 45t37 117zM345 702v-113h-110v113h110z" />
    <glyph glyph-name="uni0122" unicode="&#x122;" horiz-adv-x="749" 
d="M364 284v100h322v-384h-91l-7 78q-64 -93 -212 -93q-157 0 -247.5 102t-90.5 269q0 162 96 265.5t256 103.5q90 0 158.5 -31t137.5 -102l-74 -77q-62 59 -112 83q-49 24 -112 24q-104 0 -166.5 -72t-62.5 -195q0 -125 60.5 -196t165.5 -71q88 0 140.5 48t52.5 129v19
h-214zM442 -66v-97l-65 -93h-59l60 93h-56v97h120z" />
    <glyph glyph-name="uni0123" unicode="&#x123;" horiz-adv-x="579" 
d="M415 502h102v-483q0 -102 -66 -157q-65 -56 -172 -56q-125 0 -234 73l54 80q56 -34 95.5 -48t83.5 -14q61 0 96 33t35 98v52q-53 -71 -153 -71q-96 0 -158 71.5t-62 183.5q0 111 62 182.5t158 71.5q107 0 159 -79v63zM412 264q0 71 -37 115.5t-96 44.5q-60 0 -96 -44
t-36 -116q0 -73 36 -117.5t96 -44.5q59 0 96 45t37 117zM232 587v99l65 101h59l-59 -101h55v-99h-120z" />
    <glyph glyph-name="Hbar" unicode="&#x126;" horiz-adv-x="789" 
d="M759 607v-82h-72v-525h-119v321h-345v-321h-119v525h-74v82h74v103h119v-103h345v103h119v-103h72zM568 421v104h-345v-104h345z" />
    <glyph glyph-name="hbar" unicode="&#x127;" horiz-adv-x="581" 
d="M520 337v-337h-110v303q0 55 -26.5 84t-76.5 29q-49 0 -81.5 -33t-32.5 -83v-300h-110v560h-71v76h71v74h110v-74h125v-76h-125v-122q50 73 148 73q85 0 132 -47t47 -127z" />
    <glyph glyph-name="Imacron" unicode="&#x12a;" horiz-adv-x="286" 
d="M202 710v-710h-118v710h118zM294 875v-82h-301v82h301z" />
    <glyph glyph-name="imacron" unicode="&#x12b;" horiz-adv-x="233" 
d="M172 502v-502h-110v502h110zM267 674v-82h-301v82h301z" />
    <glyph glyph-name="Iogonek" unicode="&#x12e;" horiz-adv-x="286" 
d="M119 -106q0 -39 50 -39q16 0 28 4v-66q-15 -7 -44 -7q-53 0 -82 23.5t-29 65.5q0 66 71 125h-29v710h118v-710q-83 -54 -83 -106z" />
    <glyph glyph-name="iogonek" unicode="&#x12f;" horiz-adv-x="233" 
d="M62 702h110v-113h-110v113zM62 0v502h110v-502q-84 -54 -84 -106q0 -39 50 -39q16 0 28 4v-66q-15 -7 -44 -7q-53 0 -82 23.5t-29 65.5q0 66 71 125h-20z" />
    <glyph glyph-name="Idot" unicode="&#x130;" horiz-adv-x="286" 
d="M202 710v-710h-118v710h118zM198 903v-113h-110v113h110z" />
    <glyph glyph-name="dotlessi" unicode="&#x131;" horiz-adv-x="233" 
d="M172 502v-502h-110v502h110z" />
    <glyph glyph-name="IJ" unicode="&#x132;" horiz-adv-x="755" 
d="M202 710v-710h-118v710h118zM682 710v-523q0 -100 -53 -150.5t-151 -50.5q-92 0 -184 45l37 94q84 -34 142 -34q91 0 91 108v511h118z" />
    <glyph glyph-name="ij" unicode="&#x133;" horiz-adv-x="470" 
d="M172 502v-502h-110v502h110zM172 702v-113h-110v113h110zM240 -102q32 0 45 17t13 56v531h110v-530q0 -163 -150 -163q-55 0 -100 15l20 82q43 -8 62 -8zM408 702v-113h-110v113h110z" />
    <glyph glyph-name="uni0136" unicode="&#x136;" horiz-adv-x="679" 
d="M540 0l-226 350l-119 -123v-227h-118v710h118v-339l317 339h147l-266 -276l281 -434h-134zM415 -66v-97l-65 -93h-59l60 93h-56v97h120z" />
    <glyph glyph-name="uni0137" unicode="&#x137;" horiz-adv-x="531" 
d="M405 0l-153 240l-80 -81v-159h-110v710h110v-430l211 222h132l-187 -192l200 -310h-123zM343 -66v-97l-65 -93h-59l60 93h-56v97h120z" />
    <glyph glyph-name="Lacute" unicode="&#x139;" horiz-adv-x="560" 
d="M195 710v-609h337v-101h-455v710h118zM277 914l-94 -143h-97l70 143h121z" />
    <glyph glyph-name="lacute" unicode="&#x13a;" horiz-adv-x="238" 
d="M174 710v-710h-110v710h110zM258 904l-94 -143h-97l70 143h121z" />
    <glyph glyph-name="uni013B" unicode="&#x13b;" horiz-adv-x="560" 
d="M195 710v-609h337v-101h-455v710h118zM368 -66v-97l-65 -93h-59l60 93h-56v97h120z" />
    <glyph glyph-name="uni013C" unicode="&#x13c;" horiz-adv-x="238" 
d="M174 710v-710h-110v710h110zM179 -66v-97l-65 -93h-59l60 93h-56v97h120z" />
    <glyph glyph-name="Lcaron" unicode="&#x13d;" horiz-adv-x="560" 
d="M195 710v-609h337v-101h-455v710h118zM422 710l-69 -207h-68l28 207h109z" />
    <glyph glyph-name="lcaron" unicode="&#x13e;" horiz-adv-x="399" 
d="M174 710v-710h-110v710h110zM392 710l-69 -207h-68l28 207h109z" />
    <glyph glyph-name="Ldot" unicode="&#x13f;" horiz-adv-x="546" 
d="M195 710v-609h337v-101h-455v710h118zM450 433v-128h-124v128h124z" />
    <glyph glyph-name="ldot" unicode="&#x140;" horiz-adv-x="437" 
d="M174 710v-710h-110v710h110zM395 387v-128h-124v128h124z" />
    <glyph glyph-name="Lslash" unicode="&#x141;" horiz-adv-x="605" 
d="M240 101h336v-101h-455v280l-98 -54v101l98 54v329h119v-268l133 73v-100l-133 -73v-241z" />
    <glyph glyph-name="lslash" unicode="&#x142;" horiz-adv-x="351" 
d="M318 506v-93l-86 -49v-364h-110v300l-89 -51v93l89 51v317h110v-253z" />
    <glyph glyph-name="Nacute" unicode="&#x143;" horiz-adv-x="739" 
d="M547 710h115v-710h-128l-193 304q-112 174 -154 250q5 -117 5 -275v-279h-115v710h130l201 -316l19 -30q99 -159 125 -206q-5 112 -5 264v288zM519 914l-94 -143h-97l70 143h121z" />
    <glyph glyph-name="nacute" unicode="&#x144;" horiz-adv-x="560" 
d="M499 344v-344h-110v310q0 55 -27 84.5t-77 29.5q-49 0 -81 -33t-32 -84v-307h-110v502h102v-61q50 77 155 77q85 0 132.5 -47.5t47.5 -126.5zM419 713l-94 -143h-97l70 143h121z" />
    <glyph glyph-name="uni0145" unicode="&#x145;" horiz-adv-x="739" 
d="M547 710h115v-710h-128l-193 304q-112 174 -154 250q5 -117 5 -275v-279h-115v710h130l201 -316l19 -30q99 -159 125 -206q-5 112 -5 264v288zM433 -66v-97l-65 -93h-59l60 93h-56v97h120z" />
    <glyph glyph-name="uni0146" unicode="&#x146;" horiz-adv-x="560" 
d="M499 344v-344h-110v310q0 55 -27 84.5t-77 29.5q-49 0 -81 -33t-32 -84v-307h-110v502h102v-61q50 77 155 77q85 0 132.5 -47.5t47.5 -126.5zM337 -66v-97l-65 -93h-59l60 93h-56v97h120z" />
    <glyph glyph-name="Ncaron" unicode="&#x147;" horiz-adv-x="739" 
d="M547 710h115v-710h-128l-193 304q-112 174 -154 250q5 -117 5 -275v-279h-115v710h130l201 -316l19 -30q99 -159 125 -206q-5 112 -5 264v288zM547 914l-100 -143h-138l-100 143h94l76 -94l75 94h93z" />
    <glyph glyph-name="ncaron" unicode="&#x148;" horiz-adv-x="560" 
d="M499 344v-344h-110v310q0 55 -27 84.5t-77 29.5q-49 0 -81 -33t-32 -84v-307h-110v502h102v-61q50 77 155 77q85 0 132.5 -47.5t47.5 -126.5zM448 713l-100 -143h-138l-100 143h94l76 -94l75 94h93z" />
    <glyph glyph-name="Eng" unicode="&#x14a;" horiz-adv-x="739" 
d="M547 710h115v-744q0 -163 -155 -163q-55 0 -109 17l21 91q45 -12 71 -12q62 0 62 73l-211 331q-114 176 -154 251q5 -118 5 -275v-279h-115v710h129l201 -315l32 -50q68 -108 113 -188q-5 112 -5 265v288z" />
    <glyph glyph-name="eng" unicode="&#x14b;" horiz-adv-x="560" 
d="M499 344v-372q0 -163 -150 -163q-55 0 -101 15l20 82q43 -8 62 -8q32 0 45.5 17t13.5 56v339q0 55 -27 84.5t-77 29.5q-49 0 -81 -33t-32 -84v-307h-110v502h102v-61q50 77 155 77q85 0 132.5 -47.5t47.5 -126.5z" />
    <glyph glyph-name="Omacron" unicode="&#x14c;" horiz-adv-x="765" 
d="M727 355q2 -161 -93.5 -267t-250.5 -104q-156 0 -250.5 104.5t-94.5 266.5t94.5 266.5t250.5 104.5q155 2 250.5 -104t93.5 -267zM159 355q0 -119 62 -193t162 -74q101 0 162 73.5t61 193.5t-61 193.5t-162 73.5q-100 0 -162 -74t-62 -193zM534 875v-82h-301v82h301z" />
    <glyph glyph-name="omacron" unicode="&#x14d;" horiz-adv-x="579" 
d="M545 251q0 -117 -71.5 -191.5t-183.5 -74.5q-113 0 -184.5 74t-71.5 192q0 119 71.5 193t184.5 74q112 0 183.5 -74.5t71.5 -192.5zM146 251q0 -78 39 -125.5t105 -47.5q64 0 103.5 47.5t39.5 125.5q0 79 -39 126.5t-104 47.5q-66 0 -105 -47.5t-39 -126.5zM438 674v-82
h-301v82h301z" />
    <glyph glyph-name="Ohungarumlaut" unicode="&#x150;" horiz-adv-x="765" 
d="M727 355q2 -161 -93.5 -267t-250.5 -104q-156 0 -250.5 104.5t-94.5 266.5t94.5 266.5t250.5 104.5q155 2 250.5 -104t93.5 -267zM159 355q0 -119 62 -193t162 -74q101 0 162 73.5t61 193.5t-61 193.5t-162 73.5q-100 0 -162 -74t-62 -193zM437 918l-96 -147h-80l71 147
h105zM600 918l-96 -147h-80l71 147h105z" />
    <glyph glyph-name="ohungarumlaut" unicode="&#x151;" horiz-adv-x="579" 
d="M545 251q0 -117 -71.5 -191.5t-183.5 -74.5q-113 0 -184.5 74t-71.5 192q0 119 71.5 193t184.5 74q112 0 183.5 -74.5t71.5 -192.5zM146 251q0 -78 39 -125.5t105 -47.5q64 0 103.5 47.5t39.5 125.5q0 79 -39 126.5t-104 47.5q-66 0 -105 -47.5t-39 -126.5zM341 717
l-96 -147h-80l71 147h105zM504 717l-96 -147h-80l71 147h105z" />
    <glyph glyph-name="OE" unicode="&#x152;" horiz-adv-x="1149" 
d="M724 100h379v-100h-497v85q-84 -101 -227 -101q-156 0 -248.5 104t-92.5 267t92.5 267t248.5 104q143 0 227 -101v85h487v-100h-369v-194h344v-99h-344v-217zM606 355q0 120 -61 193.5t-162 73.5q-100 0 -162 -74t-62 -193t62 -193t162 -74q101 0 162 73.5t61 193.5z" />
    <glyph glyph-name="oe" unicode="&#x153;" horiz-adv-x="952" 
d="M851 153l64 -67q-53 -55 -105 -78t-117 -23q-135 0 -204 94q-71 -94 -199 -94q-113 0 -184.5 74t-71.5 192q0 119 71.5 193t184.5 74q130 0 200 -95q65 95 193 95q110 0 171 -65.5t61 -181.5q0 -14 -2 -44h-367q6 -69 44 -109t105 -40q46 0 77 16q31 15 79 59zM549 304
h259q-2 60 -35.5 94.5t-90.5 34.5q-54 0 -88.5 -34t-44.5 -95zM433 251q0 79 -39 126.5t-104 47.5q-66 0 -105 -47.5t-39 -126.5q0 -78 39 -125.5t105 -47.5q64 0 103.5 47.5t39.5 125.5z" />
    <glyph glyph-name="Racute" unicode="&#x154;" horiz-adv-x="682" 
d="M654 0h-133l-178 273h-148v-273h-118v710h319q102 0 167 -60.5t65 -158.5q0 -79 -43.5 -135t-117.5 -74zM195 612v-241h180q64 0 100 31.5t36 88.5t-36.5 89t-99.5 32h-180zM479 914l-94 -143h-97l70 143h121z" />
    <glyph glyph-name="racute" unicode="&#x155;" horiz-adv-x="379" 
d="M369 494l-20 -95q-36 10 -64 10q-52 0 -82.5 -40.5t-30.5 -111.5v-257h-110v502h102v-75q40 82 126 82q30 0 79 -15zM355 713l-94 -143h-97l70 143h121z" />
    <glyph glyph-name="uni0156" unicode="&#x156;" horiz-adv-x="682" 
d="M654 0h-133l-178 273h-148v-273h-118v710h319q102 0 167 -60.5t65 -158.5q0 -79 -43.5 -135t-117.5 -74zM195 612v-241h180q64 0 100 31.5t36 88.5t-36.5 89t-99.5 32h-180zM402 -66v-97l-65 -93h-59l60 93h-56v97h120z" />
    <glyph glyph-name="uni0157" unicode="&#x157;" horiz-adv-x="379" 
d="M369 494l-20 -95q-36 10 -64 10q-52 0 -82.5 -40.5t-30.5 -111.5v-257h-110v502h102v-75q40 82 126 82q30 0 79 -15zM176 -66v-97l-65 -93h-59l60 93h-56v97h120z" />
    <glyph glyph-name="Rcaron" unicode="&#x158;" horiz-adv-x="682" 
d="M654 0h-133l-178 273h-148v-273h-118v710h319q102 0 167 -60.5t65 -158.5q0 -79 -43.5 -135t-117.5 -74zM195 612v-241h180q64 0 100 31.5t36 88.5t-36.5 89t-99.5 32h-180zM507 914l-100 -143h-138l-100 143h94l76 -94l75 94h93z" />
    <glyph glyph-name="rcaron" unicode="&#x159;" horiz-adv-x="379" 
d="M369 494l-20 -95q-36 10 -64 10q-52 0 -82.5 -40.5t-30.5 -111.5v-257h-110v502h102v-75q40 82 126 82q30 0 79 -15zM384 713l-100 -143h-138l-100 143h94l76 -94l75 94h93z" />
    <glyph glyph-name="Sacute" unicode="&#x15a;" horiz-adv-x="638" 
d="M591 618l-69 -82q-61 50 -105 68q-44 19 -105 19q-65 0 -104.5 -28t-39.5 -71q0 -32 18 -50q20 -18 54 -30q40 -13 110 -29q141 -35 194 -76.5t56 -129.5q0 -100 -75 -162.5t-197 -62.5q-90 0 -160 29q-67 28 -148 98l71 83q75 -64 124 -85q51 -22 115 -22q69 0 111 30.5
t42 83.5q0 37 -22 56q-23 20 -55 30q-40 13 -112 29q-139 33 -191 76.5t-52 127.5q0 89 75 147.5t188 58.5q85 0 147 -25q64 -26 130 -83zM459 914l-94 -143h-97l70 143h121z" />
    <glyph glyph-name="sacute" unicode="&#x15b;" horiz-adv-x="495" 
d="M457 442l-60 -73q-45 35 -78.5 47.5t-75.5 12.5q-44 0 -70 -17t-26 -44q0 -18 12 -29q18 -14 113 -36q107 -24 150 -57.5t43 -99.5q0 -72 -57 -116.5t-152 -44.5q-70 0 -124 21t-114 73l64 72q52 -43 92 -61q36 -16 84 -16q43 0 71 17.5t28 47.5q-4 34 -28.5 46
t-102.5 29q-107 24 -145.5 55t-38.5 95q0 67 55.5 110.5t147.5 43.5q64 0 112.5 -17t99.5 -59zM393 713l-94 -143h-97l70 143h121z" />
    <glyph glyph-name="Scedilla" unicode="&#x15e;" horiz-adv-x="638" 
d="M341 -16l-24 -50q48 1 77 -21.5t29 -58.5q0 -42 -30.5 -68t-79.5 -26q-53 0 -112 38l30 47q47 -27 81 -27q49 0 49 35q0 15 -16 24t-38 9q-16 0 -28 -3l-31 29l34 74q-72 6 -132.5 35t-129.5 90l71 83q75 -64 124 -85q51 -22 115 -22q69 0 111 30.5t42 83.5q0 37 -22 56
q-23 20 -55 30q-40 13 -112 29q-139 33 -191 76.5t-52 127.5q0 89 75 147.5t188 58.5q85 0 147 -25q64 -26 130 -83l-69 -82q-61 50 -105 68q-44 19 -105 19q-65 0 -104.5 -28t-39.5 -71q0 -32 18 -50q20 -18 54 -30q40 -13 110 -29q141 -35 194 -76.5t56 -129.5
q0 -97 -71.5 -159.5t-187.5 -65.5z" />
    <glyph glyph-name="scedilla" unicode="&#x15f;" horiz-adv-x="495" 
d="M268 -15l-24 -51q48 0 77 -22t29 -58q0 -42 -30.5 -68t-80.5 -26q-53 0 -111 38l30 47q44 -27 80 -27q49 0 49 35q0 15 -15.5 24t-37.5 9q-17 0 -29 -3l-31 29l35 75q-99 12 -191 92l64 72q52 -43 92 -61q36 -16 84 -16q43 0 71 17.5t28 47.5q-4 34 -28.5 46t-102.5 29
q-107 24 -145.5 55t-38.5 95q0 67 55.5 110.5t147.5 43.5q64 0 112.5 -17t99.5 -59l-60 -73q-45 35 -78.5 47.5t-75.5 12.5q-44 0 -70 -17t-26 -44q0 -18 12 -29q18 -14 113 -36q107 -24 150 -57.5t43 -99.5q0 -70 -53.5 -114t-143.5 -47z" />
    <glyph glyph-name="Scaron" unicode="&#x160;" horiz-adv-x="638" 
d="M591 618l-69 -82q-61 50 -105 68q-44 19 -105 19q-65 0 -104.5 -28t-39.5 -71q0 -32 18 -50q20 -18 54 -30q40 -13 110 -29q141 -35 194 -76.5t56 -129.5q0 -100 -75 -162.5t-197 -62.5q-90 0 -160 29q-67 28 -148 98l71 83q75 -64 124 -85q51 -22 115 -22q69 0 111 30.5
t42 83.5q0 37 -22 56q-23 20 -55 30q-40 13 -112 29q-139 33 -191 76.5t-52 127.5q0 89 75 147.5t188 58.5q85 0 147 -25q64 -26 130 -83zM487 914l-100 -143h-138l-100 143h94l76 -94l75 94h93z" />
    <glyph glyph-name="scaron" unicode="&#x161;" horiz-adv-x="495" 
d="M457 442l-60 -73q-45 35 -78.5 47.5t-75.5 12.5q-44 0 -70 -17t-26 -44q0 -18 12 -29q18 -14 113 -36q107 -24 150 -57.5t43 -99.5q0 -72 -57 -116.5t-152 -44.5q-70 0 -124 21t-114 73l64 72q52 -43 92 -61q36 -16 84 -16q43 0 71 17.5t28 47.5q-4 34 -28.5 46
t-102.5 29q-107 24 -145.5 55t-38.5 95q0 67 55.5 110.5t147.5 43.5q64 0 112.5 -17t99.5 -59zM422 713l-100 -143h-138l-100 143h94l76 -94l75 94h93z" />
    <glyph glyph-name="uni0162" unicode="&#x162;" horiz-adv-x="613" 
d="M366 0h-27l-31 -66q48 0 77 -22t29 -58q0 -42 -30.5 -68t-80.5 -26q-53 0 -111 38l30 47q44 -27 80 -27q49 0 49 35q0 15 -15.5 24t-37.5 9q-17 0 -29 -3l-31 29l41 88h-32v609h-218v101h556v-101h-219v-609z" />
    <glyph glyph-name="uni0163" unicode="&#x163;" horiz-adv-x="373" 
d="M338 -146q0 -42 -30.5 -68t-80.5 -26q-53 0 -111 38l30 47q47 -27 81 -27q48 0 48 35q0 15 -15.5 24t-37.5 9q-16 0 -28 -3l-32 29l38 81q-91 18 -91 131v295h-91v83h91v162h110v-162h127v-83h-127v-282q0 -29 13 -41t41 -12q25 0 67 11l14 -87q-56 -18 -96 -19l-26 -55
q48 1 77 -21.5t29 -58.5z" />
    <glyph glyph-name="Tcaron" unicode="&#x164;" horiz-adv-x="613" 
d="M585 710v-101h-219v-609h-119v609h-218v101h556zM476 914l-100 -143h-138l-100 143h94l76 -94l75 94h93z" />
    <glyph glyph-name="tcaron" unicode="&#x165;" horiz-adv-x="373" 
d="M340 95l14 -87q-54 -19 -108 -19q-72 0 -104.5 33t-32.5 102v295h-91v83h91v162h110v-162h127v-83h-127v-282q0 -29 13 -41t41 -12q25 0 67 11zM429 789l-69 -207h-68l28 207h109z" />
    <glyph glyph-name="Tbar" unicode="&#x166;" horiz-adv-x="610" 
d="M581 609h-217v-196h127v-82h-127v-331h-119v331h-125v82h125v196h-216v101h552v-101z" />
    <glyph glyph-name="tbar" unicode="&#x167;" horiz-adv-x="373" 
d="M340 95l14 -87q-54 -19 -108 -19q-72 0 -104.5 33t-32.5 102v99h-91v85h91v111h-91v83h91v162h110v-162h127v-83h-127v-111h127v-85h-127v-86q0 -29 13 -41t41 -12q25 0 67 11z" />
    <glyph glyph-name="Umacron" unicode="&#x16a;" horiz-adv-x="698" 
d="M626 710v-476q0 -124 -71 -187t-206 -63t-206 63t-71 187v476h118v-471q0 -73 40.5 -112t118.5 -39t118.5 39t40.5 112v471h118zM500 875v-82h-301v82h301z" />
    <glyph glyph-name="umacron" unicode="&#x16b;" horiz-adv-x="552" 
d="M380 502h110v-502h-101v58q-45 -73 -149 -73q-88 0 -133.5 43t-45.5 118v356h110v-326q0 -46 24 -71t69 -25q53 0 84.5 31t31.5 87v304zM420 674v-82h-301v82h301z" />
    <glyph glyph-name="Uring" unicode="&#x16e;" horiz-adv-x="698" 
d="M626 710v-476q0 -124 -71 -187t-206 -63t-206 63t-71 187v476h118v-471q0 -73 40.5 -112t118.5 -39t118.5 39t40.5 112v471h118zM463 831q0 -46 -34 -79q-35 -32 -81 -32q-47 0 -82 32q-34 33 -34 79q0 47 34 78q34 33 82 33q46 0 81 -33q34 -31 34 -78zM288 831
q0 -27 17 -44t43 -17t42.5 17t16.5 44t-16.5 44t-42.5 17t-43 -17t-17 -44z" />
    <glyph glyph-name="uring" unicode="&#x16f;" horiz-adv-x="552" 
d="M380 502h110v-502h-101v58q-45 -73 -149 -73q-88 0 -133.5 43t-45.5 118v356h110v-326q0 -46 24 -71t69 -25q53 0 84.5 31t31.5 87v304zM384 677q0 -46 -34 -79q-35 -32 -81 -32q-47 0 -82 32q-34 33 -34 79q0 47 34 78q34 33 82 33q47 0 81 -33q34 -31 34 -78zM209 677
q0 -27 17 -44t43 -17t42.5 17t16.5 44t-16.5 44t-42.5 17t-43 -17t-17 -44z" />
    <glyph glyph-name="Uhungarumlaut" unicode="&#x170;" horiz-adv-x="698" 
d="M626 710v-476q0 -124 -71 -187t-206 -63t-206 63t-71 187v476h118v-471q0 -73 40.5 -112t118.5 -39t118.5 39t40.5 112v471h118zM403 918l-96 -147h-80l71 147h105zM566 918l-96 -147h-80l71 147h105z" />
    <glyph glyph-name="uhungarumlaut" unicode="&#x171;" horiz-adv-x="552" 
d="M380 502h110v-502h-101v58q-45 -73 -149 -73q-88 0 -133.5 43t-45.5 118v356h110v-326q0 -46 24 -71t69 -25q53 0 84.5 31t31.5 87v304zM323 717l-96 -147h-80l71 147h105zM486 717l-96 -147h-80l71 147h105z" />
    <glyph glyph-name="Uogonek" unicode="&#x172;" horiz-adv-x="698" 
d="M508 710h118v-475q0 -80 -26 -129q-27 -50 -86 -92q-91 -64 -91 -119q0 -40 49 -40q17 0 29 4v-66q-15 -7 -44 -7q-53 0 -82.5 24.5t-29.5 66.5q0 56 50 109q-38 -2 -46 -2q-135 0 -206 63t-71 187v476h118v-471q0 -73 40.5 -112t118.5 -39t118.5 39t40.5 112v471z" />
    <glyph glyph-name="uogonek" unicode="&#x173;" horiz-adv-x="552" 
d="M407 -106q0 -39 50 -39q16 0 28 4v-66q-17 -7 -45 -7q-53 0 -82 23.5t-29 65.5q0 67 72 125h-12v58q-45 -73 -149 -73q-88 0 -133.5 43t-45.5 118v356h110v-326q0 -46 24 -71t69 -25q53 0 84.5 31t31.5 87v304h110v-502q-83 -54 -83 -106z" />
    <glyph glyph-name="Wcircumflex" unicode="&#x174;" horiz-adv-x="956" 
d="M812 710h116l-171 -710h-139l-78 298q-34 129 -61 254q-30 -135 -61 -255l-78 -297h-140l-172 710h120l75 -322q19 -79 53 -253q40 174 61 253l86 322h117l84 -322q34 -136 60 -255q34 177 52 255zM553 771l-75 94l-76 -94h-93l100 143h138l100 -143h-94z" />
    <glyph glyph-name="wcircumflex" unicode="&#x175;" horiz-adv-x="766" 
d="M636 502h113l-140 -502h-132l-41 147q-31 112 -54 218l-6 -27l-19 -78q-18 -76 -28 -113l-40 -147h-131l-141 502h116l44 -175q29 -113 52 -228q36 151 56 228l47 175h103l48 -175q31 -115 56 -230q25 124 52 230zM459 570l-75 94l-76 -94h-93l100 143h138l100 -143h-94z
" />
    <glyph glyph-name="Ycircumflex" unicode="&#x176;" horiz-adv-x="642" 
d="M504 710h127l-251 -410v-300h-119v301l-250 409h131l181 -305zM396 771l-75 94l-76 -94h-93l100 143h138l100 -143h-94z" />
    <glyph glyph-name="ycircumflex" unicode="&#x177;" horiz-adv-x="504" 
d="M379 502h112l-197 -564q-24 -72 -61 -102t-103 -30q-46 0 -88 11l18 83q36 -6 57 -6q30 0 50 16t32 55l3 9l-189 528h116l49 -147q51 -151 77 -236q42 138 75 237zM326 570l-75 94l-76 -94h-93l100 143h138l100 -143h-94z" />
    <glyph glyph-name="Ydieresis" unicode="&#x178;" horiz-adv-x="642" 
d="M504 710h127l-251 -410v-300h-119v301l-250 409h131l181 -305zM281 903v-113h-107v113h107zM469 903v-113h-107v113h107z" />
    <glyph glyph-name="Zacute" unicode="&#x179;" horiz-adv-x="633" 
d="M590 710v-96l-405 -514h404v-100h-546v96l405 514h-389v100h531zM469 914l-94 -143h-97l70 143h121z" />
    <glyph glyph-name="zacute" unicode="&#x17a;" horiz-adv-x="489" 
d="M447 502v-82l-275 -330h275v-90h-411v83l275 330h-258v89h394zM385 713l-94 -143h-97l70 143h121z" />
    <glyph glyph-name="Zdotaccent" unicode="&#x17b;" horiz-adv-x="633" 
d="M590 710v-96l-405 -514h404v-100h-546v96l405 514h-389v100h531zM383 903v-113h-110v113h110z" />
    <glyph glyph-name="zdotaccent" unicode="&#x17c;" horiz-adv-x="489" 
d="M447 502v-82l-275 -330h275v-90h-411v83l275 330h-258v89h394zM299 702v-113h-110v113h110z" />
    <glyph glyph-name="Zcaron" unicode="&#x17d;" horiz-adv-x="633" 
d="M590 710v-96l-405 -514h404v-100h-546v96l405 514h-389v100h531zM497 914l-100 -143h-138l-100 143h94l76 -94l75 94h93z" />
    <glyph glyph-name="zcaron" unicode="&#x17e;" horiz-adv-x="489" 
d="M447 502v-82l-275 -330h275v-90h-411v83l275 330h-258v89h394zM413 713l-100 -143h-138l-100 143h94l76 -94l75 94h93z" />
    <glyph glyph-name="florin" unicode="&#x192;" 
d="M334 472h124v-83h-124v-420q0 -164 -150 -164q-50 0 -100 15l20 83q35 -8 62 -8q32 0 45 17t13 56v421h-107v83h107v64q0 78 41 119t117 41q50 0 105 -18l-21 -83q-39 10 -64 10q-36 0 -52 -18t-16 -59v-56z" />
    <glyph glyph-name="uni0218" unicode="&#x218;" horiz-adv-x="638" 
d="M591 618l-69 -82q-61 50 -105 68q-44 19 -105 19q-65 0 -104.5 -28t-39.5 -71q0 -32 18 -50q20 -18 54 -30q40 -13 110 -29q141 -35 194 -76.5t56 -129.5q0 -100 -75 -162.5t-197 -62.5q-90 0 -160 29q-67 28 -148 98l71 83q75 -64 124 -85q51 -22 115 -22q69 0 111 30.5
t42 83.5q0 37 -22 56q-23 20 -55 30q-40 13 -112 29q-139 33 -191 76.5t-52 127.5q0 89 75 147.5t188 58.5q85 0 147 -25q64 -26 130 -83zM378 -66v-97l-65 -93h-59l60 93h-56v97h120z" />
    <glyph glyph-name="uni0219" unicode="&#x219;" horiz-adv-x="495" 
d="M457 442l-60 -73q-45 35 -78.5 47.5t-75.5 12.5q-44 0 -70 -17t-26 -44q0 -18 12 -29q18 -14 113 -36q107 -24 150 -57.5t43 -99.5q0 -72 -57 -116.5t-152 -44.5q-70 0 -124 21t-114 73l64 72q52 -43 92 -61q36 -16 84 -16q43 0 71 17.5t28 47.5q-4 34 -28.5 46
t-102.5 29q-107 24 -145.5 55t-38.5 95q0 67 55.5 110.5t147.5 43.5q64 0 112.5 -17t99.5 -59zM304 -66v-97l-65 -93h-59l60 93h-56v97h120z" />
    <glyph glyph-name="uni021A" unicode="&#x21a;" horiz-adv-x="613" 
d="M585 710v-101h-219v-609h-119v609h-218v101h556zM368 -66v-97l-65 -93h-59l60 93h-56v97h120z" />
    <glyph glyph-name="uni021B" unicode="&#x21b;" horiz-adv-x="373" 
d="M340 95l14 -87q-54 -19 -108 -19q-72 0 -104.5 33t-32.5 102v295h-91v83h91v162h110v-162h127v-83h-127v-282q0 -29 13 -41t41 -12q25 0 67 11zM292 -66v-97l-65 -93h-59l60 93h-56v97h120z" />
    <glyph glyph-name="uni0237" unicode="&#x237;" horiz-adv-x="237" 
d="M7 -102q32 0 45 17t13 56v531h110v-530q0 -163 -150 -163q-55 0 -100 15l20 82q43 -8 62 -8z" />
    <glyph glyph-name="circumflex" unicode="&#x2c6;" horiz-adv-x="445" 
d="M297 570l-75 94l-76 -94h-93l100 143h138l100 -143h-94z" />
    <glyph glyph-name="caron" unicode="&#x2c7;" horiz-adv-x="445" 
d="M391 713l-100 -143h-138l-100 143h94l76 -94l75 94h93z" />
    <glyph glyph-name="breve" unicode="&#x2d8;" horiz-adv-x="416" 
d="M53 702h78q0 -33 20.5 -52t56.5 -19t56 19t21 52h77q0 -65 -42.5 -102.5t-111.5 -37.5t-112 37.5t-43 102.5z" />
    <glyph glyph-name="dotaccent" unicode="&#x2d9;" horiz-adv-x="216" 
d="M163 702v-113h-110v113h110z" />
    <glyph glyph-name="ring" unicode="&#x2da;" horiz-adv-x="337" 
d="M283 677q0 -46 -34 -79q-35 -32 -81 -32q-47 0 -82 32q-34 33 -34 79q0 47 34 78q34 33 82 33q46 0 81 -33q34 -31 34 -78zM108 677q0 -27 17 -44t43 -17t42.5 17t16.5 44t-16.5 44t-42.5 17t-43 -17t-17 -44z" />
    <glyph glyph-name="ogonek" unicode="&#x2db;" horiz-adv-x="267" 
d="M157 24l57 -24q-83 -54 -83 -106q0 -39 49 -39q16 0 28 4v-66q-15 -7 -44 -7q-53 0 -82 23.5t-29 65.5q0 79 104 149z" />
    <glyph glyph-name="tilde" unicode="&#x2dc;" horiz-adv-x="436" 
d="M233 667q34 -22 54 -22q32 0 32 50h65q0 -56 -24.5 -88t-66.5 -32q-33 0 -80 28q-43 22 -60 22q-15 0 -24.5 -14t-9.5 -36h-66q0 56 27 88.5t70 32.5q32 0 83 -29z" />
    <glyph glyph-name="hungarumlaut" unicode="&#x2dd;" horiz-adv-x="445" 
d="M229 717l-96 -147h-80l71 147h105zM392 717l-96 -147h-80l71 147h105z" />
    <glyph glyph-name="gravecomb" unicode="&#x300;" horiz-adv-x="0" 
d="M-284 713h122l70 -143h-97z" />
    <glyph glyph-name="acutecomb" unicode="&#x301;" horiz-adv-x="0" 
d="M-79 713l-94 -143h-97l70 143h121z" />
    <glyph glyph-name="uni0302" unicode="&#x302;" horiz-adv-x="0" 
d="M-175 570l-75 94l-76 -94h-93l100 143h138l100 -143h-94z" />
    <glyph glyph-name="tildecomb" unicode="&#x303;" horiz-adv-x="0" 
d="M-251 667q34 -22 54 -22q32 0 32 50h65q0 -56 -24.5 -88t-66.5 -32q-33 0 -80 28q-43 22 -60 22q-15 0 -24.5 -14t-9.5 -36h-66q0 56 27 88.5t70 32.5q32 0 83 -29z" />
    <glyph glyph-name="uni0304" unicode="&#x304;" horiz-adv-x="0" 
d="M-88 674v-82h-301v82h301z" />
    <glyph glyph-name="uni0306" unicode="&#x306;" horiz-adv-x="0" 
d="M-409 702h78q0 -33 20.5 -52t56.5 -19t56 19t21 52h77q0 -65 -42.5 -102.5t-111.5 -37.5t-112 37.5t-43 102.5z" />
    <glyph glyph-name="uni0307" unicode="&#x307;" horiz-adv-x="0" 
d="M-100 702v-113h-110v113h110z" />
    <glyph glyph-name="uni0308" unicode="&#x308;" horiz-adv-x="0" 
d="M-287 702v-113h-107v113h107zM-99 702v-113h-107v113h107z" />
    <glyph glyph-name="uni030A" unicode="&#x30a;" horiz-adv-x="0" 
d="M-107 677q0 -46 -34 -79q-35 -32 -81 -32q-47 0 -82 32q-34 33 -34 79q0 47 34 78q34 33 82 33q46 0 81 -33q34 -31 34 -78zM-282 677q0 -27 17 -44t43 -17t42.5 17t16.5 44t-16.5 44t-42.5 17t-43 -17t-17 -44z" />
    <glyph glyph-name="uni030B" unicode="&#x30b;" horiz-adv-x="0" 
d="M-255 717l-96 -147h-80l71 147h105zM-92 717l-96 -147h-80l71 147h105z" />
    <glyph glyph-name="uni030C" unicode="&#x30c;" horiz-adv-x="0" 
d="M-92 713l-100 -143h-138l-100 143h94l76 -94l75 94h93z" />
    <glyph glyph-name="uni0326" unicode="&#x326;" horiz-adv-x="0" 
d="M-100 -66v-97l-65 -93h-59l60 93h-56v97h120z" />
    <glyph glyph-name="uni0327" unicode="&#x327;" horiz-adv-x="0" 
d="M-93 -146q0 -42 -30.5 -68t-79.5 -26q-54 0 -112 38l30 47q47 -27 81 -27q22 0 35.5 9t13.5 26q0 15 -16 24t-38 9q-16 0 -28 -3l-31 29l49 108l51 -20l-31 -66q48 1 77 -21.5t29 -58.5z" />
    <glyph glyph-name="uni0328" unicode="&#x328;" horiz-adv-x="0" 
d="M-142 24l57 -24q-83 -54 -83 -106q0 -39 49 -39q16 0 28 4v-66q-15 -7 -44 -7q-53 0 -82 23.5t-29 65.5q0 79 104 149z" />
    <glyph glyph-name="uni037E" unicode="&#x37e;" horiz-adv-x="270" 
d="M208 128v-128l-71 -138h-64l63 138h-59v128h131zM203 502v-128h-124v128h124z" />
    <glyph glyph-name="tonos" unicode="&#x384;" horiz-adv-x="362" 
d="M199 576h-93l38 146h120z" />
    <glyph glyph-name="dieresistonos" unicode="&#x385;" horiz-adv-x="485" 
d="M195 587l21 135h111l-51 -135h-81zM68 587v99h100v-99h-100zM336 587v99h100v-99h-100z" />
    <glyph glyph-name="Alphatonos" unicode="&#x386;" horiz-adv-x="693" 
d="M557 0l-56 160h-313l-55 -160h-120l256 710h155l256 -710h-123zM222 258h245l-30 87l-23 67q-50 141 -69 208q-23 -76 -85 -253l-8 -23zM103 564h-93l38 146h120z" />
    <glyph glyph-name="anoteleia" unicode="&#x387;" horiz-adv-x="230" 
d="M177 387v-128h-124v128h124z" />
    <glyph glyph-name="Epsilontonos" unicode="&#x388;" horiz-adv-x="619" 
d="M564 710v-100h-369v-194h344v-99h-344v-217h379v-100h-497v710h487zM-27 564h-93l38 146h120z" />
    <glyph glyph-name="Etatonos" unicode="&#x389;" horiz-adv-x="735" 
d="M660 710v-710h-119v321h-346v-321h-118v710h118v-289h346v289h119zM-27 564h-93l38 146h120z" />
    <glyph glyph-name="Iotatonos" unicode="&#x38a;" horiz-adv-x="285" 
d="M202 710v-710h-118v710h118zM-27 564h-93l38 146h120z" />
    <glyph glyph-name="Omicrontonos" unicode="&#x38c;" horiz-adv-x="763" 
d="M727 355q2 -161 -93.5 -267t-250.5 -104q-156 0 -250.5 104.5t-94.5 266.5t94.5 266.5t250.5 104.5q155 2 250.5 -104t93.5 -267zM159 355q0 -119 62 -193t162 -74q101 0 162 73.5t61 193.5t-61 193.5t-162 73.5q-100 0 -162 -74t-62 -193zM8 564h-93l38 146h120z" />
    <glyph glyph-name="Upsilontonos" unicode="&#x38e;" horiz-adv-x="640" 
d="M504 710h127l-251 -410v-300h-119v301l-250 409h131l181 -305zM-68 564h-93l38 146h120z" />
    <glyph glyph-name="Omegatonos" unicode="&#x38f;" horiz-adv-x="763" 
d="M605 100h120v-100h-276v100q156 68 156 260q0 118 -61 190t-162 72q-99 0 -161 -72.5t-62 -189.5q0 -192 156 -260v-100h-276v100h121q-59 42 -90 110t-31 151q0 160 94 262.5t249 102.5q155 2 250.5 -102t93.5 -263q0 -83 -31 -151t-90 -110zM8 564h-93l38 146h120z" />
    <glyph glyph-name="iotadieresistonos" unicode="&#x390;" horiz-adv-x="234" 
d="M172 0h-110v502h110v-502zM70 587l21 135h111l-51 -135h-81zM-57 587v99h100v-99h-100zM211 587v99h100v-99h-100z" />
    <glyph glyph-name="Alpha" unicode="&#x391;" horiz-adv-x="693" 
d="M557 0l-56 160h-313l-55 -160h-120l256 710h155l256 -710h-123zM222 258h245l-30 87l-23 67q-50 141 -69 208q-23 -76 -85 -253l-8 -23z" />
    <glyph glyph-name="Beta" unicode="&#x392;" horiz-adv-x="676" 
d="M640 200q0 -92 -59.5 -146t-159.5 -54h-344v710h327q95 0 153 -48t58 -134q0 -57 -29.5 -97t-81.5 -58q65 -19 100.5 -63t35.5 -110zM195 617v-200h182q58 0 90.5 27.5t32.5 75.5q0 97 -123 97h-182zM522 208q0 54 -37.5 85t-103.5 31h-186v-231h185q68 0 105 30.5
t37 84.5z" />
    <glyph glyph-name="Gamma" unicode="&#x393;" horiz-adv-x="571" 
d="M543 610h-348v-610h-118v710h466v-100z" />
    <glyph glyph-name="uni0394" unicode="&#x394;" horiz-adv-x="693" 
d="M424 710l257 -710h-668l256 710h155zM166 98h358l-86 247l-15 44q-68 199 -79 236q-23 -80 -49 -155q-30 -90 -36 -107q0 -1 -1.5 -4t-3 -7t-2.5 -8z" />
    <glyph glyph-name="Epsilon" unicode="&#x395;" horiz-adv-x="620" 
d="M564 710v-100h-369v-194h344v-99h-344v-217h379v-100h-497v710h487z" />
    <glyph glyph-name="Zeta" unicode="&#x396;" horiz-adv-x="633" 
d="M590 710v-96l-405 -514h404v-100h-546v96l405 514h-389v100h531z" />
    <glyph glyph-name="Eta" unicode="&#x397;" horiz-adv-x="737" 
d="M660 710v-710h-119v321h-346v-321h-118v710h118v-289h346v289h119z" />
    <glyph glyph-name="Theta" unicode="&#x398;" horiz-adv-x="770" 
d="M734 355q2 -162 -95 -267t-253 -104q-158 0 -253.5 103.5t-95.5 267.5t95.5 267.5t253.5 103.5q156 1 253 -104t95 -267zM160 355q0 -120 62 -193.5t164 -73.5t163.5 73.5t61.5 193.5t-61.5 193.5t-163.5 73.5t-164 -73.5t-62 -193.5zM239 414h292v-97h-292v97z" />
    <glyph glyph-name="Iota" unicode="&#x399;" horiz-adv-x="286" 
d="M202 710v-710h-118v710h118z" />
    <glyph glyph-name="Kappa" unicode="&#x39a;" horiz-adv-x="679" 
d="M540 0l-226 350l-119 -123v-227h-118v710h118v-339l317 339h147l-266 -276l281 -434h-134z" />
    <glyph glyph-name="Lambda" unicode="&#x39b;" horiz-adv-x="651" 
d="M400 710l237 -710h-122l-113 345q-46 143 -78 255q-17 -63 -65 -215l-12 -38l-112 -347h-121l238 710h148z" />
    <glyph glyph-name="Mu" unicode="&#x39c;" horiz-adv-x="892" 
d="M630 710h185v-710h-115v358q0 110 4 265l-48 -149l-38 -116l-119 -358h-104l-121 358q-14 45 -30 89l-56 170q2 -226 2 -260v-357h-113v710h187l101 -300q50 -141 83 -262q33 116 82 262z" />
    <glyph glyph-name="Nu" unicode="&#x39d;" horiz-adv-x="739" 
d="M547 710h115v-710h-128l-193 304q-112 174 -154 250q5 -117 5 -275v-279h-115v710h130l201 -316l19 -30q99 -159 125 -206q-5 112 -5 264v288z" />
    <glyph glyph-name="Xi" unicode="&#x39e;" horiz-adv-x="653" 
d="M54 604v106h544v-106h-544zM90 314v105h473v-105h-473zM46 0v106h561v-106h-561z" />
    <glyph glyph-name="Omicron" unicode="&#x39f;" horiz-adv-x="765" 
d="M727 355q2 -161 -93.5 -267t-250.5 -104q-156 0 -250.5 104.5t-94.5 266.5t94.5 266.5t250.5 104.5q155 2 250.5 -104t93.5 -267zM159 355q0 -119 62 -193t162 -74q101 0 162 73.5t61 193.5t-61 193.5t-162 73.5q-100 0 -162 -74t-62 -193z" />
    <glyph glyph-name="Pi" unicode="&#x3a0;" horiz-adv-x="723" 
d="M646 0h-119v610h-332v-610h-118v710h569v-710z" />
    <glyph glyph-name="Rho" unicode="&#x3a1;" horiz-adv-x="668" 
d="M635 491q0 -102 -64 -160q-62 -58 -169 -58h-207v-273h-118v710h325q105 0 169 -59q64 -58 64 -160zM383 612h-188v-241h188q63 0 98.5 31.5t35.5 88.5q0 58 -35.5 89.5t-98.5 31.5z" />
    <glyph glyph-name="Sigma" unicode="&#x3a3;" horiz-adv-x="609" 
d="M182 100h387v-100h-526v96l214 267l-207 246v101h513v-100h-372l206 -245z" />
    <glyph glyph-name="Tau" unicode="&#x3a4;" horiz-adv-x="613" 
d="M585 710v-101h-219v-609h-119v609h-218v101h556z" />
    <glyph glyph-name="Upsilon" unicode="&#x3a5;" horiz-adv-x="642" 
d="M504 710h127l-251 -410v-300h-119v301l-250 409h131l181 -305z" />
    <glyph glyph-name="Phi" unicode="&#x3a6;" horiz-adv-x="833" 
d="M476 57v-63h-119v63q-153 9 -237 91.5t-84 211.5t84 211.5t237 91.5v53h119v-53q152 -9 237 -91.5t85 -211.5t-85 -211.5t-237 -91.5zM359 153v414q-98 -9 -151 -63t-53 -144t53 -144t151 -63zM678 360q0 90 -53 144t-151 63v-414q98 9 151 63t53 144z" />
    <glyph glyph-name="Chi" unicode="&#x3a7;" horiz-adv-x="677" 
d="M666 0h-133l-195 290l-196 -290h-131l256 376l-231 334h134l170 -251l169 251h132l-232 -335z" />
    <glyph glyph-name="Psi" unicode="&#x3a8;" horiz-adv-x="824" 
d="M635 710h119v-298q0 -252 -283 -263v-149h-119v150q-282 10 -282 262v298h118v-295q0 -151 164 -164v459h119v-459q164 13 164 164v295z" />
    <glyph glyph-name="uni03A9" unicode="&#x3a9;" horiz-adv-x="763" 
d="M605 100h120v-100h-276v100q156 68 156 260q0 118 -61 190t-162 72q-99 0 -161 -72.5t-62 -189.5q0 -192 156 -260v-100h-276v100h121q-59 42 -90 110t-31 151q0 160 94 262.5t249 102.5q155 2 250.5 -102t93.5 -263q0 -83 -31 -151t-90 -110z" />
    <glyph glyph-name="Iotadieresis" unicode="&#x3aa;" horiz-adv-x="286" 
d="M202 710v-710h-118v710h118zM103 903v-113h-107v113h107zM291 903v-113h-107v113h107z" />
    <glyph glyph-name="Upsilondieresis" unicode="&#x3ab;" horiz-adv-x="642" 
d="M504 710h127l-251 -410v-300h-119v301l-250 409h131l181 -305zM281 903v-113h-107v113h107zM469 903v-113h-107v113h107z" />
    <glyph glyph-name="alphatonos" unicode="&#x3ac;" horiz-adv-x="588" 
d="M423 502h103v-502h-103v71q-55 -85 -166 -85q-97 0 -160 73.5t-63 191.5t63.5 191.5t159.5 73.5q112 0 166 -84v70zM419 251q0 78 -38.5 124.5t-100.5 46.5q-59 0 -96 -47t-37 -124q0 -78 36 -125t97 -47q62 0 100.5 47t38.5 125zM332 576h-93l38 146h120z" />
    <glyph glyph-name="epsilontonos" unicode="&#x3ad;" horiz-adv-x="517" 
d="M441 142l61 -70q-98 -87 -233 -87q-235 0 -235 153q0 92 102 127q-83 35 -83 113q0 65 60.5 102.5t161.5 37.5q69 0 119.5 -17t103.5 -59l-59 -72q-80 60 -162 60q-54 0 -83 -17t-29 -45q0 -31 25.5 -48.5t73.5 -17.5h78v-79h-77q-119 0 -119 -74q0 -72 123 -72
q98 0 172 65zM328 576h-93l38 146h120z" />
    <glyph glyph-name="etatonos" unicode="&#x3ae;" horiz-adv-x="559" 
d="M499 344v-524h-110v492q0 55 -27 83.5t-77 28.5q-48 0 -80.5 -33t-32.5 -84v-307h-110v502h102v-60q51 76 155 76q85 0 132.5 -47.5t47.5 -126.5zM328 576h-93l38 146h120z" />
    <glyph glyph-name="iotatonos" unicode="&#x3af;" horiz-adv-x="234" 
d="M172 0h-110v502h110v-502zM166 576h-93l38 146h120z" />
    <glyph glyph-name="upsilondieresistonos" unicode="&#x3b0;" horiz-adv-x="549" 
d="M60 194v308h110v-301q0 -61 24 -92t79 -31q56 0 81 31t25 92v301h110v-308q0 -100 -54 -154.5t-161 -54.5q-106 0 -160 54.5t-54 154.5zM228 587l21 135h111l-51 -135h-81zM101 587v99h100v-99h-100zM369 587v99h100v-99h-100z" />
    <glyph glyph-name="alpha" unicode="&#x3b1;" horiz-adv-x="588" 
d="M423 502h103v-502h-103v71q-55 -85 -166 -85q-97 0 -160 73.5t-63 191.5t63.5 191.5t159.5 73.5q112 0 166 -84v70zM419 251q0 78 -38.5 124.5t-100.5 46.5q-59 0 -96 -47t-37 -124q0 -78 36 -125t97 -47q62 0 100.5 47t38.5 125z" />
    <glyph glyph-name="beta" unicode="&#x3b2;" horiz-adv-x="588" 
d="M553 197q0 -93 -61.5 -151.5t-165.5 -58.5t-154 81v-248h-110v673q0 107 63 169.5t166 62.5q106 0 165.5 -51.5t59.5 -134.5q0 -55 -28 -95.5t-74 -59.5q65 -18 102 -67t37 -120zM440 206q0 58 -38 91t-100 33h-51v90h54q45 0 73.5 31t28.5 78q0 48 -30.5 75.5
t-84.5 27.5q-56 0 -88 -39t-32 -103v-244q0 -75 39.5 -121t102.5 -46q59 0 92.5 34.5t33.5 92.5z" />
    <glyph glyph-name="gamma" unicode="&#x3b3;" horiz-adv-x="504" 
d="M198 -180v179l-186 503h116l59 -170q46 -137 67 -210q31 106 65 209l59 171h114l-183 -502v-180h-111z" />
    <glyph glyph-name="delta" unicode="&#x3b4;" horiz-adv-x="575" 
d="M32 235q0 97 58.5 168t154.5 75l15 -1l-170 149v84h394v-89h-238l176 -155q121 -105 121 -231q0 -105 -71.5 -177.5t-183.5 -72.5t-184 70.5t-72 179.5zM430 236q0 64 -37.5 112t-103.5 48q-67 0 -106 -46.5t-39 -113.5q0 -62 38.5 -110t105.5 -48q65 0 103.5 46
t38.5 112z" />
    <glyph glyph-name="epsilon" unicode="&#x3b5;" horiz-adv-x="517" 
d="M441 142l61 -70q-98 -87 -233 -87q-235 0 -235 153q0 92 102 127q-83 35 -83 113q0 65 60.5 102.5t161.5 37.5q69 0 119.5 -17t103.5 -59l-59 -72q-80 60 -162 60q-54 0 -83 -17t-29 -45q0 -31 25.5 -48.5t73.5 -17.5h78v-79h-77q-119 0 -119 -74q0 -72 123 -72
q98 0 172 65z" />
    <glyph glyph-name="zeta" unicode="&#x3b6;" horiz-adv-x="498" 
d="M386 -176l-57 59q54 48 54 77q0 40 -49 40h-64q-103 0 -169 52.5t-66 147.5q0 223 266 421h-237v89h393v-82q-309 -217 -309 -425q0 -110 129 -110h66q64 0 100.5 -29.5t36.5 -83.5q0 -42 -23 -76.5t-71 -79.5z" />
    <glyph glyph-name="eta" unicode="&#x3b7;" horiz-adv-x="559" 
d="M499 344v-524h-110v492q0 55 -27 83.5t-77 28.5q-48 0 -80.5 -33t-32.5 -84v-307h-110v502h102v-60q51 76 155 76q85 0 132.5 -47.5t47.5 -126.5z" />
    <glyph glyph-name="theta" unicode="&#x3b8;" horiz-adv-x="584" 
d="M452 46q-62 -61 -160 -61t-159 61q-49 49 -68 123t-19 187t19 187t68 123q61 61 159 61t160 -61q49 -49 67.5 -123t18.5 -187t-18.5 -187t-67.5 -123zM157 401h269q-5 134 -46 192q-33 41 -88 41q-53 0 -88 -41q-42 -54 -47 -192zM426 319h-269q1 -139 47 -200
q35 -41 88 -41q55 0 88 41q41 56 46 200z" />
    <glyph glyph-name="iota" unicode="&#x3b9;" horiz-adv-x="234" 
d="M172 0h-110v502h110v-502z" />
    <glyph glyph-name="kappa" unicode="&#x3ba;" horiz-adv-x="531" 
d="M405 0l-152 235l-81 -84v-151h-110v502h110v-228l210 228h126l-180 -193l199 -309h-122z" />
    <glyph glyph-name="lambda" unicode="&#x3bb;" horiz-adv-x="502" 
d="M278 596l213 -596h-114l-56 162q-27 78 -48 150q-5 13 -10.5 31.5t-6.5 21.5q-36 -113 -69 -203l-60 -162h-116l194 503l-22 67q-23 66 -74 66q-30 0 -60 -10l-21 85q39 16 92 16q61 0 97.5 -30.5t60.5 -100.5z" />
    <glyph glyph-name="uni03BC" unicode="&#x3bc;" horiz-adv-x="553" 
d="M381 502h110v-502h-100v66q-40 -81 -130 -81q-58 0 -89 28v-196h-110v685h110v-326q0 -95 98 -95q51 0 81 30.5t30 86.5v304z" />
    <glyph glyph-name="nu" unicode="&#x3bd;" horiz-adv-x="502" 
d="M377 502h114l-173 -502h-135l-172 502h116l55 -173q36 -108 70 -238q34 130 70 238z" />
    <glyph glyph-name="xi" unicode="&#x3be;" horiz-adv-x="498" 
d="M386 -176l-57 59q54 48 54 77q0 40 -49 40h-64q-106 0 -170 51q-65 53 -65 144q0 72 36.5 119.5t97.5 63.5q-42 14 -67 48.5t-25 79.5q0 40 20 72t60 47h-108v85h408v-89h-132q-64 0 -99.5 -27t-35.5 -81q0 -44 29.5 -70.5t75.5 -26.5h136v-90h-134q-70 0 -109.5 -31.5
t-39.5 -92.5q0 -109 129 -109h66q64 0 100.5 -29.5t36.5 -83.5q0 -42 -23 -76.5t-71 -79.5z" />
    <glyph glyph-name="omicron" unicode="&#x3bf;" horiz-adv-x="579" 
d="M545 251q0 -117 -71.5 -191.5t-183.5 -74.5q-113 0 -184.5 74t-71.5 192q0 119 71.5 193t184.5 74q112 0 183.5 -74.5t71.5 -192.5zM146 251q0 -78 39 -125.5t105 -47.5q64 0 103.5 47.5t39.5 125.5q0 79 -39 126.5t-104 47.5q-66 0 -105 -47.5t-39 -126.5z" />
    <glyph glyph-name="pi" unicode="&#x3c0;" horiz-adv-x="623" 
d="M595 93l12 -87q-51 -17 -93 -17q-71 0 -100 32.5t-29 105.5v289h-168v-416h-110v416h-91v86h566v-86h-87v-277q0 -31 10.5 -43.5t35.5 -12.5q21 0 54 10z" />
    <glyph glyph-name="rho" unicode="&#x3c1;" horiz-adv-x="578" 
d="M545 251q0 -118 -62 -191t-160 -73q-107 0 -159 72v-239h-110v431q0 120 65.5 193.5t175.5 73.5q112 0 181 -74.5t69 -192.5zM433 252q0 78 -37.5 125.5t-100.5 47.5q-62 0 -98.5 -47.5t-36.5 -125.5q0 -77 39 -124t100 -47q60 0 97 47t37 124z" />
    <glyph glyph-name="uni03C2" unicode="&#x3c2;" horiz-adv-x="511" 
d="M349 -176l-56 59l20 20q31 30 31 53q0 16 -16.5 26t-62.5 23q-231 66 -231 255q0 116 69 187t181 71q63 0 111 -22t96 -73l-69 -68q-40 40 -70.5 55t-67.5 15q-65 0 -101 -49q-36 -48 -36 -117q0 -59 34 -99.5t97 -58.5q56 -17 86 -30q78 -30 78 -98q0 -38 -22.5 -71.5
t-70.5 -77.5z" />
    <glyph glyph-name="sigma" unicode="&#x3c3;" horiz-adv-x="589" 
d="M573 502v-89h-117q85 -57 85 -168q0 -115 -70.5 -187.5t-182.5 -72.5t-184 73.5t-72 187.5q0 115 71 185.5t185 70.5h285zM430 246q0 75 -38.5 121t-103.5 46q-66 0 -104.5 -45.5t-38.5 -121.5q0 -73 39 -121q39 -47 104 -47q63 0 102.5 47.5t39.5 120.5z" />
    <glyph glyph-name="tau" unicode="&#x3c4;" horiz-adv-x="440" 
d="M424 413h-150v-272q0 -31 13 -43.5t42 -12.5q23 0 65 11l15 -88q-51 -19 -107 -19q-73 0 -105.5 32.5t-32.5 100.5v291h-149v89h409v-89z" />
    <glyph glyph-name="upsilon" unicode="&#x3c5;" horiz-adv-x="549" 
d="M60 194v308h110v-301q0 -61 24 -92t79 -31q56 0 81 31t25 92v301h110v-308q0 -100 -54 -154.5t-161 -54.5q-106 0 -160 54.5t-54 154.5z" />
    <glyph glyph-name="phi" unicode="&#x3c6;" horiz-adv-x="733" 
d="M311 -180v165q-133 5 -206 72t-73 188q0 96 41 163q43 67 154 110l36 -90q-66 -28 -92 -71.5t-26 -111.5q0 -164 166 -168v255q0 90 47 138t128 48q96 0 155.5 -68.5t59.5 -188.5q0 -128 -74 -200t-205 -76v-165h-111zM589 261q0 78 -27.5 121t-75.5 43q-64 0 -64 -101
v-247q167 8 167 184z" />
    <glyph glyph-name="chi" unicode="&#x3c7;" horiz-adv-x="512" 
d="M502 -180h-119l-127 245l-129 -245h-118l185 338l-181 344h119l122 -239l127 239h116l-179 -332z" />
    <glyph glyph-name="psi" unicode="&#x3c8;" horiz-adv-x="750" 
d="M581 502h111v-249q0 -131 -64.5 -196.5t-197.5 -70.5v-166h-110v166q-133 5 -197.5 70.5t-64.5 196.5v249h111v-249q0 -87 35.5 -128.5t115.5 -45.5v585h110v-585q80 4 115.5 45.5t35.5 128.5v249z" />
    <glyph glyph-name="omega" unicode="&#x3c9;" horiz-adv-x="732" 
d="M465 428l34 90q106 -39 153.5 -107t47.5 -172q0 -111 -49.5 -182.5t-136.5 -71.5q-57 0 -95.5 28t-52.5 79q-14 -51 -52.5 -79t-94.5 -28q-87 0 -137 71.5t-50 182.5q0 104 47.5 172t153.5 107l35 -90q-123 -49 -123 -191q0 -71 23.5 -115t62.5 -44q80 0 80 121v144h111
v-144q0 -121 79 -121q39 0 63 44.5t24 114.5q0 142 -123 191z" />
    <glyph glyph-name="iotadieresis" unicode="&#x3ca;" horiz-adv-x="234" 
d="M172 0h-110v502h110v-502zM76 702v-113h-107v113h107zM264 702v-113h-107v113h107z" />
    <glyph glyph-name="upsilondieresis" unicode="&#x3cb;" horiz-adv-x="549" 
d="M60 194v308h110v-301q0 -61 24 -92t79 -31q56 0 81 31t25 92v301h110v-308q0 -100 -54 -154.5t-161 -54.5q-106 0 -160 54.5t-54 154.5zM234 702v-113h-107v113h107zM422 702v-113h-107v113h107z" />
    <glyph glyph-name="omicrontonos" unicode="&#x3cc;" horiz-adv-x="575" 
d="M545 251q0 -117 -71.5 -191.5t-183.5 -74.5q-113 0 -184.5 74t-71.5 192q0 119 71.5 193t184.5 74q112 0 183.5 -74.5t71.5 -192.5zM146 251q0 -78 39 -125.5t105 -47.5q64 0 103.5 47.5t39.5 125.5q0 79 -39 126.5t-104 47.5q-66 0 -105 -47.5t-39 -126.5zM332 576h-93
l38 146h120z" />
    <glyph glyph-name="upsilontonos" unicode="&#x3cd;" horiz-adv-x="549" 
d="M60 194v308h110v-301q0 -61 24 -92t79 -31q56 0 81 31t25 92v301h110v-308q0 -100 -54 -154.5t-161 -54.5q-106 0 -160 54.5t-54 154.5zM322 576h-93l38 146h120z" />
    <glyph glyph-name="omegatonos" unicode="&#x3ce;" horiz-adv-x="732" 
d="M465 428l34 90q106 -39 153.5 -107t47.5 -172q0 -111 -49.5 -182.5t-136.5 -71.5q-57 0 -95.5 28t-52.5 79q-14 -51 -52.5 -79t-94.5 -28q-87 0 -137 71.5t-50 182.5q0 104 47.5 172t153.5 107l35 -90q-123 -49 -123 -191q0 -71 23.5 -115t62.5 -44q80 0 80 121v144h111
v-144q0 -121 79 -121q39 0 63 44.5t24 114.5q0 142 -123 191zM417 576h-93l38 146h120z" />
    <glyph glyph-name="uni0401" unicode="&#x401;" horiz-adv-x="620" 
d="M564 710v-100h-369v-194h344v-99h-344v-217h379v-100h-497v710h487zM284 903v-113h-107v113h107zM472 903v-113h-107v113h107z" />
    <glyph glyph-name="uni0402" unicode="&#x402;" horiz-adv-x="804" 
d="M759 219q0 -104 -61 -168q-60 -64 -170 -64q-39 0 -100 11l17 96q53 -8 74 -8q121 0 121 130q0 65 -39.5 97.5t-110.5 32.5q-81 0 -156 -27v-319h-118v610h-187v100h536v-100h-231v-191q73 31 169 31q125 0 190.5 -60t65.5 -171z" />
    <glyph glyph-name="uni0403" unicode="&#x403;" horiz-adv-x="571" 
d="M543 610h-348v-610h-118v710h466v-100zM459 914l-94 -143h-97l70 143h121z" />
    <glyph glyph-name="uni0404" unicode="&#x404;" horiz-adv-x="673" 
d="M587 184l70 -80q-67 -64 -130 -92t-143 -28q-155 -2 -251.5 104t-94.5 268q-2 161 94 266.5t255 103.5q75 0 135 -24t124 -79l-70 -82q-53 46 -97 64t-94 18q-92 0 -152 -55.5t-74 -152.5h313v-98h-315q10 -105 70.5 -167.5t153.5 -62.5q55 0 100 22t106 75z" />
    <glyph glyph-name="uni0405" unicode="&#x405;" horiz-adv-x="638" 
d="M591 618l-69 -82q-61 50 -105 68q-44 19 -105 19q-65 0 -104.5 -28t-39.5 -71q0 -32 18 -50q20 -18 54 -30q40 -13 110 -29q141 -35 194 -76.5t56 -129.5q0 -100 -75 -162.5t-197 -62.5q-90 0 -160 29q-67 28 -148 98l71 83q75 -64 124 -85q51 -22 115 -22q69 0 111 30.5
t42 83.5q0 37 -22 56q-23 20 -55 30q-40 13 -112 29q-139 33 -191 76.5t-52 127.5q0 89 75 147.5t188 58.5q85 0 147 -25q64 -26 130 -83z" />
    <glyph glyph-name="uni0406" unicode="&#x406;" horiz-adv-x="286" 
d="M202 710v-710h-118v710h118z" />
    <glyph glyph-name="uni0407" unicode="&#x407;" horiz-adv-x="286" 
d="M202 710v-710h-118v710h118zM103 903v-113h-107v113h107zM291 903v-113h-107v113h107z" />
    <glyph glyph-name="uni0408" unicode="&#x408;" horiz-adv-x="468" 
d="M396 710v-523q0 -100 -53 -150.5t-151 -50.5q-92 0 -184 45l37 94q84 -34 142 -34q91 0 91 108v511h118z" />
    <glyph glyph-name="uni0409" unicode="&#x409;" horiz-adv-x="1122" 
d="M1093 220q0 -102 -66 -161q-65 -59 -172 -59h-307v610h-268l-2 -304q-2 -172 -37 -241t-142 -73q-43 0 -76 10l13 100q25 -5 49 -5q39 0 55 24q16 25 21 69q5 45 6 136l2 384h497v-270h189q107 0 172.5 -60t65.5 -160zM975 220q0 59 -36.5 90.5t-102.5 31.5h-170v-244
h170q66 0 102.5 31.5t36.5 90.5z" />
    <glyph glyph-name="uni040A" unicode="&#x40a;" horiz-adv-x="1115" 
d="M1087 215q0 -99 -65 -158q-64 -57 -171 -57h-310v333h-346v-333h-118v710h118v-279h346v279h119v-279h191q108 0 172 -57.5t64 -158.5zM969 215q0 57 -36 87.5t-101 30.5h-172v-235h172q64 0 100.5 30.5t36.5 86.5z" />
    <glyph glyph-name="uni040B" unicode="&#x40b;" horiz-adv-x="816" 
d="M754 226v-226h-119v225q0 64 -35 92.5t-110 28.5q-87 0 -156 -29v-317h-118v610h-187v100h536v-100h-231v-191q72 31 169 31q130 0 190.5 -56.5t60.5 -167.5z" />
    <glyph glyph-name="uni040C" unicode="&#x40c;" horiz-adv-x="686" 
d="M540 0l-227 321h-118v-321h-118v710h118v-289h119l216 289h134l-254 -335l266 -375h-136zM481 914l-94 -143h-97l70 143h121z" />
    <glyph glyph-name="uni040E" unicode="&#x40e;" horiz-adv-x="635" 
d="M625 710h-117l-184 -420l-190 420h-124l258 -548l-4 -8q-27 -64 -87 -64q-25 0 -65 9l-22 -100q52 -13 93 -13q68 0 106 32q37 32 72 108zM487 903q0 -70 -45 -105t-124 -35q-80 0 -125 35t-45 105h90q0 -72 80 -72t80 72h89z" />
    <glyph glyph-name="uni040F" unicode="&#x40f;" horiz-adv-x="718" 
d="M77 710h118v-610h328v610h118v-710h-224v-156h-116v156h-224v710z" />
    <glyph glyph-name="uni0410" unicode="&#x410;" horiz-adv-x="693" 
d="M557 0l-56 160h-313l-55 -160h-120l256 710h155l256 -710h-123zM222 258h245l-30 87l-23 67q-50 141 -69 208q-23 -76 -85 -253l-8 -23z" />
    <glyph glyph-name="uni0411" unicode="&#x411;" horiz-adv-x="650" 
d="M77 0v710h495v-100h-377v-180h192q105 0 169 -58q65 -59 65 -157t-65 -157q-64 -58 -169 -58h-310zM195 98h173q64 0 99.5 30.5t35.5 86.5t-35.5 86.5t-99.5 30.5h-173v-234z" />
    <glyph glyph-name="uni0412" unicode="&#x412;" horiz-adv-x="676" 
d="M640 200q0 -92 -59.5 -146t-159.5 -54h-344v710h327q95 0 153 -48t58 -134q0 -57 -29.5 -97t-81.5 -58q65 -19 100.5 -63t35.5 -110zM195 617v-200h182q58 0 90.5 27.5t32.5 75.5q0 97 -123 97h-182zM522 208q0 54 -37.5 85t-103.5 31h-186v-231h185q68 0 105 30.5
t37 84.5z" />
    <glyph glyph-name="uni0413" unicode="&#x413;" horiz-adv-x="571" 
d="M543 610h-348v-610h-118v710h466v-100z" />
    <glyph glyph-name="uni0414" unicode="&#x414;" horiz-adv-x="776" 
d="M165 710h492v-610h87v-248h-116v148h-491v-148h-116v248h62q33 48 56 125t24 216zM206 100h333v510h-264l-2 -173q-1 -143 -21 -219q-18 -77 -46 -118z" />
    <glyph glyph-name="uni0415" unicode="&#x415;" horiz-adv-x="620" 
d="M564 710v-100h-369v-194h344v-99h-344v-217h379v-100h-497v710h487z" />
    <glyph glyph-name="uni0416" unicode="&#x416;" horiz-adv-x="1026" 
d="M879 0l-211 321h-98v-321h-114v321h-98l-210 -321h-138l250 376l-237 334h135l201 -289h97v289h114v-289h97l202 289h134l-237 -334l251 -376h-138z" />
    <glyph glyph-name="uni0417" unicode="&#x417;" horiz-adv-x="657" 
d="M614 206q0 -101 -78.5 -161.5t-209.5 -60.5q-169 0 -297 118l69 81q58 -51 110.5 -73.5t118.5 -22.5q79 0 124 32t45 92q0 50 -38.5 78t-113.5 28h-137v96h133q135 0 135 103q0 48 -40 77.5t-107 29.5q-60 0 -107 -19t-101 -65l-70 81q65 56 130 81t146 25q123 0 194 -54
t71 -147q0 -111 -107 -154q130 -43 130 -165z" />
    <glyph glyph-name="uni0418" unicode="&#x418;" horiz-adv-x="739" 
d="M533 710h129v-710h-115v279q0 177 7 295q-50 -90 -160 -268l-190 -306h-127v710h115v-288q0 -181 -6 -283q70 127 150 253z" />
    <glyph glyph-name="uni0419" unicode="&#x419;" horiz-adv-x="739" 
d="M662 710h-129l-197 -318q-80 -126 -150 -253q6 102 6 283v288h-115v-710h127l190 306q110 178 160 268q-7 -118 -7 -295v-279h115v710zM539 903q0 -70 -45 -105t-124 -35q-80 0 -125 35t-45 105h90q0 -72 80 -72t80 72h89z" />
    <glyph glyph-name="uni041A" unicode="&#x41a;" horiz-adv-x="686" 
d="M540 0l-227 321h-118v-321h-118v710h118v-289h119l216 289h134l-254 -335l266 -375h-136z" />
    <glyph glyph-name="uni041B" unicode="&#x41b;" horiz-adv-x="743" 
d="M23 2l13 100q25 -5 49 -5q39 0 55 24q16 25 21 69q5 45 6 136l2 384h497v-710h-118v610h-268l-2 -304q-2 -172 -37 -241t-142 -73q-43 0 -76 10z" />
    <glyph glyph-name="uni041C" unicode="&#x41c;" horiz-adv-x="892" 
d="M630 710h185v-710h-115v358q0 110 4 265l-48 -149l-38 -116l-119 -358h-104l-121 358q-14 45 -30 89l-56 170q2 -226 2 -260v-357h-113v710h187l101 -300q50 -141 83 -262q33 116 82 262z" />
    <glyph glyph-name="uni041D" unicode="&#x41d;" horiz-adv-x="737" 
d="M660 710v-710h-119v321h-346v-321h-118v710h118v-289h346v289h119z" />
    <glyph glyph-name="uni041E" unicode="&#x41e;" horiz-adv-x="765" 
d="M727 355q2 -161 -93.5 -267t-250.5 -104q-156 0 -250.5 104.5t-94.5 266.5t94.5 266.5t250.5 104.5q155 2 250.5 -104t93.5 -267zM159 355q0 -119 62 -193t162 -74q101 0 162 73.5t61 193.5t-61 193.5t-162 73.5q-100 0 -162 -74t-62 -193z" />
    <glyph glyph-name="uni041F" unicode="&#x41f;" horiz-adv-x="723" 
d="M646 0h-119v610h-332v-610h-118v710h569v-710z" />
    <glyph glyph-name="uni0420" unicode="&#x420;" horiz-adv-x="668" 
d="M635 491q0 -102 -64 -160q-62 -58 -169 -58h-207v-273h-118v710h325q105 0 169 -59q64 -58 64 -160zM383 612h-188v-241h188q63 0 98.5 31.5t35.5 88.5q0 58 -35.5 89.5t-98.5 31.5z" />
    <glyph glyph-name="uni0421" unicode="&#x421;" horiz-adv-x="674" 
d="M647 623l-69 -82q-53 46 -96.5 64t-94.5 18q-104 0 -166 -73.5t-62 -193.5q0 -121 61.5 -195t162.5 -74q58 0 101 22q45 23 104 75l71 -80q-69 -64 -132 -92t-142 -28q-158 0 -252.5 104t-94.5 268q0 163 94.5 266.5t255.5 103.5q75 0 135 -24t124 -79z" />
    <glyph glyph-name="uni0422" unicode="&#x422;" horiz-adv-x="613" 
d="M585 710v-101h-219v-609h-119v609h-218v101h556z" />
    <glyph glyph-name="uni0423" unicode="&#x423;" horiz-adv-x="635" 
d="M508 710h117l-264 -584q-35 -76 -72 -108q-38 -32 -106 -32q-41 0 -93 13l22 100q40 -9 65 -9q60 0 87 64l4 8l-258 548h124l190 -420z" />
    <glyph glyph-name="uni0424" unicode="&#x424;" horiz-adv-x="915" 
d="M877 360q0 -140 -94.5 -224.5t-255.5 -84.5h-12v-86h-115v86h-12q-161 0 -255.5 84.5t-94.5 224.5t94.5 224.5t255.5 84.5h12v76h115v-76h12q161 0 255.5 -84.5t94.5 -224.5zM388 148h14v424h-14q-110 0 -170 -56t-60 -156t60 -156t170 -56zM757 360q0 99 -61 155.5
t-169 56.5h-14v-424h14q108 0 169 56.5t61 155.5z" />
    <glyph glyph-name="uni0425" unicode="&#x425;" horiz-adv-x="677" 
d="M666 0h-133l-195 290l-196 -290h-131l256 376l-231 334h134l170 -251l169 251h132l-232 -335z" />
    <glyph glyph-name="uni0426" unicode="&#x426;" horiz-adv-x="760" 
d="M77 710h118v-610h328v610h118v-610h86v-248h-115v148h-535v710z" />
    <glyph glyph-name="uni0427" unicode="&#x427;" horiz-adv-x="675" 
d="M479 710h119v-710h-119v287q-77 -29 -168 -29q-251 0 -251 223v229h119v-228q0 -63 35.5 -91.5t109.5 -28.5q89 0 155 29v319z" />
    <glyph glyph-name="uni0428" unicode="&#x428;" horiz-adv-x="1053" 
d="M976 710v-710h-899v710h118v-610h272v610h119v-610h271v610h119z" />
    <glyph glyph-name="uni0429" unicode="&#x429;" horiz-adv-x="1095" 
d="M947 -148v148h-870v710h118v-610h272v610h119v-610h271v610h119v-610h86v-248h-115z" />
    <glyph glyph-name="uni042A" unicode="&#x42a;" horiz-adv-x="785" 
d="M756 220q0 -102 -66 -161q-65 -59 -172 -59h-307v610h-182v100h301v-270h188q107 0 172.5 -60t65.5 -160zM639 220q0 59 -37 90.5t-103 31.5h-169v-244h169q66 0 103 31.5t37 90.5z" />
    <glyph glyph-name="uni042B" unicode="&#x42b;" horiz-adv-x="903" 
d="M77 0v710h118v-270h189q107 0 172.5 -60t65.5 -160q0 -102 -66 -161q-65 -59 -172 -59h-307zM195 98h170q66 0 102.5 31.5t36.5 90.5t-36.5 90.5t-102.5 31.5h-170v-244zM826 710v-710h-118v710h118z" />
    <glyph glyph-name="uni042C" unicode="&#x42c;" horiz-adv-x="651" 
d="M77 0v710h118v-270h189q107 0 172.5 -60t65.5 -160q0 -102 -66 -161q-65 -59 -172 -59h-307zM195 98h170q66 0 102.5 31.5t36.5 90.5t-36.5 90.5t-102.5 31.5h-170v-244z" />
    <glyph glyph-name="uni042D" unicode="&#x42d;" horiz-adv-x="673" 
d="M635 356q2 -162 -94.5 -268t-251.5 -104q-80 0 -143 28t-130 92l70 80q61 -53 106 -75t100 -22q93 0 153.5 62.5t70.5 167.5h-315v98h313q-14 97 -74 152.5t-152 55.5q-51 0 -94.5 -18t-96.5 -64l-70 82q64 55 124 79t135 24q159 2 255 -103.5t94 -266.5z" />
    <glyph glyph-name="uni042E" unicode="&#x42e;" horiz-adv-x="1037" 
d="M999 355q2 -161 -93.5 -267t-250.5 -104q-145 -1 -239.5 92.5t-104.5 240.5h-115v-317h-119v710h119v-294h118q18 139 109 224.5t232 85.5q155 2 250.5 -104t93.5 -267zM878 355q0 120 -61 193.5t-162 73.5q-100 0 -162 -74t-62 -193t62 -193t162 -74q101 0 162 73.5
t61 193.5z" />
    <glyph glyph-name="uni042F" unicode="&#x42f;" horiz-adv-x="677" 
d="M288 710h312v-710h-115v263h-117l-201 -263h-134l208 267q-84 14 -135 73.5t-51 146.5q0 99 65 161t168 62zM485 362v250h-176q-63 0 -100 -33t-37 -92t36.5 -92t99.5 -33h177z" />
    <glyph glyph-name="uni0430" unicode="&#x430;" horiz-adv-x="547" 
d="M486 343v-343h-99v57q-50 -73 -166 -73q-81 0 -130.5 36t-49.5 106q0 79 59 117q61 40 166 59l115 21v18q0 41 -28 63.5t-76 22.5q-46 0 -80.5 -18.5t-80.5 -64.5l-69 64q92 110 227 110q101 0 156.5 -47t55.5 -128zM381 197v46l-87 -18q-79 -17 -112 -36.5t-33 -56.5
q0 -28 23.5 -44t64.5 -16q63 0 103.5 33.5t40.5 91.5z" />
    <glyph glyph-name="uni0431" unicode="&#x431;" horiz-adv-x="575" 
d="M542 243q0 -114 -70.5 -185.5t-178.5 -71.5q-122 0 -189 83t-67 238q0 195 66.5 289.5t233.5 109.5l167 15l9 -104l-166 -14q-113 -9 -159.5 -55.5t-55.5 -164.5q24 48 73.5 76.5t112.5 28.5q105 0 164.5 -65.5t59.5 -179.5zM430 241q0 71 -36.5 113t-100.5 42
q-63 0 -103.5 -43t-40.5 -112q0 -75 38.5 -118.5t103.5 -43.5q64 0 101.5 43.5t37.5 118.5z" />
    <glyph glyph-name="uni0432" unicode="&#x432;" horiz-adv-x="554" 
d="M515 140q0 -64 -45 -102t-124 -38h-282v502h265q78 0 125.5 -35.5t47.5 -97.5q0 -39 -23 -68.5t-62 -42.5q46 -12 72 -42.5t26 -75.5zM172 419v-126h138q83 0 83 65q0 61 -82 61h-139zM404 151q0 66 -93 66h-139v-132h141q91 0 91 66z" />
    <glyph glyph-name="uni0433" unicode="&#x433;" horiz-adv-x="434" 
d="M414 413h-240v-413h-110v502h350v-89z" />
    <glyph glyph-name="uni0434" unicode="&#x434;" horiz-adv-x="615" 
d="M21 -125v214h49q60 65 61 222l2 191h385v-413h72v-214h-106v125h-357v-125h-106zM184 89h224v324h-175l-2 -106q-3 -165 -47 -218z" />
    <glyph glyph-name="uni0435" unicode="&#x435;" horiz-adv-x="549" 
d="M449 153l64 -67q-53 -54 -105.5 -77.5t-116.5 -23.5q-119 0 -188 71.5t-69 191.5q0 119 67.5 194.5t179.5 75.5q110 0 170.5 -65.5t60.5 -181.5q0 -19 -2 -45h-368q6 -68 45 -108t106 -40q43 0 75 16t81 59zM145 306h259q-3 58 -36 91.5t-90 33.5q-53 0 -87.5 -32.5
t-45.5 -92.5z" />
    <glyph glyph-name="uni0436" unicode="&#x436;" horiz-adv-x="796" 
d="M662 0l-142 216h-70v-216h-105v216h-70l-142 -216h-122l177 266l-161 236h119l129 -196h70v196h105v-196h71l128 196h119l-160 -236l177 -266h-123z" />
    <glyph glyph-name="uni0437" unicode="&#x437;" horiz-adv-x="510" 
d="M472 145q0 -72 -60 -117.5t-163 -45.5q-129 0 -234 90l61 71q86 -69 174 -69q54 0 83.5 20t29.5 56q0 34 -26 49t-82 15h-88v83h94q90 0 90 65q0 31 -26 50t-75 19q-81 0 -164 -64l-53 72q106 80 222 80q82 0 143.5 -38t61.5 -107q0 -82 -85 -114q97 -31 97 -115z" />
    <glyph glyph-name="uni0438" unicode="&#x438;" horiz-adv-x="586" 
d="M402 502h120v-502h-103v184q0 143 4 210q-73 -124 -102 -172l-137 -222h-120v502h102v-194q0 -110 -3 -199q55 98 101 172z" />
    <glyph glyph-name="uni0439" unicode="&#x439;" horiz-adv-x="586" 
d="M522 502h-120l-138 -221q-46 -74 -101 -172q3 88 3 199v194h-102v-502h120l137 222q29 48 102 172q-4 -67 -4 -210v-184h103v502zM462 702q0 -70 -45 -105t-124 -35q-80 0 -125 35t-45 105h90q0 -72 80 -72t80 72h89z" />
    <glyph glyph-name="uni043A" unicode="&#x43a;" horiz-adv-x="542" 
d="M409 0l-151 216h-84v-216h-110v502h110v-196h85l139 196h118l-170 -236l187 -266h-124z" />
    <glyph glyph-name="uni043B" unicode="&#x43b;" horiz-adv-x="588" 
d="M17 1l10 89q27 -4 38 -4q44 3 55 34t13 150l2 232h390v-502h-110v413h-180l-2 -145q-2 -159 -31 -214.5t-118 -59.5q-38 0 -67 7z" />
    <glyph glyph-name="uni043C" unicode="&#x43c;" horiz-adv-x="730" 
d="M507 502h159v-502h-103v209q0 113 4 216l-9 -27l-21 -61q-16 -45 -31 -83l-93 -254h-98l-93 254l-60 170q4 -105 4 -215v-209h-102v502h163l78 -213q35 -92 61 -180q37 117 61 180z" />
    <glyph glyph-name="uni043D" unicode="&#x43d;" horiz-adv-x="564" 
d="M500 0h-110v216h-216v-216h-110v502h110v-196h216v196h110v-502z" />
    <glyph glyph-name="uni043E" unicode="&#x43e;" horiz-adv-x="579" 
d="M545 251q0 -117 -71.5 -191.5t-183.5 -74.5q-113 0 -184.5 74t-71.5 192q0 119 71.5 193t184.5 74q112 0 183.5 -74.5t71.5 -192.5zM146 251q0 -78 39 -125.5t105 -47.5q64 0 103.5 47.5t39.5 125.5q0 79 -39 126.5t-104 47.5q-66 0 -105 -47.5t-39 -126.5z" />
    <glyph glyph-name="uni043F" unicode="&#x43f;" horiz-adv-x="558" 
d="M64 0v502h430v-502h-110v413h-210v-413h-110z" />
    <glyph glyph-name="uni0440" unicode="&#x440;" horiz-adv-x="587" 
d="M552 252q0 -119 -63 -192t-160 -73q-103 0 -157 71v-238h-110v682h102v-71q55 85 166 85q97 0 159.5 -73t62.5 -191zM440 252q0 77 -36 123.5t-97 46.5q-63 0 -101.5 -46.5t-38.5 -123.5q0 -78 39 -124t101 -46q60 0 96.5 46.5t36.5 123.5z" />
    <glyph glyph-name="uni0441" unicode="&#x441;" horiz-adv-x="516" 
d="M286 425q-67 0 -104 -51q-36 -50 -36 -123t36 -123q37 -49 104 -49q38 0 69.5 17.5t72.5 62.5l73 -61q-49 -62 -99 -87.5t-117 -25.5q-113 0 -182 72.5t-69 193.5t70 194t182 73q63 0 111 -22t96 -73l-70 -68q-40 40 -70.5 55t-66.5 15z" />
    <glyph glyph-name="uni0442" unicode="&#x442;" horiz-adv-x="483" 
d="M463 413h-167v-413h-110v413h-166v89h443v-89z" />
    <glyph glyph-name="uni0443" unicode="&#x443;" horiz-adv-x="504" 
d="M379 502h112l-197 -564q-24 -72 -61 -102t-103 -30q-46 0 -88 11l18 83q36 -6 57 -6q30 0 50 16t32 55l3 9l-189 528h116l49 -147q51 -151 77 -236q42 138 75 237z" />
    <glyph glyph-name="uni0444" unicode="&#x444;" horiz-adv-x="741" 
d="M318 710h106v-193q128 -5 206 -74t78 -192t-78 -192t-206 -74v-165h-106v165q-125 4 -206 73q-78 69 -78 193q0 125 78 192q80 70 206 74v193zM321 74v354q-83 -2 -129 -48t-46 -129t46 -129t129 -48zM421 428v-354q83 2 129 48t46 129t-46 129t-129 48z" />
    <glyph glyph-name="uni0445" unicode="&#x445;" horiz-adv-x="504" 
d="M496 0h-122l-122 186l-125 -186h-119l182 263l-166 239h120l109 -161l107 161h119l-164 -235z" />
    <glyph glyph-name="uni0446" unicode="&#x446;" horiz-adv-x="595" 
d="M464 -125v125h-400v502h110v-413h214v413h110v-413h73v-214h-107z" />
    <glyph glyph-name="uni0447" unicode="&#x447;" horiz-adv-x="534" 
d="M360 502h110v-502h-110v189q-58 -24 -129 -24q-99 0 -144 40t-45 123v174h110v-163q0 -43 22.5 -62.5t75.5 -19.5q69 0 110 19v226z" />
    <glyph glyph-name="uni0448" unicode="&#x448;" horiz-adv-x="810" 
d="M746 502v-502h-682v502h110v-412h176v412h110v-412h176v412h110z" />
    <glyph glyph-name="uni0449" unicode="&#x449;" horiz-adv-x="843" 
d="M712 -125v125h-648v502h110v-412h177v412h109v-412h176v412h110v-413h73v-214h-107z" />
    <glyph glyph-name="uni044A" unicode="&#x44a;" horiz-adv-x="623" 
d="M594 172q0 -80 -52.5 -126t-140.5 -46h-243v413h-138v89h248v-158h133q88 0 140.5 -46t52.5 -126zM482 172q0 82 -96 82h-118v-164h118q96 0 96 82z" />
    <glyph glyph-name="uni044B" unicode="&#x44b;" horiz-adv-x="731" 
d="M64 0v502h110v-158h132q88 0 140.5 -46t52.5 -126t-52.5 -126t-140.5 -46h-242zM174 90h117q96 0 96 82t-96 82h-117v-164zM668 502v-502h-110v502h110z" />
    <glyph glyph-name="uni044C" unicode="&#x44c;" horiz-adv-x="528" 
d="M64 0v502h110v-158h132q88 0 140.5 -46t52.5 -126t-52.5 -126t-140.5 -46h-242zM174 90h117q96 0 96 82t-96 82h-117v-164z" />
    <glyph glyph-name="uni044D" unicode="&#x44d;" horiz-adv-x="516" 
d="M482 251q0 -121 -69 -193.5t-182 -72.5q-67 0 -117 25.5t-99 87.5l72 61q42 -46 74 -63t73 -17q58 0 93.5 36.5t44.5 98.5h-214v82h212q-10 60 -45 94.5t-91 34.5q-40 0 -71 -15t-70 -55l-70 68q47 51 94.5 73t111.5 22q113 0 183 -73t70 -194z" />
    <glyph glyph-name="uni044E" unicode="&#x44e;" horiz-adv-x="805" 
d="M772 251q0 -118 -71.5 -192t-184.5 -74q-104 0 -174.5 65t-79.5 170h-90v-220h-110v502h110v-203h92q13 99 83 159q69 60 169 60q113 0 184.5 -74.5t71.5 -192.5zM660 251q0 79 -39.5 126.5t-104.5 47.5t-104 -47.5t-39 -126.5q0 -78 39 -125.5t104 -47.5t104.5 47.5
t39.5 125.5z" />
    <glyph glyph-name="uni044F" unicode="&#x44f;" horiz-adv-x="542" 
d="M233 502h245v-502h-105v170h-86l-138 -170h-126l149 177q-60 15 -94.5 57.5t-34.5 102.5q0 75 52 120t138 45zM373 258v156h-127q-45 0 -69 -20.5t-24 -56.5q0 -37 24.5 -58t68.5 -21h127z" />
    <glyph glyph-name="uni0451" unicode="&#x451;" horiz-adv-x="549" 
d="M449 153l64 -67q-53 -54 -105.5 -77.5t-116.5 -23.5q-119 0 -188 71.5t-69 191.5q0 119 67.5 194.5t179.5 75.5q110 0 170.5 -65.5t60.5 -181.5q0 -19 -2 -45h-368q6 -68 45 -108t106 -40q43 0 75 16t81 59zM145 306h259q-3 58 -36 91.5t-90 33.5q-53 0 -87.5 -32.5
t-45.5 -92.5zM250 702v-113h-107v113h107zM438 702v-113h-107v113h107z" />
    <glyph glyph-name="uni0452" unicode="&#x452;" horiz-adv-x="591" 
d="M531 327v-355q0 -163 -150 -163q-55 0 -100 15l20 83q36 -9 61 -9q32 0 45.5 17t13.5 56v322q0 55 -27 84.5t-77 29.5q-48 0 -80 -33t-32 -84v-290h-110v577h-72v70h72v63h110v-63h185v-70h-185v-142q53 66 147 66q85 0 132 -47.5t47 -126.5z" />
    <glyph glyph-name="uni0453" unicode="&#x453;" horiz-adv-x="434" 
d="M414 413h-240v-413h-110v502h350v-89zM368 713l-94 -143h-97l70 143h121z" />
    <glyph glyph-name="uni0454" unicode="&#x454;" horiz-adv-x="516" 
d="M428 159l73 -61q-49 -62 -99 -87.5t-117 -25.5q-113 0 -182 72.5t-69 193.5t70 194t182 73q63 0 111 -22t96 -73l-70 -68q-40 40 -71 55t-71 15q-56 0 -91 -35t-45 -94h213v-82h-214q9 -62 44.5 -98.5t93.5 -36.5q42 0 73 17.5t73 62.5z" />
    <glyph glyph-name="uni0455" unicode="&#x455;" horiz-adv-x="495" 
d="M457 442l-60 -73q-45 35 -78.5 47.5t-75.5 12.5q-44 0 -70 -17t-26 -44q0 -18 12 -29q18 -14 113 -36q107 -24 150 -57.5t43 -99.5q0 -72 -57 -116.5t-152 -44.5q-70 0 -124 21t-114 73l64 72q52 -43 92 -61q36 -16 84 -16q43 0 71 17.5t28 47.5q-4 34 -28.5 46
t-102.5 29q-107 24 -145.5 55t-38.5 95q0 67 55.5 110.5t147.5 43.5q64 0 112.5 -17t99.5 -59z" />
    <glyph glyph-name="uni0456" unicode="&#x456;" horiz-adv-x="233" 
d="M172 502v-502h-110v502h110zM172 702v-113h-110v113h110z" />
    <glyph glyph-name="uni0457" unicode="&#x457;" horiz-adv-x="233" 
d="M172 502v-502h-110v502h110zM76 702v-113h-107v113h107zM264 702v-113h-107v113h107z" />
    <glyph glyph-name="uni0458" unicode="&#x458;" horiz-adv-x="237" 
d="M7 -102q32 0 45 17t13 56v531h110v-530q0 -163 -150 -163q-55 0 -100 15l20 82q43 -8 62 -8zM175 702v-113h-110v113h110z" />
    <glyph glyph-name="uni0459" unicode="&#x459;" horiz-adv-x="891" 
d="M862 160q0 -76 -49.5 -118t-135.5 -42h-262v413h-180l-2 -145q-2 -159 -31 -214.5t-118 -59.5q-38 0 -67 7l10 89q27 -4 38 -4q44 3 55 34t13 150l2 232h390v-182h152q85 0 135 -42.5t50 -117.5zM749 160q0 70 -84 70h-140v-140h140q84 0 84 70z" />
    <glyph glyph-name="uni045A" unicode="&#x45a;" horiz-adv-x="867" 
d="M64 0v502h110v-182h216v182h110v-182h153q85 0 135 -42.5t50 -117.5q0 -76 -49.5 -118t-135.5 -42h-263v230h-216v-230h-110zM500 90h141q85 0 85 70t-85 70h-141v-140z" />
    <glyph glyph-name="uni045B" unicode="&#x45b;" horiz-adv-x="591" 
d="M531 327v-327h-110v293q0 55 -27 84.5t-77 29.5q-48 0 -80 -33t-32 -84v-290h-110v577h-72v70h72v63h110v-63h185v-70h-185v-141q52 65 147 65q85 0 132 -47.5t47 -126.5z" />
    <glyph glyph-name="uni045C" unicode="&#x45c;" horiz-adv-x="542" 
d="M409 0l-151 216h-84v-216h-110v502h110v-196h85l139 196h118l-170 -236l187 -266h-124zM421 713l-94 -143h-97l70 143h121z" />
    <glyph glyph-name="uni045E" unicode="&#x45e;" horiz-adv-x="504" 
d="M491 502h-112l-49 -146q-33 -99 -75 -237q-26 85 -77 236l-49 147h-116l189 -528l-3 -9q-12 -39 -32 -55t-50 -16q-21 0 -57 6l-18 -83q42 -11 88 -11q66 0 103 30t61 102zM420 702q0 -70 -45 -105t-124 -35q-80 0 -125 35t-45 105h90q0 -72 80 -72t80 72h89z" />
    <glyph glyph-name="uni045F" unicode="&#x45f;" horiz-adv-x="565" 
d="M229 -129v129h-165v502h110v-413h217v413h110v-502h-166v-129h-106z" />
    <glyph glyph-name="uni0490" unicode="&#x490;" horiz-adv-x="571" 
d="M77 0v710h350v146h116v-246h-348v-610h-118z" />
    <glyph glyph-name="uni0491" unicode="&#x491;" horiz-adv-x="452" 
d="M64 0v502h267v131h105v-220h-262v-413h-110z" />
    <glyph glyph-name="Wgrave" unicode="&#x1e80;" horiz-adv-x="956" 
d="M812 710h116l-171 -710h-139l-78 298q-34 129 -61 254q-30 -135 -61 -255l-78 -297h-140l-172 710h120l75 -322q19 -79 53 -253q40 174 61 253l86 322h117l84 -322q34 -136 60 -255q34 177 52 255zM337 914h122l70 -143h-97z" />
    <glyph glyph-name="wgrave" unicode="&#x1e81;" horiz-adv-x="766" 
d="M636 502h113l-140 -502h-132l-41 147q-31 112 -54 218l-6 -27l-19 -78q-18 -76 -28 -113l-40 -147h-131l-141 502h116l44 -175q29 -113 52 -228q36 151 56 228l47 175h103l48 -175q31 -115 56 -230q25 124 52 230zM243 713h122l70 -143h-97z" />
    <glyph glyph-name="Wacute" unicode="&#x1e82;" horiz-adv-x="956" 
d="M812 710h116l-171 -710h-139l-78 298q-34 129 -61 254q-30 -135 -61 -255l-78 -297h-140l-172 710h120l75 -322q19 -79 53 -253q40 174 61 253l86 322h117l84 -322q34 -136 60 -255q34 177 52 255zM619 914l-94 -143h-97l70 143h121z" />
    <glyph glyph-name="wacute" unicode="&#x1e83;" horiz-adv-x="766" 
d="M636 502h113l-140 -502h-132l-41 147q-31 112 -54 218l-6 -27l-19 -78q-18 -76 -28 -113l-40 -147h-131l-141 502h116l44 -175q29 -113 52 -228q36 151 56 228l47 175h103l48 -175q31 -115 56 -230q25 124 52 230zM524 713l-94 -143h-97l70 143h121z" />
    <glyph glyph-name="Wdieresis" unicode="&#x1e84;" horiz-adv-x="956" 
d="M812 710h116l-171 -710h-139l-78 298q-34 129 -61 254q-30 -135 -61 -255l-78 -297h-140l-172 710h120l75 -322q19 -79 53 -253q40 174 61 253l86 322h117l84 -322q34 -136 60 -255q34 177 52 255zM438 903v-113h-107v113h107zM626 903v-113h-107v113h107z" />
    <glyph glyph-name="wdieresis" unicode="&#x1e85;" horiz-adv-x="766" 
d="M636 502h113l-140 -502h-132l-41 147q-31 112 -54 218l-6 -27l-19 -78q-18 -76 -28 -113l-40 -147h-131l-141 502h116l44 -175q29 -113 52 -228q36 151 56 228l47 175h103l48 -175q31 -115 56 -230q25 124 52 230zM344 702v-113h-107v113h107zM532 702v-113h-107v113h107
z" />
    <glyph glyph-name="Ygrave" unicode="&#x1ef2;" horiz-adv-x="642" 
d="M504 710h127l-251 -410v-300h-119v301l-250 409h131l181 -305zM180 914h122l70 -143h-97z" />
    <glyph glyph-name="ygrave" unicode="&#x1ef3;" horiz-adv-x="504" 
d="M379 502h112l-197 -564q-24 -72 -61 -102t-103 -30q-46 0 -88 11l18 83q36 -6 57 -6q30 0 50 16t32 55l3 9l-189 528h116l49 -147q51 -151 77 -236q42 138 75 237zM110 713h122l70 -143h-97z" />
    <glyph glyph-name="endash" unicode="&#x2013;" horiz-adv-x="731" 
d="M667 336v-94h-603v94h603z" />
    <glyph glyph-name="emdash" unicode="&#x2014;" horiz-adv-x="977" 
d="M902 336v-94h-828v94h828z" />
    <glyph glyph-name="quoteleft" unicode="&#x2018;" horiz-adv-x="215" 
d="M43 457v122l69 131h62l-62 -131h58v-122h-127z" />
    <glyph glyph-name="quoteright" unicode="&#x2019;" horiz-adv-x="215" 
d="M172 710v-122l-69 -131h-62l62 131h-58v122h127z" />
    <glyph glyph-name="quotesinglbase" unicode="&#x201a;" horiz-adv-x="212" 
d="M169 125v-125l-68 -126h-60l58 126h-56v125h126z" />
    <glyph glyph-name="quotedblleft" unicode="&#x201c;" horiz-adv-x="416" 
d="M43 457v122l69 131h62l-62 -131h58v-122h-127zM244 457v122l69 131h62l-62 -131h58v-122h-127z" />
    <glyph glyph-name="quotedblright" unicode="&#x201d;" horiz-adv-x="416" 
d="M172 710v-122l-69 -131h-62l62 131h-58v122h127zM373 710v-122l-69 -131h-62l62 131h-58v122h127z" />
    <glyph glyph-name="quotedblbase" unicode="&#x201e;" horiz-adv-x="413" 
d="M169 125v-125l-68 -126h-60l58 126h-56v125h126zM370 125v-125l-68 -126h-60l58 126h-56v125h126z" />
    <glyph glyph-name="dagger" unicode="&#x2020;" 
d="M550 452v-99h-198v-550h-113v550h-198v99h198v258h113v-258h198z" />
    <glyph glyph-name="daggerdbl" unicode="&#x2021;" 
d="M550 403h-198v-205h198v-99h-198v-296h-113v296h-198v99h198v205h-198v99h198v208h113v-208h198v-99z" />
    <glyph glyph-name="bullet" unicode="&#x2022;" horiz-adv-x="510" 
d="M441 296q0 -75 -55 -130.5t-131 -55.5t-131 55.5t-55 130.5q0 76 55 131t131 55t131 -55t55 -131z" />
    <glyph glyph-name="ellipsis" unicode="&#x2026;" horiz-adv-x="678" 
d="M177 128v-128h-124v128h124zM400 128v-128h-123v128h123zM625 128v-128h-124v128h124z" />
    <glyph glyph-name="perthousand" unicode="&#x2030;" horiz-adv-x="1262" 
d="M641 696l65 -41l-472 -671l-64 42zM818 154q0 -72 -46.5 -118t-115.5 -46t-115 46t-46 118q0 70 46 116.5t115 46.5q68 0 115 -46.5t47 -116.5zM574 154q0 -43 22 -69t60 -26t60.5 26.5t22.5 68.5t-22.5 68t-60.5 26q-37 0 -59.5 -26.5t-22.5 -67.5zM376 528
q0 -72 -46.5 -118t-115.5 -46t-115 46t-46 118q0 70 46 116.5t115 46.5q68 0 115 -46.5t47 -116.5zM132 528q0 -43 22 -69t60 -26t60.5 26.5t22.5 68.5t-22.5 68t-60.5 26q-37 0 -59.5 -26.5t-22.5 -67.5zM1195 154q0 -72 -46.5 -118t-115.5 -46t-115 46t-46 118
q0 70 46 116.5t115 46.5q68 0 115 -46.5t47 -116.5zM951 154q0 -43 22 -69t60 -26t60.5 26.5t22.5 68.5t-22.5 68t-60.5 26q-37 0 -59.5 -26.5t-22.5 -67.5z" />
    <glyph glyph-name="guilsinglleft" unicode="&#x2039;" horiz-adv-x="368" 
d="M305 475l-144 -222l144 -222h-105l-142 222l142 222h105z" />
    <glyph glyph-name="guilsinglright" unicode="&#x203a;" horiz-adv-x="368" 
d="M63 475h105l142 -222l-142 -222h-105l140 222z" />
    <glyph glyph-name="fraction" unicode="&#x2044;" horiz-adv-x="210" 
d="M308 696l65 -41l-472 -671l-64 42z" />
    <glyph glyph-name="Euro" unicode="&#x20ac;" horiz-adv-x="610" 
d="M531 130l61 -77q-48 -37 -94 -53t-106 -16q-106 0 -176 67q-69 68 -92 181h-72v78h63q-1 7 -1 30q0 7 2 47h-64v78h76q27 108 95.5 169.5t168.5 61.5q60 0 106 -16t94 -53l-61 -77q-39 28 -70 39q-27 10 -69 10q-52 0 -90 -35t-57 -99h239v-78h-253q-2 -40 -2 -47
q0 -23 1 -30h254v-78h-243q17 -72 56 -111.5t95 -39.5q42 0 69 10q31 11 70 39z" />
    <glyph glyph-name="uni20B9" unicode="&#x20b9;" 
d="M549 605h-109q32 -38 41 -92h68v-75h-68q-11 -78 -70.5 -123t-150.5 -45h-37l275 -270h-151l-268 270v87h170q102 0 121 81h-291v75h289q-22 72 -119 72h-170v95h470v-75z" />
    <glyph glyph-name="uni20BA" unicode="&#x20ba;" 
d="M457 303l102 -16l-11 -60q-24 -125 -88 -176t-201 -51h-126v245l-91 -40v82l91 40v89l-91 -40v82l91 40v182h113v-132l150 67v-82l-150 -67v-89l150 67v-82l-150 -67v-198h9q92 2 131.5 30t59.5 119z" />
    <glyph glyph-name="uni20BD" unicode="&#x20bd;" horiz-adv-x="610" 
d="M342 271h-103v-77h201v-75h-201v-119h-113v119h-89v75h89v77h-89v86h89v323h216q100 0 162 -56.5t62 -149.5t-62 -149q-62 -54 -162 -54zM239 585v-228h93q57 0 90.5 30.5t33.5 83.5t-33.5 83.5t-90.5 30.5h-93z" />
    <glyph glyph-name="uni2116" unicode="&#x2116;" horiz-adv-x="1060" 
d="M730 554q0 72 45 118q46 46 117 46t116 -46q46 -46 46 -118t-46 -118q-45 -45 -116 -45q-70 0 -117 45q-45 47 -45 118zM533 422v288h116v-710h-129l-187 303q-76 120 -146 252q6 -127 6 -277v-278h-116v710h131l194 -316q81 -126 136 -233q-5 110 -5 261zM812 554
q0 -44 22.5 -69t57.5 -25t57.5 25t22.5 69t-22.5 69.5t-57.5 25.5t-57.5 -25.5t-22.5 -69.5zM741 281v68h301v-68h-301z" />
    <glyph glyph-name="uni2117" unicode="&#x2117;" horiz-adv-x="856" 
d="M60 355q-2 154 106.5 262.5t261.5 105.5q153 3 261.5 -105.5t106.5 -262.5q2 -154 -106.5 -262.5t-261.5 -105.5q-153 -3 -261.5 105.5t-106.5 262.5zM729 355q2 130 -85.5 220.5t-215.5 89.5q-128 1 -215.5 -89.5t-85.5 -220.5q-2 -130 85.5 -220.5t215.5 -89.5
q128 -1 215.5 89.5t85.5 220.5zM295 149v413h167q59 0 96.5 -36.5t37.5 -92.5q0 -124 -134 -124h-98v-160h-69zM364 367h83q80 0 80 66q0 31 -20.5 49t-59.5 18h-83v-133z" />
    <glyph glyph-name="trademark" unicode="&#x2122;" horiz-adv-x="954" 
d="M372 710v-64h-131v-323h-76v323h-132v64h339zM888 710v-387h-69v293l-118 -293h-65l-121 289v-289h-71v387h101l124 -298l118 298h101z" />
    <glyph glyph-name="uni2126" unicode="&#x2126;" horiz-adv-x="763" 
d="M605 100h120v-100h-276v100q156 68 156 260q0 118 -61 190t-162 72q-99 0 -161 -72.5t-62 -189.5q0 -192 156 -260v-100h-276v100h121q-59 42 -90 110t-31 151q0 160 94 262.5t249 102.5q155 2 250.5 -102t93.5 -263q0 -83 -31 -151t-90 -110z" />
    <glyph glyph-name="uni2154" unicode="&#x2154;" horiz-adv-x="1021" 
d="M123 342h237v-70h-323v33q0 61 31.5 96.5t99.5 71.5l25 13q49 24 67 39.5t18 40.5t-19.5 38.5t-52.5 13.5q-52 0 -118 -52l-45 54q77 71 164 71q70 0 112.5 -35.5t42.5 -86.5q0 -35 -15 -61q-14 -23 -36 -38.5t-71 -40.5l-25 -13q-48 -25 -67 -39.5t-25 -34.5zM726 696
l65 -41l-472 -671l-64 42zM984 125q0 -57 -44 -96.5t-118 -39.5q-88 0 -169 53l40 59q74 -39 128 -39q36 0 57 17t21 46t-24 45t-64 16q-33 0 -50 -6l-36 49l138 109h-189v70h292v-69l-121 -94q62 -2 100.5 -34.5t38.5 -85.5z" />
    <glyph glyph-name="oneeighth" unicode="&#x215b;" horiz-adv-x="928" 
d="M160 680h64v-408h-83v308l-69 -49l-41 56zM626 696l65 -41l-472 -671l-64 42zM896 111q0 -54 -45.5 -88t-122.5 -34t-122 34t-45 88q0 75 75 105q-58 31 -58 90q0 49 41.5 81t108.5 32q68 0 109.5 -32t41.5 -81q0 -60 -59 -90q76 -30 76 -105zM656 299q0 -23 20.5 -39
t51.5 -16q32 0 52 15.5t20 39.5t-19.5 38.5t-52.5 14.5q-32 0 -52 -15t-20 -38zM812 119q0 28 -22.5 46.5t-61.5 18.5t-61.5 -18.5t-22.5 -46.5t22.5 -45t61.5 -17q40 0 62 17t22 45z" />
    <glyph glyph-name="threeeighths" unicode="&#x215c;" horiz-adv-x="1003" 
d="M356 397q0 -57 -44 -96.5t-118 -39.5q-88 0 -169 53l40 59q74 -39 128 -39q36 0 57 17t21 46t-24 45t-64 16q-33 0 -50 -6l-36 49l138 109h-189v70h292v-69l-121 -94q62 -2 100.5 -34.5t38.5 -85.5zM701 696l65 -41l-472 -671l-64 42zM971 111q0 -54 -45.5 -88
t-122.5 -34t-122 34t-45 88q0 75 75 105q-58 31 -58 90q0 49 41.5 81t108.5 32q68 0 109.5 -32t41.5 -81q0 -60 -59 -90q76 -30 76 -105zM731 299q0 -23 20.5 -39t51.5 -16q32 0 52 15.5t20 39.5t-19.5 38.5t-52.5 14.5q-32 0 -52 -15t-20 -38zM887 119q0 28 -22.5 46.5
t-61.5 18.5t-61.5 -18.5t-22.5 -46.5t22.5 -45t61.5 -17q40 0 62 17t22 45z" />
    <glyph glyph-name="fiveeighths" unicode="&#x215d;" horiz-adv-x="1005" 
d="M365 410q0 -67 -45.5 -107.5t-119.5 -40.5q-83 0 -173 54l40 60q80 -42 129 -42q37 0 60 19t23 52q0 31 -20.5 48.5t-59.5 17.5q-45 0 -80 -29l-66 7l21 231h270v-70h-202l-9 -97q37 26 92 26q62 0 101 -38t39 -91zM704 696l65 -41l-472 -671l-64 42zM973 111
q0 -54 -45.5 -88t-122.5 -34t-122 34t-45 88q0 75 75 105q-58 31 -58 90q0 49 41.5 81t108.5 32q68 0 109.5 -32t41.5 -81q0 -60 -59 -90q76 -30 76 -105zM733 299q0 -23 20.5 -39t51.5 -16q32 0 52 15.5t20 39.5t-19.5 38.5t-52.5 14.5q-32 0 -52 -15t-20 -38zM889 119
q0 28 -22.5 46.5t-61.5 18.5t-61.5 -18.5t-22.5 -46.5t22.5 -45t61.5 -17q40 0 62 17t22 45z" />
    <glyph glyph-name="seveneighths" unicode="&#x215e;" horiz-adv-x="918" 
d="M26 680h325v-63q-150 -165 -163 -345h-90q6 88 52 178q47 94 107 160h-231v70zM617 696l65 -41l-472 -671l-64 42zM886 111q0 -54 -45.5 -88t-122.5 -34t-122 34t-45 88q0 75 75 105q-58 31 -58 90q0 49 41.5 81t108.5 32q68 0 109.5 -32t41.5 -81q0 -60 -59 -90
q76 -30 76 -105zM646 299q0 -23 20.5 -39t51.5 -16q32 0 52 15.5t20 39.5t-19.5 38.5t-52.5 14.5q-32 0 -52 -15t-20 -38zM802 119q0 28 -22.5 46.5t-61.5 18.5t-61.5 -18.5t-22.5 -46.5t22.5 -45t61.5 -17q40 0 62 17t22 45z" />
    <glyph glyph-name="arrowleft" unicode="&#x2190;" horiz-adv-x="927" 
d="M870 385v-93h-664l232 -229l-66 -67l-342 343l342 341l66 -66l-232 -229h664z" />
    <glyph glyph-name="arrowup" unicode="&#x2191;" horiz-adv-x="737" 
d="M697 437l-64 -65l-214 217v-589h-100v590l-214 -218l-65 65l329 328z" />
    <glyph glyph-name="arrowright" unicode="&#x2192;" horiz-adv-x="927" 
d="M555 680l342 -341l-342 -343l-66 67l232 229h-664v93h664l-232 229z" />
    <glyph glyph-name="arrowdown" unicode="&#x2193;" horiz-adv-x="737" 
d="M633 338l64 -65l-328 -328l-329 328l65 65l214 -218v590h100v-589z" />
    <glyph glyph-name="uni2196" unicode="&#x2196;" horiz-adv-x="743" 
d="M713 133l-66 -66l-485 485v-337h-92v495h495v-91h-338z" />
    <glyph glyph-name="uni2197" unicode="&#x2197;" horiz-adv-x="743" 
d="M178 710h495v-495h-92v337l-484 -485l-67 66l486 486h-338v91z" />
    <glyph glyph-name="uni2198" unicode="&#x2198;" horiz-adv-x="743" 
d="M581 495h92v-495h-495v91h338l-486 486l67 66l484 -485v337z" />
    <glyph glyph-name="uni2199" unicode="&#x2199;" horiz-adv-x="743" 
d="M713 577l-486 -486h338v-91h-495v495h92v-337l485 485z" />
    <glyph glyph-name="partialdiff" unicode="&#x2202;" horiz-adv-x="563" 
d="M529 293q0 -146 -67.5 -228t-184.5 -82q-109 0 -176 74t-67 177q0 101 61 171t160 70q103 0 159 -73q-50 193 -284 223l24 99q194 -26 284 -139q91 -113 91 -292zM412 231q0 63 -40 107t-99 44q-58 0 -93.5 -42.5t-35.5 -108.5t37 -108.5t96 -42.5q60 0 97 43
q38 44 38 108z" />
    <glyph glyph-name="uni2206" unicode="&#x2206;" horiz-adv-x="693" 
d="M424 710l257 -710h-668l256 710h155zM166 98h358l-86 247l-15 44q-68 199 -79 236q-23 -80 -49 -155q-30 -90 -36 -107q0 -1 -1.5 -4t-3 -7t-2.5 -8z" />
    <glyph glyph-name="product" unicode="&#x220f;" horiz-adv-x="720" 
d="M643 710v-820h-118v720h-330v-720h-118v820h566z" />
    <glyph glyph-name="summation" unicode="&#x2211;" horiz-adv-x="601" 
d="M545 710v-98h-355l244 -312l-247 -317h384v-98h-521v93l244 322l-242 317v93h493z" />
    <glyph glyph-name="minus" unicode="&#x2212;" horiz-adv-x="600" 
d="M560 357v-94h-520v94h520z" />
    <glyph glyph-name="radical" unicode="&#x221a;" horiz-adv-x="625" 
d="M482 710h122l-250 -710h-150l-181 502h123l137 -389z" />
    <glyph glyph-name="infinity" unicode="&#x221e;" horiz-adv-x="817" 
d="M765 290q0 -74 -49 -123.5t-120 -49.5q-101 0 -190 106q-89 -106 -185 -106q-70 0 -119 49.5t-49 123.5t50.5 124t123.5 50q97 0 186 -107q89 107 180 107q73 0 122.5 -50t49.5 -124zM354 284q-30 36 -47 53q-35 38 -80 38q-36 0 -59 -24t-23 -62t22.5 -62t56.5 -24
q63 0 130 81zM673 289q0 38 -23 62t-58 24q-63 0 -127 -82q42 -50 69 -70t61 -20t56 24t22 62z" />
    <glyph glyph-name="integral" unicode="&#x222b;" horiz-adv-x="600" 
d="M184 -195q-50 0 -100 15l20 83q35 -8 62 -8q32 0 45 17t13 56v598q0 78 41 119t117 41q50 0 105 -18l-21 -83q-39 10 -64 10q-36 0 -52 -18t-16 -59v-589q0 -164 -150 -164z" />
    <glyph glyph-name="approxequal" unicode="&#x2248;" horiz-adv-x="607" 
d="M312 449q66 -26 92 -26q27 0 47.5 10t52.5 40l52 -65q-43 -46 -75 -61q-30 -15 -73 -15q-37 0 -102 28q-68 27 -101 27q-28 0 -49 -10.5t-53 -39.5l-52 65q41 42 75 59t76 17q38 0 110 -29zM312 249q64 -26 92 -26q27 0 47.5 10t52.5 40l52 -65q-43 -46 -75 -61
q-30 -15 -73 -15q-33 0 -101 27q-65 28 -102 28q-28 0 -49 -10.5t-53 -39.5l-52 65q41 42 75 59t76 17q38 0 110 -29z" />
    <glyph glyph-name="notequal" unicode="&#x2260;" horiz-adv-x="600" 
d="M560 363h-196l-39 -106h235v-94h-270l-39 -108h-95l39 108h-155v94h190l39 106h-229v94h263l39 107h95l-39 -107h162v-94z" />
    <glyph glyph-name="lessequal" unicode="&#x2264;" horiz-adv-x="600" 
d="M540 576v-98l-356 -126l356 -126v-98l-480 180v88zM560 94v-94h-520v94h520z" />
    <glyph glyph-name="greaterequal" unicode="&#x2265;" horiz-adv-x="600" 
d="M60 576l480 -180v-88l-480 -180v98l356 126l-356 126v98zM560 94v-94h-520v94h520z" />
    <glyph glyph-name="lozenge" unicode="&#x25ca;" horiz-adv-x="613" 
d="M365 710l215 -356l-215 -354h-117l-215 354l215 356h117zM306 611l-155 -257l155 -255l155 255z" />
    <glyph glyph-name="uni2923" unicode="&#x2923;" horiz-adv-x="643" 
d="M280 677l17 -17q84 -87 121 -132q105 -123 105 -251q0 -71 -33 -138q-32 -63 -80 -121q-47 -56 -130 -142l-74 72q65 68 115 125q94 112 94 204q0 55 -27 108q-26 54 -66 101q-47 55 -112 122v-221h-90v378h378v-88h-218z" />
    <glyph glyph-name="uni2924" unicode="&#x2924;" horiz-adv-x="643" 
d="M523 387h-90v222q-76 -79 -113 -123q-92 -109 -92 -209q0 -53 27 -105q28 -54 67 -99q50 -57 115 -125l-74 -72q-91 94 -131 142q-112 134 -112 259q0 71 30 135q30 62 75 116q37 45 121 132l17 17h-218v88h378v-378z" />
    <glyph glyph-name="uni2925" unicode="&#x2925;" horiz-adv-x="643" 
d="M433 306h90v-378h-378v88h218l-17 17q-90 93 -121 131q-105 126 -105 252q0 71 33 137q33 67 79 122q40 48 131 142l74 -72q-65 -68 -115 -125q-94 -112 -94 -204q0 -55 26 -109t66 -101q40 -46 113 -122v222z" />
    <glyph glyph-name="uni2926" unicode="&#x2926;" horiz-adv-x="643" 
d="M297 33l-17 -17h218v-88h-378v378h90v-221q65 67 112 122q93 112 93 209q0 52 -27 105q-28 54 -67 99q-50 57 -115 125l74 72q83 -86 130 -142q113 -131 113 -259q0 -72 -31 -135q-29 -63 -74 -117q-31 -38 -121 -131z" />
    <glyph glyph-name="uniE000" unicode="&#xe000;" horiz-adv-x="1792" 
d="M315 0h-265v230h13q38 -101 105 -159t145 -58q60 0 95 38q35 40 35 92q0 54 -38 94q-22 22 -48.5 34.5t-86.5 31.5q-59 17 -93 33.5t-62 44.5q-58 58 -58 144q0 78 49 131.5t126 53.5h243v-197h-10q-42 72 -76 106q-77 78 -158 78q-44 0 -79 -25q-35 -26 -35 -84
q0 -54 34 -88q23 -23 53 -36.5t88 -30.5q67 -20 105.5 -38t70.5 -50q50 -48 50 -135q0 -98 -55 -154t-148 -56zM503 710h375q141 2 233.5 -105.5t90.5 -261.5q0 -65 -19.5 -125t-59 -110t-105 -79.5t-149.5 -28.5h-365v13h20q56 0 82.5 23.5t26.5 75.5v486q0 51 -26.5 75
t-82.5 24h-21v13zM1149 13h16q57 0 83.5 24t26.5 75v486q0 52 -26.5 75.5t-83.5 23.5h-17v13h384v-13h-27q-56 0 -82 -23.5t-26 -75.5v-486q0 -55 16.5 -77t58.5 -22h66q37 2 60.5 18t52.5 63t79 150h12v-244h-593v13zM1654 710v-13h-20v-54h-15v54h-20v13h55zM1742 710v-67
h-15v49l-19 -49h-11l-18 49v-49h-15v67h23l16 -45l17 45h22zM1072 329q0 185 -60 276.5t-153 91.5h-65q-23 0 -31 -9.5t-8 -36.5v-554q0 -84 107 -84q110 0 160 89q50 91 50 227z" />
    <glyph glyph-name="uniE001" unicode="&#xe001;" horiz-adv-x="1011" 
d="M505 -82q-102 0 -192 43q-121 56 -192 169.5t-71 243.5q0 101 43 191q56 121 169 192t244 71q102 0 192 -43q121 -56 192 -169.5t71 -243.5q0 -101 -43 -191q-56 -121 -169 -192t-244 -71zM946 372q0 126 -68 236t-186 165q-90 41 -186 41q-127 0 -237 -68
q-108 -67 -164 -186q-41 -90 -41 -186q0 -127 68 -237q66 -107 187 -164q90 -41 186 -41q126 0 236.5 68.5t163.5 185.5q41 90 41 186zM527 720l8 64l45 -6l-2 -15l-23 2l-1 -9l22 -3l-2 -16l-22 3l-3 -23zM430 723l-1 11l22 3l1 -4q0 -2 6 -2l5 3l-1 5q0 2 -6 2h-2
q-21 0 -27 8l-3 18q6 16 34 16q15 0 21 -9l2 -11l-23 -3v4q-2 2 -6 2q-5 -2 -5 -3v-4q2 -2 7 -2h2q23 -2 27 -8l2 -18q-4 -16 -33 -16q-14 0 -22 8zM621 700l-4 23l-5 2l-6 -20l-22 7l20 62l35 -12q13 -4 16 -16l-7 -21q-4 -3 -10 -5l4 -14l-4 -12zM402 704l-17 16l-4 -1
l6 -20l-21 -7l-21 61l35 12q2 1 8 1q9 0 14 -5l7 -20q-1 -8 -5 -11l12 -8l4 -12zM617 739l7 -3q5 0 6 1l3 8q-1 3 -5 4l-7 3zM376 733l8 3q1 0 4 3l-3 9q-3 1 -6 0l-7 -3zM314 663l-32 57l41 23l8 -14l-21 -12l4 -7l20 11l7 -14l-19 -11l4 -8l22 12l7 -14zM655 700l20 35
q4 4 12 4q9 0 19 -5q19 -10 19 -26l-20 -35q-4 -4 -12 -4t-20 5q-18 10 -18 26zM688 688l15 26q0 3 -5 5t-6 1l-15 -27q0 -3 4 -4q5 -3 7 -1zM276 633l-32 37l-11 -9l-10 12l40 33l10 -12l-11 -9l31 -38zM710 656l43 48l21 -19l-8 -22l2 -2l20 11l21 -19l-43 -48l-16 14
l22 25l-1 1l-23 -10l-7 7l8 23l-2 2l-22 -25zM505 54q-69 0 -134 30q-85 40 -135 120q-49 79 -49 170q0 70 30 134q41 86 119 135q79 49 170 49q70 0 134 -30q86 -40 135 -120q49 -77 49 -170q0 -68 -30 -134q-41 -86 -119 -135q-79 -49 -170 -49zM811 373q0 87 -48 162
q-47 75 -129 114q-64 29 -128 29q-87 0 -164 -47q-76 -47 -113 -129q-29 -64 -29 -128q0 -86 47 -163q48 -77 130 -114q64 -29 128 -29q87 0 163 47t114 129q29 66 29 129zM232 586l-38 32l-9 -12l-12 11l33 40l12 -10l-9 -12l37 -31zM799 579l9 5l12 -19l-4 -2q-1 -1 1 -6
q1 -4 4 -4l4 2q2 2 0 7l-1 2q-5 12 -5 19q0 3 2 9l15 9q14 0 25 -18q6 -7 6 -19q0 -6 -3 -11l-9 -5l-12 19l4 2q1 1 -1 6q-1 4 -4 4l-4 -2q0 -5 1 -7l1 -2q5 -17 5 -20q0 -2 -2 -8l-16 -9q-14 0 -25 18q-6 12 -6 19q0 5 3 11zM193 525l-56 32l23 41l14 -8l-12 -21l7 -4
l11 19l14 -7l-11 -20l8 -5l12 22l13 -8zM515 537q0 -8 -5 -21q-12 -23 -29 -23q-16 0 -16 21q0 8 5 21q11 23 28 23t17 -21zM827 507l47 25l12 3l6 -21l-33 -14v-2l37 3l5 -16l-32 -18v-1l36 5l6 -18l-12 -4l-53 -6l-7 26l21 12l-1 1l-24 -1zM174 475l-61 23l8 21l46 -17
l6 17l15 -5zM657 471q0 -8 -5 -21q-11 -23 -28 -23t-17 21q0 8 5 21q11 23 28 23t17 -21zM141 431q0 -5 -1 -6q-2 -7 -10 -7l-5 1q-7 4 -7 11l1 5q3 6 10 6q5 0 6 -1q6 -2 6 -9zM849 421l65 5l3 -46l-15 -2l-2 25l-8 -1l1 -23l-16 -1l-1 23l-9 -1l1 -24l-15 -2zM627 264
l-15 7q-19 -32 -52 -50.5t-69 -18.5q-33 0 -59 13q-38 18 -59.5 52.5t-21.5 74.5q0 21 8 47l-15 7q-10 -24 -10 -54q0 -45 24.5 -84t66.5 -58q31 -15 66 -15q42 0 78.5 21t57.5 58zM161 326l-65 -4l-2 20l22 7l-1 1l-21 4l-2 20l66 4l1 -15l-35 -2v-2l24 -4l1 -8l-24 -7v-1
l35 2zM853 362l64 -7l-3 -33q-3 -17 -15 -22l-40 4q-10 7 -10 22v3zM866 338l-1 -7q0 -3 2 -5l29 -3q2 0 2 5l1 7zM170 286l-64 -14l-4 16l52 12l-3 12l12 3zM844 294l61 -20l-13 -44l-15 4l7 24l-8 2l-7 -22l-15 5l7 22l-9 2l-7 -23l-15 4zM178 233l-45 -16q-12 0 -17 15
q-1 2 -1 9q0 12 5 14l44 16q12 0 17 -15l2 -9q0 -9 -5 -14zM164 254l-33 -12q-2 -2 -1 -5q2 -2 3 -2l34 12l1 4q-2 3 -4 3zM826 237l57 -30l-11 -21h-32l-1 -2l25 -13l-10 -18l-57 30l11 21h32l1 2l-25 13zM211 190l-58 -32l-8 15l22 12l-4 6l-21 -12l-8 15l57 31l8 -14
l-23 -13l3 -7l24 13zM240 149l-52 -39l-10 13l13 10v1l-19 -4l-7 11l8 6l20 2l15 24l9 7l8 -11l-12 -18l3 1l14 10zM270 106l-33 -34q-11 -4 -22 7q-8 8 -8 20l14 14l11 -11l-8 -9q-1 -1 -0.5 -3t3.5 -2h2l25 25q0 3 -1 4l-4 1l-10 -9l-11 11l15 15q10 3 20 -7q8 -10 8 -18z
M801 122q0 -3 -1 -4q-3 -7 -11 -7q-4 0 -5 1q-6 3 -6 11q0 3 1 4q4 7 10 7q4 0 5 -1q7 -3 7 -11zM730 108l39 -53l-17 -12l-17 14l-1 -1l8 -20l-16 -12l-39 53l13 9l21 -28l1 1l-9 23l6 4l18 -16l1 1l-20 28zM312 73l-27 -38q-11 -4 -23 4q-10 6 -10 17v3l28 38q8 8 22 -3
q10 -7 10 -17v-4zM290 83l-21 -29q-1 -1 1 -4q3 -2 5 0l21 29q0 2 -2 4t-4 0zM653 60l9 -14l8 4l-5 15l13 7l4 -10l17 -53l-23 -11l-32 45l-5 10zM350 63l-25 -46l9 -5l-6 -11l-32 16l6 12l9 -5l25 47zM402 34l-4 -13l-15 5l2 6q0 3 -3 3q-2 2 -4 0l-2 -7q0 -2 3 -4l1 -1
q12 -11 12 -18l-7 -19q-6 -3 -13 -3q-6 0 -8 1q-12 5 -15 16l4 12l15 -5l-2 -6q0 -3 4 -3q2 0 3 1l2 5q0 2 -3 5h-1q-12 9 -12 18l7 20q7 4 12 4q1 0 9 -2q15 -5 15 -15zM629 49l19 -63l-23 -7q-10 -4 -18 4l-14 45q0 8 12 13zM681 19l-7 19l-6 -3l11 -17zM578 34l11 -65
l-30 -5l-2 13l14 2l-3 13l-13 -2l-2 12l13 3l-2 14l-14 -3l-2 13zM483 27l-9 -65l-17 2l-5 32h-1l-4 -31l-16 2l8 65l18 -2l5 -32l1 -1l4 32zM617 31l-4 -1q-3 0 -3 -3l11 -34q3 -3 4 -1l4 1zM512 26v-65h-17v66z" />
    <glyph glyph-name="uniE002" unicode="&#xe002;" 
d="M394 3v-103h-79v100h-74v-100h-79v100h-101v680h101v100h79v-100h74v100h79v-106q65 -15 102.5 -57.5t37.5 -109.5q0 -107 -96 -148q57 -19 88 -62.5t31 -105.5q0 -77 -43.5 -127t-119.5 -61zM309 588h-131v-188h130q54 0 83.5 26t29.5 72q0 90 -112 90zM442 200
q0 51 -33.5 79.5t-95.5 28.5h-135v-216h135q129 0 129 108z" />
    <glyph glyph-name="Adieresis.ss02" horiz-adv-x="693" 
d="M557 0l-56 160h-313l-55 -160h-120l256 710h155l256 -710h-123zM222 258h245l-30 87l-23 67q-50 141 -69 208q-23 -76 -85 -253l-8 -23zM184 848q0 26 19 45t47 19q27 0 46 -19t19 -45q0 -27 -19 -46t-46 -19q-28 0 -47 19t-19 46zM377 848q0 26 19 45t46 19t46 -19
t19 -45q0 -27 -19 -46t-46 -19t-46 19t-19 46z" />
    <glyph glyph-name="Cdotaccent.ss02" horiz-adv-x="674" 
d="M647 623l-69 -82q-53 46 -96.5 64t-94.5 18q-104 0 -166 -73.5t-62 -193.5q0 -121 61.5 -195t162.5 -74q58 0 101 22q45 23 104 75l71 -80q-69 -64 -132 -92t-142 -28q-158 0 -252.5 104t-94.5 268q0 163 94.5 266.5t255.5 103.5q75 0 135 -24t124 -79zM321 846
q0 28 20 47.5t48 19.5t48 -19.5t20 -47.5t-20 -47.5t-48 -19.5t-48 19.5t-20 47.5z" />
    <glyph glyph-name="Edieresis.ss02" horiz-adv-x="620" 
d="M564 710v-100h-369v-194h344v-99h-344v-217h379v-100h-497v710h487zM163 848q0 26 19 45t47 19q27 0 46 -19t19 -45q0 -27 -19 -46t-46 -19q-28 0 -47 19t-19 46zM356 848q0 26 19 45t46 19t46 -19t19 -45q0 -27 -19 -46t-46 -19t-46 19t-19 46z" />
    <glyph glyph-name="Edotaccent.ss02" horiz-adv-x="620" 
d="M564 710v-100h-369v-194h344v-99h-344v-217h379v-100h-497v710h487zM256 846q0 28 20 47.5t48 19.5t48 -19.5t20 -47.5t-20 -47.5t-48 -19.5t-48 19.5t-20 47.5z" />
    <glyph glyph-name="uni0122.ss02" horiz-adv-x="749" 
d="M364 284v100h322v-384h-91l-7 78q-64 -93 -212 -93q-157 0 -247.5 102t-90.5 269q0 162 96 265.5t256 103.5q90 0 158.5 -31t137.5 -102l-74 -77q-62 59 -112 83q-49 24 -112 24q-104 0 -166.5 -72t-62.5 -195q0 -125 60.5 -196t165.5 -71q88 0 140.5 48t52.5 129v19
h-214zM450 -138q0 -54 -34.5 -86.5t-91.5 -32.5v41q24 2 44.5 15t26.5 33q-14 -2 -17 -2q-63 0 -63 53q0 25 18 41t45 16q31 0 51.5 -21.5t20.5 -56.5z" />
    <glyph glyph-name="Gdotaccent.ss02" horiz-adv-x="749" 
d="M364 284v100h322v-384h-91l-7 78q-64 -93 -212 -93q-157 0 -247.5 102t-90.5 269q0 162 96 265.5t256 103.5q90 0 158.5 -31t137.5 -102l-74 -77q-62 59 -112 83q-49 24 -112 24q-104 0 -166.5 -72t-62.5 -195q0 -125 60.5 -196t165.5 -71q88 0 140.5 48t52.5 129v19
h-214zM318 846q0 28 20 47.5t48 19.5t48 -19.5t20 -47.5t-20 -47.5t-48 -19.5t-48 19.5t-20 47.5z" />
    <glyph glyph-name="Idieresis.ss02" horiz-adv-x="286" 
d="M202 710v-710h-118v710h118zM-18 848q0 26 19 45t47 19q27 0 46 -19t19 -45q0 -27 -19 -46t-46 -19q-28 0 -47 19t-19 46zM175 848q0 26 19 45t46 19t46 -19t19 -45q0 -27 -19 -46t-46 -19t-46 19t-19 46z" />
    <glyph glyph-name="Idotaccent.ss02" horiz-adv-x="286" 
d="M202 710v-710h-118v710h118zM75 846q0 28 20 47.5t48 19.5t48 -19.5t20 -47.5t-20 -47.5t-48 -19.5t-48 19.5t-20 47.5z" />
    <glyph glyph-name="K.ss01" horiz-adv-x="679" 
d="M540 0l-224 346l-121 -115v-231h-118v710h118v-339l368 355l74 -75l-238 -226l275 -425h-134z" />
    <glyph glyph-name="uni0136.ss01" horiz-adv-x="679" 
d="M540 0l-224 346l-121 -115v-231h-118v710h118v-339l368 355l74 -75l-238 -226l275 -425h-134zM425 -66v-97l-65 -93h-59l60 93h-56v97h120z" />
    <glyph glyph-name="uni0136.ss01.ss02" horiz-adv-x="679" 
d="M540 0l-224 346l-121 -115v-231h-118v710h118v-339l368 355l74 -75l-238 -226l275 -425h-134zM433 -138q0 -54 -34.5 -86.5t-91.5 -32.5v41q24 2 44.5 15t26.5 33q-14 -2 -17 -2q-63 0 -63 53q0 25 18 41t45 16q31 0 51.5 -21.5t20.5 -56.5z" />
    <glyph glyph-name="uni0136.ss02" horiz-adv-x="679" 
d="M540 0l-226 350l-119 -123v-227h-118v710h118v-339l317 339h147l-266 -276l281 -434h-134zM423 -138q0 -54 -34.5 -86.5t-91.5 -32.5v41q24 2 44.5 15t26.5 33q-14 -2 -17 -2q-63 0 -63 53q0 25 18 41t45 16q31 0 51.5 -21.5t20.5 -56.5z" />
    <glyph glyph-name="uni013B.ss02" horiz-adv-x="560" 
d="M195 710v-609h337v-101h-455v710h118zM376 -138q0 -54 -34.5 -86.5t-91.5 -32.5v41q24 2 44.5 15t26.5 33q-14 -2 -17 -2q-63 0 -63 53q0 25 18 41t45 16q31 0 51.5 -21.5t20.5 -56.5z" />
    <glyph glyph-name="Ldot.ss02" horiz-adv-x="546" 
d="M195 710v-609h337v-101h-455v710h118zM307 370q0 31 22.5 53t53.5 22t53 -22t22 -53t-22 -53t-53 -22t-53.5 22t-22.5 53z" />
    <glyph glyph-name="uni0145.ss02" horiz-adv-x="739" 
d="M547 710h115v-710h-128l-193 304q-112 174 -154 250q5 -117 5 -275v-279h-115v710h130l201 -316l19 -30q99 -159 125 -206q-5 112 -5 264v288zM441 -138q0 -54 -34.5 -86.5t-91.5 -32.5v41q24 2 44.5 15t26.5 33q-14 -2 -17 -2q-63 0 -63 53q0 25 18 41t45 16
q31 0 51.5 -21.5t20.5 -56.5z" />
    <glyph glyph-name="Odieresis.ss02" horiz-adv-x="765" 
d="M727 355q2 -161 -93.5 -267t-250.5 -104q-156 0 -250.5 104.5t-94.5 266.5t94.5 266.5t250.5 104.5q155 2 250.5 -104t93.5 -267zM159 355q0 -119 62 -193t162 -74q101 0 162 73.5t61 193.5t-61 193.5t-162 73.5q-100 0 -162 -74t-62 -193zM222 848q0 26 19 45t47 19
q27 0 46 -19t19 -45q0 -27 -19 -46t-46 -19q-28 0 -47 19t-19 46zM415 848q0 26 19 45t46 19t46 -19t19 -45q0 -27 -19 -46t-46 -19t-46 19t-19 46z" />
    <glyph glyph-name="uni0156.ss02" horiz-adv-x="682" 
d="M654 0h-133l-178 273h-148v-273h-118v710h319q102 0 167 -60.5t65 -158.5q0 -79 -43.5 -135t-117.5 -74zM195 612v-241h180q64 0 100 31.5t36 88.5t-36.5 89t-99.5 32h-180zM410 -138q0 -54 -34.5 -86.5t-91.5 -32.5v41q24 2 44.5 15t26.5 33q-14 -2 -17 -2q-63 0 -63 53
q0 25 18 41t45 16q31 0 51.5 -21.5t20.5 -56.5z" />
    <glyph glyph-name="uni0218.ss02" horiz-adv-x="638" 
d="M591 618l-69 -82q-61 50 -105 68q-44 19 -105 19q-65 0 -104.5 -28t-39.5 -71q0 -32 18 -50q20 -18 54 -30q40 -13 110 -29q141 -35 194 -76.5t56 -129.5q0 -100 -75 -162.5t-197 -62.5q-90 0 -160 29q-67 28 -148 98l71 83q75 -64 124 -85q51 -22 115 -22q69 0 111 30.5
t42 83.5q0 37 -22 56q-23 20 -55 30q-40 13 -112 29q-139 33 -191 76.5t-52 127.5q0 89 75 147.5t188 58.5q85 0 147 -25q64 -26 130 -83zM386 -138q0 -54 -34.5 -86.5t-91.5 -32.5v41q24 2 44.5 15t26.5 33q-14 -2 -17 -2q-63 0 -63 53q0 25 18 41t45 16q31 0 51.5 -21.5
t20.5 -56.5z" />
    <glyph glyph-name="uni021A.ss02" horiz-adv-x="613" 
d="M585 710v-101h-219v-609h-119v609h-218v101h556zM376 -138q0 -54 -34.5 -86.5t-91.5 -32.5v41q24 2 44.5 15t26.5 33q-14 -2 -17 -2q-63 0 -63 53q0 25 18 41t45 16q31 0 51.5 -21.5t20.5 -56.5z" />
    <glyph glyph-name="Udieresis.ss02" horiz-adv-x="698" 
d="M626 710v-476q0 -124 -71 -187t-206 -63t-206 63t-71 187v476h118v-471q0 -73 40.5 -112t118.5 -39t118.5 39t40.5 112v471h118zM188 848q0 26 19 45t47 19q27 0 46 -19t19 -45q0 -27 -19 -46t-46 -19q-28 0 -47 19t-19 46zM381 848q0 26 19 45t46 19t46 -19t19 -45
q0 -27 -19 -46t-46 -19t-46 19t-19 46z" />
    <glyph glyph-name="Wdieresis.ss02" horiz-adv-x="956" 
d="M812 710h116l-171 -710h-139l-78 298q-34 129 -61 254q-30 -135 -61 -255l-78 -297h-140l-172 710h120l75 -322q19 -79 53 -253q40 174 61 253l86 322h117l84 -322q34 -136 60 -255q34 177 52 255zM317 848q0 26 19 45t47 19q27 0 46 -19t19 -45q0 -27 -19 -46t-46 -19
q-28 0 -47 19t-19 46zM510 848q0 26 19 45t46 19t46 -19t19 -45q0 -27 -19 -46t-46 -19t-46 19t-19 46z" />
    <glyph glyph-name="Ydieresis.ss02" horiz-adv-x="642" 
d="M504 710h127l-251 -410v-300h-119v301l-250 409h131l181 -305zM160 848q0 26 19 45t47 19q27 0 46 -19t19 -45q0 -27 -19 -46t-46 -19q-28 0 -47 19t-19 46zM353 848q0 26 19 45t46 19t46 -19t19 -45q0 -27 -19 -46t-46 -19t-46 19t-19 46z" />
    <glyph glyph-name="Zdotaccent.ss02" horiz-adv-x="633" 
d="M590 710v-96l-405 -514h404v-100h-546v96l405 514h-389v100h531zM261 846q0 28 20 47.5t48 19.5t48 -19.5t20 -47.5t-20 -47.5t-48 -19.5t-48 19.5t-20 47.5z" />
    <glyph glyph-name="adieresis.ss02" horiz-adv-x="547" 
d="M486 343v-343h-99v57q-50 -73 -166 -73q-81 0 -130.5 36t-49.5 106q0 79 59 117q61 40 166 59l115 21v18q0 41 -28 63.5t-76 22.5q-46 0 -80.5 -18.5t-80.5 -64.5l-69 64q92 110 227 110q101 0 156.5 -47t55.5 -128zM381 197v46l-87 -18q-79 -17 -112 -36.5t-33 -56.5
q0 -28 23.5 -44t64.5 -16q63 0 103.5 33.5t40.5 91.5zM118 647q0 26 19 45t47 19q27 0 46 -19t19 -45q0 -27 -19 -46t-46 -19q-28 0 -47 19t-19 46zM311 647q0 26 19 45t46 19t46 -19t19 -45q0 -27 -19 -46t-46 -19t-46 19t-19 46z" />
    <glyph glyph-name="cdotaccent.ss02" horiz-adv-x="516" 
d="M286 425q-67 0 -104 -51q-36 -50 -36 -123t36 -123q37 -49 104 -49q38 0 69.5 17.5t72.5 62.5l73 -61q-49 -62 -99 -87.5t-117 -25.5q-113 0 -182 72.5t-69 193.5t70 194t182 73q63 0 111 -22t96 -73l-70 -68q-40 40 -70.5 55t-66.5 15zM214 645q0 28 20 47.5t48 19.5
t48 -19.5t20 -47.5t-20 -47.5t-48 -19.5t-48 19.5t-20 47.5z" />
    <glyph glyph-name="edieresis.ss02" horiz-adv-x="549" 
d="M449 153l64 -67q-53 -54 -105.5 -77.5t-116.5 -23.5q-119 0 -188 71.5t-69 191.5q0 119 67.5 194.5t179.5 75.5q110 0 170.5 -65.5t60.5 -181.5q0 -19 -2 -45h-368q6 -68 45 -108t106 -40q43 0 75 16t81 59zM145 306h259q-3 58 -36 91.5t-90 33.5q-53 0 -87.5 -32.5
t-45.5 -92.5zM129 647q0 26 19 45t47 19q27 0 46 -19t19 -45q0 -27 -19 -46t-46 -19q-28 0 -47 19t-19 46zM322 647q0 26 19 45t46 19t46 -19t19 -45q0 -27 -19 -46t-46 -19t-46 19t-19 46z" />
    <glyph glyph-name="edotaccent.ss02" horiz-adv-x="549" 
d="M449 153l64 -67q-53 -54 -105.5 -77.5t-116.5 -23.5q-119 0 -188 71.5t-69 191.5q0 119 67.5 194.5t179.5 75.5q110 0 170.5 -65.5t60.5 -181.5q0 -19 -2 -45h-368q6 -68 45 -108t106 -40q43 0 75 16t81 59zM145 306h259q-3 58 -36 91.5t-90 33.5q-53 0 -87.5 -32.5
t-45.5 -92.5zM223 645q0 28 20 47.5t48 19.5t48 -19.5t20 -47.5t-20 -47.5t-48 -19.5t-48 19.5t-20 47.5z" />
    <glyph glyph-name="uni0123.ss02" horiz-adv-x="579" 
d="M415 502h102v-483q0 -102 -66 -157q-65 -56 -172 -56q-125 0 -234 73l54 80q56 -34 95.5 -48t83.5 -14q61 0 96 33t35 98v52q-53 -71 -153 -71q-96 0 -158 71.5t-62 183.5q0 111 62 182.5t158 71.5q107 0 159 -79v63zM412 264q0 71 -37 115.5t-96 44.5q-60 0 -96 -44
t-36 -116q0 -73 36 -117.5t96 -44.5q59 0 96 45t37 117zM358 635q0 -25 -18 -41t-45 -16q-31 0 -51.5 21.5t-20.5 56.5q0 54 34.5 86.5t92.5 32.5v-41q-59 -6 -72 -47q14 2 17 2q63 0 63 -54z" />
    <glyph glyph-name="gdotaccent.ss02" horiz-adv-x="579" 
d="M415 502h102v-483q0 -102 -66 -157q-65 -56 -172 -56q-125 0 -234 73l54 80q56 -34 95.5 -48t83.5 -14q61 0 96 33t35 98v52q-53 -71 -153 -71q-96 0 -158 71.5t-62 183.5q0 111 62 182.5t158 71.5q107 0 159 -79v63zM412 264q0 71 -37 115.5t-96 44.5q-60 0 -96 -44
t-36 -116q0 -73 36 -117.5t96 -44.5q59 0 96 45t37 117zM223 645q0 28 20 47.5t48 19.5t48 -19.5t20 -47.5t-20 -47.5t-48 -19.5t-48 19.5t-20 47.5z" />
    <glyph glyph-name="i.ss02" horiz-adv-x="233" 
d="M172 502v-502h-110v502h110zM49 645q0 28 20 47.5t48 19.5t48 -19.5t20 -47.5t-20 -47.5t-48 -19.5t-48 19.5t-20 47.5z" />
    <glyph glyph-name="idieresis.ss02" horiz-adv-x="233" 
d="M172 502v-502h-110v502h110zM-44 647q0 26 19 45t47 19q27 0 46 -19t19 -45q0 -27 -19 -46t-46 -19q-28 0 -47 19t-19 46zM149 647q0 26 19 45t46 19t46 -19t19 -45q0 -27 -19 -46t-46 -19t-46 19t-19 46z" />
    <glyph glyph-name="i.loclTRK" horiz-adv-x="233" 
d="M172 502v-502h-110v502h110zM172 702v-113h-110v113h110z" />
    <glyph glyph-name="i.loclTRK.ss02" horiz-adv-x="233" 
d="M172 502v-502h-110v502h110zM49 645q0 28 20 47.5t48 19.5t48 -19.5t20 -47.5t-20 -47.5t-48 -19.5t-48 19.5t-20 47.5z" />
    <glyph glyph-name="ij.ss02" horiz-adv-x="470" 
d="M172 502v-502h-110v502h110zM49 645q0 28 20 47.5t48 19.5t48 -19.5t20 -47.5t-20 -47.5t-48 -19.5t-48 19.5t-20 47.5zM240 -102q32 0 45 17t13 56v531h110v-530q0 -163 -150 -163q-55 0 -100 15l20 82q43 -8 62 -8zM286 645q0 28 20 47.5t48 19.5t48 -19.5t20 -47.5
t-20 -47.5t-48 -19.5t-48 19.5t-20 47.5z" />
    <glyph glyph-name="iogonek.ss02" horiz-adv-x="233" 
d="M49 645q0 28 20 47.5t48 19.5t48 -19.5t20 -47.5t-20 -47.5t-48 -19.5t-48 19.5t-20 47.5zM62 0v502h110v-502q-84 -54 -84 -106q0 -39 50 -39q16 0 28 4v-66q-15 -7 -44 -7q-53 0 -82 23.5t-29 65.5q0 66 71 125h-20z" />
    <glyph glyph-name="j.calt" horiz-adv-x="235" 
d="M64 589v113h110v-113h-110zM-24 -186l12 85q22 -2 30 -2q25 0 35.5 13t10.5 44v548h110v-555q0 -72 -31.5 -105t-102.5 -33q-34 0 -64 5z" />
    <glyph glyph-name="j.calt.ss02" horiz-adv-x="237" 
d="M52 645q0 28 20 47.5t48 19.5t48 -19.5t20 -47.5t-20 -47.5t-48 -19.5t-48 19.5t-20 47.5zM-24 -186l12 85q22 -2 30 -2q25 0 35.5 13t10.5 44v548h110v-555q0 -72 -31.5 -105t-102.5 -33q-36 0 -64 5z" />
    <glyph glyph-name="j.ss02" horiz-adv-x="237" 
d="M7 -102q32 0 45 17t13 56v531h110v-530q0 -163 -150 -163q-55 0 -100 15l20 82q43 -8 62 -8zM53 645q0 28 20 47.5t48 19.5t48 -19.5t20 -47.5t-20 -47.5t-48 -19.5t-48 19.5t-20 47.5z" />
    <glyph glyph-name="k.ss01" horiz-adv-x="530" 
d="M406 0l-142 221l-90 -84v-137h-112v710h112v-449l268 253l64 -68l-166 -154l187 -292h-121z" />
    <glyph glyph-name="uni0137.ss01" horiz-adv-x="530" 
d="M406 0l-142 221l-90 -84v-137h-112v710h112v-449l268 253l64 -68l-166 -154l187 -292h-121zM346 -66v-97l-65 -93h-59l60 93h-56v97h120z" />
    <glyph glyph-name="uni0137.ss01.ss02" horiz-adv-x="530" 
d="M406 0l-142 221l-90 -84v-137h-112v710h112v-449l268 253l64 -68l-166 -154l187 -292h-121zM354 -138q0 -54 -34.5 -86.5t-91.5 -32.5v41q24 2 44.5 15t26.5 33q-14 -2 -17 -2q-63 0 -63 53q0 25 18 41t45 16q31 0 51.5 -21.5t20.5 -56.5z" />
    <glyph glyph-name="uni0137.ss02" horiz-adv-x="531" 
d="M405 0l-153 240l-80 -81v-159h-110v710h110v-430l211 222h132l-187 -192l200 -310h-123zM351 -138q0 -54 -34.5 -86.5t-91.5 -32.5v41q24 2 44.5 15t26.5 33q-14 -2 -17 -2q-63 0 -63 53q0 25 18 41t45 16q31 0 51.5 -21.5t20.5 -56.5z" />
    <glyph glyph-name="uni013C.ss02" horiz-adv-x="238" 
d="M174 710v-710h-110v710h110zM187 -138q0 -54 -34.5 -86.5t-91.5 -32.5v41q24 2 44.5 15t26.5 33q-14 -2 -17 -2q-63 0 -63 53q0 25 18 41t45 16q31 0 51.5 -21.5t20.5 -56.5z" />
    <glyph glyph-name="ldot.ss02" horiz-adv-x="464" 
d="M174 710v-710h-110v710h110zM271 318q0 31 22.5 53t53.5 22t53 -22t22 -53t-22 -53t-53 -22t-53.5 22t-22.5 53z" />
    <glyph glyph-name="uni0146.ss02" horiz-adv-x="560" 
d="M499 344v-344h-110v310q0 55 -27 84.5t-77 29.5q-49 0 -81 -33t-32 -84v-307h-110v502h102v-61q50 77 155 77q85 0 132.5 -47.5t47.5 -126.5zM345 -138q0 -54 -34.5 -86.5t-91.5 -32.5v41q24 2 44.5 15t26.5 33q-14 -2 -17 -2q-63 0 -63 53q0 25 18 41t45 16
q31 0 51.5 -21.5t20.5 -56.5z" />
    <glyph glyph-name="odieresis.ss02" horiz-adv-x="579" 
d="M545 251q0 -117 -71.5 -191.5t-183.5 -74.5q-113 0 -184.5 74t-71.5 192q0 119 71.5 193t184.5 74q112 0 183.5 -74.5t71.5 -192.5zM146 251q0 -78 39 -125.5t105 -47.5q64 0 103.5 47.5t39.5 125.5q0 79 -39 126.5t-104 47.5q-66 0 -105 -47.5t-39 -126.5zM126 647
q0 26 19 45t47 19q27 0 46 -19t19 -45q0 -27 -19 -46t-46 -19q-28 0 -47 19t-19 46zM319 647q0 26 19 45t46 19t46 -19t19 -45q0 -27 -19 -46t-46 -19t-46 19t-19 46z" />
    <glyph glyph-name="uni0157.ss02" horiz-adv-x="379" 
d="M369 494l-20 -95q-36 10 -64 10q-52 0 -82.5 -40.5t-30.5 -111.5v-257h-110v502h102v-75q40 82 126 82q30 0 79 -15zM184 -138q0 -54 -34.5 -86.5t-91.5 -32.5v41q24 2 44.5 15t26.5 33q-14 -2 -17 -2q-63 0 -63 53q0 25 18 41t45 16q31 0 51.5 -21.5t20.5 -56.5z" />
    <glyph glyph-name="uni0219.ss02" horiz-adv-x="495" 
d="M457 442l-60 -73q-45 35 -78.5 47.5t-75.5 12.5q-44 0 -70 -17t-26 -44q0 -18 12 -29q18 -14 113 -36q107 -24 150 -57.5t43 -99.5q0 -72 -57 -116.5t-152 -44.5q-70 0 -124 21t-114 73l64 72q52 -43 92 -61q36 -16 84 -16q43 0 71 17.5t28 47.5q-4 34 -28.5 46
t-102.5 29q-107 24 -145.5 55t-38.5 95q0 67 55.5 110.5t147.5 43.5q64 0 112.5 -17t99.5 -59zM312 -138q0 -54 -34.5 -86.5t-91.5 -32.5v41q24 2 44.5 15t26.5 33q-14 -2 -17 -2q-63 0 -63 53q0 25 18 41t45 16q31 0 51.5 -21.5t20.5 -56.5z" />
    <glyph glyph-name="uni021B.ss02" horiz-adv-x="373" 
d="M340 95l14 -87q-54 -19 -108 -19q-72 0 -104.5 33t-32.5 102v295h-91v83h91v162h110v-162h127v-83h-127v-282q0 -29 13 -41t41 -12q25 0 67 11zM300 -138q0 -54 -34.5 -86.5t-91.5 -32.5v41q24 2 44.5 15t26.5 33q-14 -2 -17 -2q-63 0 -63 53q0 25 18 41t45 16
q31 0 51.5 -21.5t20.5 -56.5z" />
    <glyph glyph-name="udieresis.ss02" horiz-adv-x="552" 
d="M380 502h110v-502h-101v58q-45 -73 -149 -73q-88 0 -133.5 43t-45.5 118v356h110v-326q0 -46 24 -71t69 -25q53 0 84.5 31t31.5 87v304zM108 647q0 26 19 45t47 19q27 0 46 -19t19 -45q0 -27 -19 -46t-46 -19q-28 0 -47 19t-19 46zM301 647q0 26 19 45t46 19t46 -19
t19 -45q0 -27 -19 -46t-46 -19t-46 19t-19 46z" />
    <glyph glyph-name="wdieresis.ss02" horiz-adv-x="766" 
d="M636 502h113l-140 -502h-132l-41 147q-31 112 -54 218l-6 -27l-19 -78q-18 -76 -28 -113l-40 -147h-131l-141 502h116l44 -175q29 -113 52 -228q36 151 56 228l47 175h103l48 -175q31 -115 56 -230q25 124 52 230zM223 647q0 26 19 45t47 19q27 0 46 -19t19 -45
q0 -27 -19 -46t-46 -19q-28 0 -47 19t-19 46zM416 647q0 26 19 45t46 19t46 -19t19 -45q0 -27 -19 -46t-46 -19t-46 19t-19 46z" />
    <glyph glyph-name="ydieresis.ss02" horiz-adv-x="504" 
d="M379 502h112l-197 -564q-24 -72 -61 -102t-103 -30q-46 0 -88 11l18 83q36 -6 57 -6q30 0 50 16t32 55l3 9l-189 528h116l49 -147q51 -151 77 -236q42 138 75 237zM91 647q0 26 19 45t47 19q27 0 46 -19t19 -45q0 -27 -19 -46t-46 -19q-28 0 -47 19t-19 46zM284 647
q0 26 19 45t46 19t46 -19t19 -45q0 -27 -19 -46t-46 -19t-46 19t-19 46z" />
    <glyph glyph-name="zdotaccent.ss02" horiz-adv-x="489" 
d="M447 502v-82l-275 -330h275v-90h-411v83l275 330h-258v89h394zM176 645q0 28 20 47.5t48 19.5t48 -19.5t20 -47.5t-20 -47.5t-48 -19.5t-48 19.5t-20 47.5z" />
    <glyph glyph-name="f_f_i.liga.ss02" horiz-adv-x="915" 
d="M217 554v-52h97v-83h-97v-419h-110v419h-89v83h89v60q0 79 40.5 119.5t117.5 40.5q55 0 104 -18l-20 -83q-34 10 -64 10q-36 0 -52 -18t-16 -59zM551 554v-52h116v-83h-116v-419h-110v419h-81v83h81v60q0 160 152 160q43 0 86 -12l-14 -85q-32 5 -49 5q-37 0 -51 -17
t-14 -59zM731 644q0 28 19.5 47t48.5 19q28 0 47.5 -19t19.5 -47q0 -29 -19.5 -48.5t-47.5 -19.5q-29 0 -48.5 19.5t-19.5 48.5zM744 0v502h110v-502h-110z" />
    <glyph glyph-name="f_f_j.liga.ss02" horiz-adv-x="915" 
d="M217 554v-52h97v-83h-97v-419h-110v419h-89v83h89v60q0 79 40.5 119.5t117.5 40.5q55 0 104 -18l-20 -83q-34 10 -64 10q-36 0 -52 -18t-16 -59zM667 419h-116v-419h-110v419h-81v83h81v60q0 160 152 160q43 0 86 -12l-14 -85q-32 5 -49 5q-37 0 -51 -17t-14 -59v-52h116
v-83zM731 644q0 28 19.5 47t48.5 19q28 0 47.5 -19t19.5 -47q0 -29 -19.5 -48.5t-47.5 -19.5q-29 0 -48.5 19.5t-19.5 48.5zM744 -29v531h110v-530q0 -163 -150 -163q-54 0 -101 15l20 82q43 -8 62 -8q32 0 45.5 17t13.5 56z" />
    <glyph glyph-name="f_j.liga.ss02" horiz-adv-x="582" 
d="M334 419h-117v-419h-110v419h-89v83h89v60q0 79 39 119.5t114 40.5q42 0 85 -12l-14 -85q-32 5 -48 5q-38 0 -52 -16.5t-14 -59.5v-52h117v-83zM397 644q0 28 19.5 47t48.5 19t48.5 -19t19.5 -47t-19.5 -48t-48.5 -20q-28 0 -48 20t-20 48zM410 -29v531h110v-530
q0 -163 -150 -163q-55 0 -100 15l20 82q43 -8 62 -8q32 0 45 17t13 56z" />
    <glyph glyph-name="fi.ss02" horiz-adv-x="581" 
d="M217 554v-52h117v-83h-117v-419h-110v419h-89v83h89v60q0 79 39 119.5t114 40.5q42 0 85 -12l-14 -85q-32 5 -48 5q-38 0 -52 -16.5t-14 -59.5zM397 644q0 28 19.5 47t48.5 19t48.5 -19t19.5 -47t-19.5 -48t-48.5 -20q-28 0 -48 20t-20 48zM410 0v502h110v-502h-110z" />
    <glyph glyph-name="uni0401.ss02" horiz-adv-x="620" 
d="M564 710v-100h-369v-194h344v-99h-344v-217h379v-100h-497v710h487zM163 848q0 26 19 45t47 19q27 0 46 -19t19 -45q0 -27 -19 -46t-46 -19q-28 0 -47 19t-19 46zM356 848q0 26 19 45t46 19t46 -19t19 -45q0 -27 -19 -46t-46 -19t-46 19t-19 46z" />
    <glyph glyph-name="uni0407.ss02" horiz-adv-x="286" 
d="M202 710v-710h-118v710h118zM-18 848q0 26 19 45t47 19q27 0 46 -19t19 -45q0 -27 -19 -46t-46 -19q-28 0 -47 19t-19 46zM175 848q0 26 19 45t46 19t46 -19t19 -45q0 -27 -19 -46t-46 -19t-46 19t-19 46z" />
    <glyph glyph-name="uni0451.ss02" horiz-adv-x="549" 
d="M449 153l64 -67q-53 -54 -105.5 -77.5t-116.5 -23.5q-119 0 -188 71.5t-69 191.5q0 119 67.5 194.5t179.5 75.5q110 0 170.5 -65.5t60.5 -181.5q0 -19 -2 -45h-368q6 -68 45 -108t106 -40q43 0 75 16t81 59zM145 306h259q-3 58 -36 91.5t-90 33.5q-53 0 -87.5 -32.5
t-45.5 -92.5zM129 647q0 26 19 45t47 19q27 0 46 -19t19 -45q0 -27 -19 -46t-46 -19q-28 0 -47 19t-19 46zM322 647q0 26 19 45t46 19t46 -19t19 -45q0 -27 -19 -46t-46 -19t-46 19t-19 46z" />
    <glyph glyph-name="uni0456.ss02" horiz-adv-x="233" 
d="M172 502v-502h-110v502h110zM49 645q0 28 20 47.5t48 19.5t48 -19.5t20 -47.5t-20 -47.5t-48 -19.5t-48 19.5t-20 47.5z" />
    <glyph glyph-name="uni0457.ss02" horiz-adv-x="233" 
d="M172 502v-502h-110v502h110zM-44 647q0 26 19 45t47 19q27 0 46 -19t19 -45q0 -27 -19 -46t-46 -19q-28 0 -47 19t-19 46zM149 647q0 26 19 45t46 19t46 -19t19 -45q0 -27 -19 -46t-46 -19t-46 19t-19 46z" />
    <glyph glyph-name="uni0458.ss02" horiz-adv-x="237" 
d="M7 -102q32 0 45 17t13 56v531h110v-530q0 -163 -150 -163q-55 0 -100 15l20 82q43 -8 62 -8zM53 645q0 28 20 47.5t48 19.5t48 -19.5t20 -47.5t-20 -47.5t-48 -19.5t-48 19.5t-20 47.5z" />
    <glyph glyph-name="Iotadieresis.ss02" horiz-adv-x="286" 
d="M202 710v-710h-118v710h118zM-18 848q0 26 19 45t47 19q27 0 46 -19t19 -45q0 -27 -19 -46t-46 -19q-28 0 -47 19t-19 46zM175 848q0 26 19 45t46 19t46 -19t19 -45q0 -27 -19 -46t-46 -19t-46 19t-19 46z" />
    <glyph glyph-name="Upsilondieresis.ss02" horiz-adv-x="642" 
d="M504 710h127l-251 -410v-300h-119v301l-250 409h131l181 -305zM160 848q0 26 19 45t47 19q27 0 46 -19t19 -45q0 -27 -19 -46t-46 -19q-28 0 -47 19t-19 46zM353 848q0 26 19 45t46 19t46 -19t19 -45q0 -27 -19 -46t-46 -19t-46 19t-19 46z" />
    <glyph glyph-name="iotadieresis.ss02" horiz-adv-x="234" 
d="M172 0h-110v502h110v-502zM-44 647q0 26 19 45t47 19q27 0 46 -19t19 -45q0 -27 -19 -46t-46 -19q-28 0 -47 19t-19 46zM149 647q0 26 19 45t46 19t46 -19t19 -45q0 -27 -19 -46t-46 -19t-46 19t-19 46z" />
    <glyph glyph-name="iotadieresistonos.ss02" horiz-adv-x="234" 
d="M172 0h-110v502h110v-502zM70 587l21 135h111l-51 -135h-81zM-62 641q0 24 17 40t41 16q25 0 42 -16t17 -40t-17 -40t-42 -16q-24 0 -41 16t-17 40zM199 641q0 24 17 40t42 16q24 0 41 -16t17 -40t-17 -40t-41 -16q-25 0 -42 16t-17 40z" />
    <glyph glyph-name="upsilondieresistonos.ss02" horiz-adv-x="549" 
d="M60 194v308h110v-301q0 -61 24 -92t79 -31q56 0 81 31t25 92v301h110v-308q0 -100 -54 -154.5t-161 -54.5q-106 0 -160 54.5t-54 154.5zM228 587l21 135h111l-51 -135h-81zM96 641q0 24 17 40t41 16q25 0 42 -16t17 -40t-17 -40t-42 -16q-24 0 -41 16t-17 40zM357 641
q0 24 17 40t42 16q24 0 41 -16t17 -40t-17 -40t-41 -16q-25 0 -42 16t-17 40z" />
    <glyph glyph-name="zero.case" horiz-adv-x="600" 
d="M517 593q48 -96 48 -238q0 -141 -48 -237q-68 -134 -217 -134t-217 134q-48 96 -48 237q0 142 48 238q67 133 217 133t217 -133zM183 546q-33 -72 -33 -191q0 -118 33 -190q37 -84 117 -84t117 84q33 72 33 190q0 119 -33 191q-38 83 -117 83t-117 -83z" />
    <glyph glyph-name="zero.pcnt" horiz-adv-x="429" 
d="M376 528q0 -72 -46.5 -118t-115.5 -46t-115 46t-46 118q0 70 46 116.5t115 46.5q68 0 115 -46.5t47 -116.5zM132 528q0 -43 22 -69t60 -26t60.5 26.5t22.5 68.5t-22.5 68t-60.5 26q-37 0 -59.5 -26.5t-22.5 -67.5z" />
    <glyph glyph-name="zero.tf" 
d="M508 568q47 -92 47 -228t-47 -228q-68 -128 -213 -128t-213 128q-47 92 -47 228t47 228q68 128 213 128t213 -128zM182 521q-32 -70 -32 -181t32 -181q36 -78 113 -78t113 78q32 70 32 181t-32 181q-36 78 -113 78t-113 -78z" />
    <glyph glyph-name="zero.zero" 
d="M555 340q0 -136 -47 -228q-68 -128 -213 -128t-213 128q-47 92 -47 228t47 228q68 128 213 128t213 -128q47 -92 47 -228zM150 340q0 -78 16 -138l216 360q-34 37 -87 37q-77 0 -113 -78q-32 -70 -32 -181zM440 340q0 83 -18 143l-216 -362q33 -40 89 -40q77 0 113 78
q32 70 32 181z" />
    <glyph glyph-name="one.case" horiz-adv-x="469" 
d="M246 710h88v-710h-114v568l-139 -96l-56 78z" />
    <glyph glyph-name="one.tf" 
d="M383 88h161v-88h-444v88h169v451l-136 -95l-56 77l218 159h88v-592z" />
    <glyph glyph-name="two.case" horiz-adv-x="595" 
d="M157 95h393v-95h-509v44q0 74 27 125q26 49 68 85q37 32 110 76l53 31q54 31 76 48q62 43 62 110q0 50 -34.5 79.5t-88.5 29.5q-53 0 -94 -29t-96 -97l-84 59q60 86 125 125t146 39q109 0 174 -58t65 -146q0 -61 -24 -103t-61 -70q-36 -28 -102 -66l-47 -28
q-48 -28 -85 -53q-63 -43 -74 -106z" />
    <glyph glyph-name="two.tf" 
d="M312 242l-22 -13q-30 -18 -67 -43q-54 -39 -65 -91h381v-95h-498v44q0 71 27 119q26 48 66 80q41 33 109 75l49 28q48 28 74 46q60 43 60 105q0 47 -32 74.5t-83 27.5t-92.5 -27t-93.5 -92l-83 60q55 79 119 117.5t147 38.5q106 0 169 -56.5t63 -140.5q0 -59 -24 -100
q-22 -39 -59 -67q-35 -26 -100 -64q-10 -5 -45 -26z" />
    <glyph glyph-name="three.case" horiz-adv-x="587" 
d="M543 217q0 -93 -69.5 -163t-186.5 -70q-71 0 -133 21t-132 69l55 81q65 -40 111 -57t96 -17q66 0 105.5 37t39.5 98q0 60 -40.5 93.5t-112.5 33.5q-51 0 -84 -13l-51 69l241 216h-324v95h461v-93l-211 -189h2q102 0 167.5 -56.5t65.5 -154.5z" />
    <glyph glyph-name="three.tf" 
d="M530 207q0 -90 -67.5 -156.5t-181.5 -66.5q-70 0 -130 19.5t-127 66.5l55 81q60 -36 106 -54q42 -16 93 -16q63 0 100.5 34t37.5 91q0 56 -39.5 88t-107.5 32q-48 0 -80 -13l-51 69l231 203h-311v95h448v-93l-201 -177q98 0 161.5 -55t63.5 -148z" />
    <glyph glyph-name="four.case" horiz-adv-x="592" 
d="M480 254h101v-92h-101v-162h-111v162h-345v104l280 444h126l-287 -456h226v154h111v-154z" />
    <glyph glyph-name="four.tf" 
d="M478 246h97v-92h-97v-154h-111v154h-334v104l270 422h125l-277 -434h216v145h111v-145z" />
    <glyph glyph-name="five.case" horiz-adv-x="593" 
d="M548 236q0 -108 -71 -180t-184 -72q-77 0 -136 21q-60 23 -134 74l57 81q71 -46 111 -62q43 -17 94 -17q66 0 107.5 42t41.5 108q0 64 -37.5 99.5t-104.5 35.5q-75 0 -126 -49l-100 10l31 383h417v-95h-320l-17 -198q59 44 142 44q101 0 165 -64t64 -161z" />
    <glyph glyph-name="five.tf" 
d="M541 226q0 -103 -70.5 -172.5t-178.5 -69.5q-74 0 -132 20q-56 21 -130 71l56 81q67 -43 107 -59q41 -16 91 -16q62 0 102 39q41 39 41 97q0 60 -36 95t-100 35q-74 0 -120 -46l-100 10l30 369h406v-95h-310l-15 -185q56 41 136 41q98 0 160.5 -62t62.5 -153z" />
    <glyph glyph-name="six.case" horiz-adv-x="599" 
d="M567 229q0 -100 -71.5 -172.5t-188.5 -72.5q-122 0 -193.5 78.5t-71.5 205.5q0 106 52 199.5t159 197.5l47 45h150v-2l-109 -100q-120 -111 -163 -198q55 58 153 58q104 0 170 -69.5t66 -169.5zM454 227q0 64 -40 105t-105 41q-68 0 -110 -41t-42 -105q0 -63 42.5 -104.5
t108.5 -41.5q65 0 105.5 41t40.5 105z" />
    <glyph glyph-name="six.tf" 
d="M555 219q0 -96 -69.5 -165.5t-182.5 -69.5q-118 0 -188 75.5t-70 197.5q0 102 51 193t153 188l45 42h150v-2l-112 -102q-105 -95 -149 -179q56 50 145 50q99 0 163 -66.5t64 -161.5zM442 217q0 61 -37.5 98.5t-99.5 37.5q-65 0 -105 -38t-40 -98q0 -59 40 -97.5
t104 -38.5q62 0 100 37.5t38 98.5z" />
    <glyph glyph-name="seven.case" horiz-adv-x="549" 
d="M20 710h511v-84q-100 -122 -176 -290q-76 -166 -100 -336h-126q23 159 97 321q76 163 174 294h-380v95z" />
    <glyph glyph-name="seven.tf" 
d="M42 680h498v-84q-97 -118 -169 -276q-74 -160 -98 -320h-125q19 147 92 303q74 156 169 282h-367v95z" />
    <glyph glyph-name="eight.case" horiz-adv-x="597" 
d="M567 196q0 -94 -72 -153.5t-196 -59.5t-196.5 59.5t-72.5 153.5q0 65 34 113.5t96 73.5q-96 50 -96 155q0 83 65 135.5t170 52.5t169.5 -52.5t64.5 -135.5q0 -104 -95 -155q62 -25 95.5 -73.5t33.5 -113.5zM173 533q0 -48 34.5 -78t91.5 -30q56 0 91 30t35 78
q0 46 -34.5 75.5t-91.5 29.5t-91.5 -29.5t-34.5 -75.5zM452 204q0 59 -41 95.5t-112 36.5t-112.5 -36.5t-41.5 -95.5q0 -56 41.5 -91.5t112.5 -35.5t112 35.5t41 91.5z" />
    <glyph glyph-name="eight.tf" 
d="M555 189q0 -90 -70.5 -147.5t-190.5 -57.5t-191 57.5t-71 147.5q0 128 125 180q-92 45 -92 148q0 80 63.5 130t165.5 50t165 -50t63 -130q0 -102 -91 -148q59 -25 91.5 -71.5t32.5 -108.5zM174 511q0 -45 33 -73t87 -28t87 28t33 73q0 43 -33 70.5t-87 27.5t-87 -27.5
t-33 -70.5zM440 197q0 56 -39 90.5t-107 34.5t-107.5 -34.5t-39.5 -90.5q0 -52 40 -86t107 -34t106.5 33.5t39.5 86.5z" />
    <glyph glyph-name="nine.case" horiz-adv-x="599" 
d="M556 443q0 -105 -51.5 -197.5t-159.5 -199.5l-47 -46h-149v2l108 100q119 112 163 198q-56 -57 -152 -57q-104 0 -170 69.5t-66 168.5q0 101 71.5 173t188.5 72q121 0 192.5 -78.5t71.5 -204.5zM441 483q0 63 -42 104.5t-108 41.5q-65 0 -105.5 -41t-40.5 -105
q0 -65 39.5 -105.5t104.5 -40.5q66 0 109 41q43 42 43 105z" />
    <glyph glyph-name="nine.tf" 
d="M544 423q0 -102 -50.5 -193t-153.5 -188l-45 -42h-149v2l112 102q103 91 147 178q-53 -49 -143 -49q-99 0 -163 66.5t-64 161.5q0 96 69.5 165.5t182.5 69.5q118 0 187.5 -75.5t69.5 -197.5zM429 463q0 59 -40 97.5t-103 38.5q-62 0 -100 -37.5t-38 -98.5t37 -98.5
t99 -37.5q65 0 105 38t40 98z" />
    <glyph glyph-name="zero.dnom" horiz-adv-x="399" 
d="M30 204q0 96 43 155q43 60 126 60q81 0 125 -60q43 -59 43 -155t-43 -155q-44 -60 -125 -60q-83 0 -126 60q-43 59 -43 155zM282 204q0 67 -21.5 104.5t-61.5 37.5t-62 -37.5t-22 -104.5t22 -104.5t62 -37.5t61.5 37.5t21.5 104.5z" />
    <glyph glyph-name="one.dnom" horiz-adv-x="318" 
d="M160 408h64v-408h-83v308l-69 -49l-41 56z" />
    <glyph glyph-name="two.dnom" horiz-adv-x="398" 
d="M123 70h237v-70h-323v33q0 61 31.5 96.5t99.5 71.5l25 13q49 24 67 39.5t18 40.5t-19.5 38.5t-52.5 13.5q-52 0 -118 -52l-45 54q77 71 164 71q70 0 112.5 -35.5t42.5 -86.5q0 -35 -15 -61q-14 -23 -36 -38.5t-71 -40.5l-25 -13q-48 -25 -67 -39.5t-25 -34.5z" />
    <glyph glyph-name="three.dnom" horiz-adv-x="393" 
d="M356 125q0 -57 -44 -96.5t-118 -39.5q-88 0 -169 53l40 59q74 -39 128 -39q36 0 57 17t21 46t-24 45t-64 16q-33 0 -50 -6l-36 49l138 109h-189v70h292v-69l-121 -94q62 -2 100.5 -34.5t38.5 -85.5z" />
    <glyph glyph-name="four.dnom" horiz-adv-x="396" 
d="M313 155h56v-66h-56v-89h-82v89h-201v78l162 241h89l-167 -253h117v82h82v-82z" />
    <glyph glyph-name="five.dnom" horiz-adv-x="396" 
d="M365 138q0 -67 -45.5 -107.5t-119.5 -40.5q-83 0 -173 54l40 60q80 -42 129 -42q37 0 60 19t23 52q0 31 -20.5 48.5t-59.5 17.5q-45 0 -80 -29l-66 7l21 231h270v-70h-202l-9 -97q37 26 92 26q62 0 101 -38t39 -91z" />
    <glyph glyph-name="six.dnom" horiz-adv-x="398" 
d="M367 135q0 -59 -45.5 -102.5t-120.5 -43.5q-78 0 -123.5 46t-45.5 124q0 138 147 249h113v-1q-132 -95 -164 -167q38 35 95 35q63 0 103.5 -41t40.5 -99zM286 134q0 31 -23 51t-59 20q-38 0 -62.5 -20.5t-24.5 -50.5q0 -32 23 -52t61 -20q39 0 62 20t23 52z" />
    <glyph glyph-name="seven.dnom" horiz-adv-x="370" 
d="M26 408h325v-63q-150 -165 -163 -345h-90q6 88 52 178q47 94 107 160h-231v70z" />
    <glyph glyph-name="eight.dnom" horiz-adv-x="399" 
d="M367 111q0 -54 -45.5 -88t-122.5 -34t-122 34t-45 88q0 75 75 105q-58 31 -58 90q0 49 41.5 81t108.5 32q68 0 109.5 -32t41.5 -81q0 -60 -59 -90q76 -30 76 -105zM127 299q0 -23 20.5 -39t51.5 -16q32 0 52 15.5t20 39.5t-19.5 38.5t-52.5 14.5q-32 0 -52 -15t-20 -38z
M283 119q0 28 -22.5 46.5t-61.5 18.5t-61.5 -18.5t-22.5 -46.5t22.5 -45t61.5 -17q40 0 62 17t22 45z" />
    <glyph glyph-name="nine.dnom" horiz-adv-x="396" 
d="M364 249q0 -138 -147 -249h-112v1q128 90 160 165q-35 -33 -91 -33q-64 0 -104.5 41t-40.5 99q0 59 45.5 102.5t120.5 43.5q78 0 123.5 -46t45.5 -124zM279 274q0 32 -23 52t-61 20q-39 0 -62 -20t-23 -52q0 -31 23 -51t59 -20q38 0 62.5 20.5t24.5 50.5z" />
    <glyph glyph-name="zero.numr" horiz-adv-x="399" 
d="M30 476q0 96 43 155q43 60 126 60q81 0 125 -60q43 -59 43 -155t-43 -155q-44 -60 -125 -60q-83 0 -126 60q-43 59 -43 155zM282 476q0 67 -21.5 104.5t-61.5 37.5t-62 -37.5t-22 -104.5t22 -104.5t62 -37.5t61.5 37.5t21.5 104.5z" />
    <glyph glyph-name="one.numr" horiz-adv-x="318" 
d="M160 680h64v-408h-83v308l-69 -49l-41 56z" />
    <glyph glyph-name="two.numr" horiz-adv-x="398" 
d="M123 342h237v-70h-323v33q0 61 31.5 96.5t99.5 71.5l25 13q49 24 67 39.5t18 40.5t-19.5 38.5t-52.5 13.5q-52 0 -118 -52l-45 54q77 71 164 71q70 0 112.5 -35.5t42.5 -86.5q0 -35 -15 -61q-14 -23 -36 -38.5t-71 -40.5l-25 -13q-48 -25 -67 -39.5t-25 -34.5z" />
    <glyph glyph-name="three.numr" horiz-adv-x="393" 
d="M356 397q0 -57 -44 -96.5t-118 -39.5q-88 0 -169 53l40 59q74 -39 128 -39q36 0 57 17t21 46t-24 45t-64 16q-33 0 -50 -6l-36 49l138 109h-189v70h292v-69l-121 -94q62 -2 100.5 -34.5t38.5 -85.5z" />
    <glyph glyph-name="four.numr" horiz-adv-x="396" 
d="M313 427h56v-66h-56v-89h-82v89h-201v78l162 241h89l-167 -253h117v82h82v-82z" />
    <glyph glyph-name="five.numr" horiz-adv-x="396" 
d="M365 410q0 -67 -45.5 -107.5t-119.5 -40.5q-83 0 -173 54l40 60q80 -42 129 -42q37 0 60 19t23 52q0 31 -20.5 48.5t-59.5 17.5q-45 0 -80 -29l-66 7l21 231h270v-70h-202l-9 -97q37 26 92 26q62 0 101 -38t39 -91z" />
    <glyph glyph-name="six.numr" horiz-adv-x="398" 
d="M367 407q0 -59 -45.5 -102.5t-120.5 -43.5q-78 0 -123.5 46t-45.5 124q0 138 147 249h113v-1q-132 -95 -164 -167q38 35 95 35q63 0 103.5 -41t40.5 -99zM286 406q0 31 -23 51t-59 20q-38 0 -62.5 -20.5t-24.5 -50.5q0 -32 23 -52t61 -20q39 0 62 20t23 52z" />
    <glyph glyph-name="seven.numr" horiz-adv-x="370" 
d="M26 680h325v-63q-150 -165 -163 -345h-90q6 88 52 178q47 94 107 160h-231v70z" />
    <glyph glyph-name="eight.numr" horiz-adv-x="399" 
d="M367 386q0 -54 -45.5 -88t-122.5 -34t-122 34t-45 88q0 75 75 105q-58 31 -58 90q0 49 41.5 81t108.5 32q68 0 109.5 -32t41.5 -81q0 -60 -59 -90q76 -30 76 -105zM127 574q0 -23 20.5 -39t51.5 -16q32 0 52 15.5t20 39.5t-19.5 38.5t-52.5 14.5q-32 0 -52 -15t-20 -38z
M283 394q0 28 -22.5 46.5t-61.5 18.5t-61.5 -18.5t-22.5 -46.5t22.5 -45t61.5 -17q40 0 62 17t22 45z" />
    <glyph glyph-name="nine.numr" horiz-adv-x="396" 
d="M364 521q0 -138 -147 -249h-112v1q128 90 160 165q-35 -33 -91 -33q-64 0 -104.5 41t-40.5 99q0 59 45.5 102.5t120.5 43.5q78 0 123.5 -46t45.5 -124zM279 546q0 32 -23 52t-61 20q-39 0 -62 -20t-23 -52q0 -31 23 -51t59 -20q38 0 62.5 20.5t24.5 50.5z" />
    <glyph glyph-name="period.ss02" horiz-adv-x="237" 
d="M43 65q0 31 22.5 53t53.5 22t53 -22t22 -53t-22 -53t-53 -22t-53.5 22t-22.5 53z" />
    <glyph glyph-name="comma.ss02" horiz-adv-x="237" 
d="M206 35q0 -70 -41.5 -123.5t-112.5 -54.5v52q29 2 54.5 25.5t31.5 58.5q-16 -2 -19 -2q-33 0 -54.5 20.5t-21.5 52.5q0 31 22.5 53t54.5 22q38 0 62 -28t24 -76z" />
    <glyph glyph-name="colon.ss02" horiz-adv-x="277" 
d="M63 435q0 31 22.5 53t53.5 22t53 -22t22 -53t-22 -53.5t-53 -22.5t-53.5 22.5t-22.5 53.5zM63 65q0 31 22.5 53t53.5 22t53 -22t22 -53t-22 -53t-53 -22t-53.5 22t-22.5 53z" />
    <glyph glyph-name="semicolon.ss02" horiz-adv-x="277" 
d="M63 434q0 31 22.5 53t53.5 22t53 -22t22 -53t-22 -53t-53 -22t-53.5 22t-22.5 53zM226 35q0 -70 -41.5 -123.5t-112.5 -54.5v52q29 2 54.5 25.5t31.5 58.5q-16 -2 -19 -2q-33 0 -54.5 20.5t-21.5 52.5q0 31 22.5 53t54.5 22q38 0 62 -28t24 -76z" />
    <glyph glyph-name="ellipsis.ss02" horiz-adv-x="705" 
d="M53 65q0 31 22.5 53t53.5 22t53 -22t22 -53t-22 -53t-53 -22t-53.5 22t-22.5 53zM277 65q0 31 22 53t53 22t53 -22t22 -53t-22 -53t-53 -22t-53 22t-22 53zM501 65q0 31 22.5 53t53.5 22q30 0 52.5 -22t22.5 -53t-22.5 -53t-52.5 -22q-31 0 -53.5 22t-22.5 53z" />
    <glyph glyph-name="exclam.ss02" horiz-adv-x="287" 
d="M208 710v-214l-26 -282h-67l-26 282v214h119zM71 65q0 31 22 53t53 22t53.5 -22t22.5 -53t-22.5 -53t-53.5 -22t-53 22t-22 53z" />
    <glyph glyph-name="exclamdown.case" horiz-adv-x="281" 
d="M81 582v128h123v-128h-123zM82 0v214l26 282h68l26 -282v-214h-120z" />
    <glyph glyph-name="exclamdown.case.ss02" horiz-adv-x="281" 
d="M220 645q0 -31 -22 -53t-53 -22t-53.5 22t-22.5 53t22.5 53t53.5 22t53 -22t22 -53zM82 0v214l26 282h68l26 -282v-214h-120z" />
    <glyph glyph-name="exclamdown.ss02" horiz-adv-x="241" 
d="M227 438q0 -31 -22 -53t-53 -22t-53.5 22t-22.5 53q0 32 22.5 54t53.5 22t53 -22.5t22 -53.5zM89 -207v214l26 282h68l26 -282v-214h-120z" />
    <glyph glyph-name="question.ss02" horiz-adv-x="500" 
d="M180 209v28q0 59 16 89t80 86l16 14q44 36 60.5 58.5t16.5 53.5q0 40 -29.5 63t-78.5 23q-41 0 -77.5 -17.5t-94.5 -61.5l-66 76q117 105 241 105q99 0 161 -50t62 -137q0 -42 -17 -74q-16 -31 -38 -53q-13 -13 -74 -67q-39 -34 -59 -59q-16 -19 -21 -53l-3 -24h-95z
M151 65q0 31 22 53t53 22t53.5 -22t22.5 -53t-22.5 -53t-53.5 -22t-53 22t-22 53z" />
    <glyph glyph-name="questiondown.case" horiz-adv-x="495" 
d="M203 582v128h124v-128h-124zM8 171q0 42 16 73q16 32 38 53q14 14 75 68q37 32 59 58q16 21 21 54l3 24h95v-28q0 -59 -16 -89t-80 -86l-16 -14q-44 -36 -60.5 -58.5t-16.5 -53.5q0 -40 29.5 -63t78.5 -23q41 0 77.5 17.5t94.5 61.5l66 -76q-117 -105 -241 -105
q-99 0 -161 50t-62 137z" />
    <glyph glyph-name="questiondown.case.ss02" horiz-adv-x="495" 
d="M344 650q0 -30 -22 -52t-53 -22t-53.5 22t-22.5 52q0 32 22.5 54t53.5 22t53 -22.5t22 -53.5zM315 507v-28q0 -59 -16 -89t-80 -86l-16 -14q-44 -36 -60.5 -58.5t-16.5 -53.5q0 -40 29.5 -63t78.5 -23q41 0 77.5 17.5t94.5 61.5l66 -76q-115 -105 -241 -105
q-99 0 -161 50t-62 137q0 42 16 73q16 32 38 53q14 14 75 68q40 35 58 57q18 24 22 55l3 24h95z" />
    <glyph glyph-name="questiondown.ss02" horiz-adv-x="477" 
d="M339 435q0 -30 -22 -52t-53 -22t-53.5 22t-22.5 52q0 32 22.5 54t53.5 22t53 -22.5t22 -53.5zM310 292v-28q0 -59 -16 -89t-80 -86l-16 -14q-44 -36 -60.5 -58.5t-16.5 -53.5q0 -40 29.5 -63t78.5 -23q41 0 77.5 17.5t94.5 61.5l66 -76q-115 -105 -241 -105
q-99 0 -161 50t-62 137q0 42 16 73q17 31 38 53q14 14 75 68q40 35 58 57q18 24 22 55l3 24h95z" />
    <glyph glyph-name="periodcentered.ss02" horiz-adv-x="257" 
d="M53 324q0 31 22.5 53t53.5 22t53 -22t22 -53t-22 -53t-53 -22t-53.5 22t-22.5 53z" />
    <glyph glyph-name="hyphen.case" horiz-adv-x="408" 
d="M354 405v-99h-301v99h301z" />
    <glyph glyph-name="endash.case" horiz-adv-x="731" 
d="M667 402v-94h-603v94h603z" />
    <glyph glyph-name="emdash.case" horiz-adv-x="977" 
d="M902 402v-94h-828v94h828z" />
    <glyph glyph-name="quotesinglbase.ss02" horiz-adv-x="239" 
d="M196 33q0 -66 -39.5 -116.5t-107.5 -51.5v49q29 2 52.5 24t29.5 56q-16 -2 -17 -2q-32 0 -52.5 19t-20.5 50q0 30 21.5 50.5t51.5 20.5q35 0 58.5 -26.5t23.5 -72.5z" />
    <glyph glyph-name="quotedblbase.ss02" horiz-adv-x="439" 
d="M196 33q0 -66 -39.5 -116.5t-107.5 -51.5v49q29 2 52.5 24t29.5 56q-16 -2 -17 -2q-32 0 -52.5 19t-20.5 50q0 30 21.5 50.5t51.5 20.5q35 0 58.5 -26.5t23.5 -72.5zM396 33q0 -66 -39.5 -116.5t-106.5 -51.5v49q29 2 52.5 24t29.5 56q-16 -2 -18 -2q-31 0 -51.5 19.5
t-20.5 49.5t21.5 50.5t51.5 20.5q35 0 58 -26.5t23 -72.5z" />
    <glyph glyph-name="quotedblleft.ss02" horiz-adv-x="442" 
d="M198 519q0 -30 -21.5 -50.5t-51.5 -20.5q-36 0 -59 26t-23 72q0 66 39.5 117t106.5 52v-49q-28 -2 -51.5 -24t-30.5 -56q16 2 18 2q31 0 52 -19.5t21 -49.5zM402 519q0 -30 -22 -50.5t-52 -20.5q-35 0 -58 26t-23 72q0 66 39.5 117t106.5 52v-49q-29 -3 -52.5 -24.5
t-29.5 -55.5q16 2 18 2q31 0 52 -19.5t21 -49.5z" />
    <glyph glyph-name="quotedblright.ss02" horiz-adv-x="439" 
d="M196 616q0 -66 -39.5 -117t-107.5 -52v49q29 3 52.5 24.5t29.5 55.5q-16 -2 -17 -2q-32 0 -52.5 19t-20.5 50q0 30 21.5 50.5t51.5 20.5q35 0 58.5 -26.5t23.5 -71.5zM396 616q0 -66 -39.5 -117t-106.5 -52v49q29 3 52.5 24.5t29.5 55.5q-16 -2 -18 -2q-31 0 -51.5 19.5
t-20.5 49.5t21.5 50.5t51.5 20.5q35 0 58 -26t23 -72z" />
    <glyph glyph-name="quoteleft.ss02" horiz-adv-x="239" 
d="M198 519q0 -30 -21.5 -50.5t-51.5 -20.5q-36 0 -59 26t-23 72q0 66 39.5 117t106.5 52v-49q-28 -2 -51.5 -24t-30.5 -56q16 2 18 2q31 0 52 -19.5t21 -49.5z" />
    <glyph glyph-name="quoteright.ss02" horiz-adv-x="239" 
d="M196 616q0 -66 -39.5 -117t-107.5 -52v49q29 3 52.5 24.5t29.5 55.5q-16 -2 -17 -2q-32 0 -52.5 19t-20.5 50q0 30 21.5 50.5t51.5 20.5q35 0 58.5 -26.5t23.5 -71.5z" />
    <glyph glyph-name="guillemotleft.case" horiz-adv-x="594" 
d="M305 555l-144 -222l144 -222h-105l-142 222l142 222h105zM530 555l-143 -222l143 -222h-105l-141 222l141 222h105z" />
    <glyph glyph-name="guillemotright.case" horiz-adv-x="594" 
d="M63 555h105l142 -222l-142 -222h-105l140 222zM289 555h105l141 -222l-141 -222h-105l140 222z" />
    <glyph glyph-name="guilsinglleft.case" horiz-adv-x="368" 
d="M305 555l-144 -222l144 -222h-105l-142 222l142 222h105z" />
    <glyph glyph-name="guilsinglright.case" horiz-adv-x="368" 
d="M63 555h105l142 -222l-142 -222h-105l140 222z" />
    <glyph glyph-name="divide.ss02" horiz-adv-x="600" 
d="M225 506q0 30 22.5 52.5t53.5 22.5t53 -22.5t22 -52.5q0 -31 -22 -53.5t-53 -22.5t-53.5 22.5t-22.5 53.5zM560 357v-94h-520v94h520zM225 115q0 31 22.5 53t53.5 22t53 -22t22 -53t-22 -53.5t-53 -22.5t-53.5 22.5t-22.5 53.5z" />
    <glyph glyph-name="registered.ss03" horiz-adv-x="856" 
d="M796 355q2 -154 -106.5 -262.5t-261.5 -105.5q-153 -3 -261.5 105.5t-106.5 262.5q-2 154 106.5 262.5t261.5 105.5q153 3 261.5 -105.5t106.5 -262.5zM127 355q-2 -130 85.5 -220.5t215.5 -89.5q128 -1 215.5 89.5t85.5 220.5q2 130 -85.5 220.5t-215.5 89.5
q-128 1 -215.5 -89.5t-85.5 -220.5zM586 438q0 -40 -21.5 -70.5t-59.5 -44.5l105 -169h-79l-96 160h-81v-160h-69v413h167q59 0 96.5 -36.5t37.5 -92.5zM437 505h-83v-133h83q80 0 80 66q0 31 -20.5 49t-59.5 18z" />
    <glyph glyph-name="uni0308.ss02" horiz-adv-x="0" 
d="M-408 647q0 26 19 45t47 19q27 0 46 -19t19 -45q0 -27 -19 -46t-46 -19q-28 0 -47 19t-19 46zM-215 647q0 26 19 45t46 19t46 -19t19 -45q0 -27 -19 -46t-46 -19t-46 19t-19 46z" />
    <glyph glyph-name="uni0307.ss02" horiz-adv-x="0" 
d="M-223 645q0 28 20 47.5t48 19.5t48 -19.5t20 -47.5t-20 -47.5t-48 -19.5t-48 19.5t-20 47.5z" />
    <glyph glyph-name="caroncomb.alt" horiz-adv-x="0" 
d="M-78 710l-69 -207h-68l28 207h109z" />
    <glyph glyph-name="uni0326.alt" horiz-adv-x="0" 
d="M-224 587v99l65 101h59l-59 -101h55v-99h-120z" />
    <glyph glyph-name="uni0326.alt.ss02" horiz-adv-x="0" 
d="M-91 635q0 -25 -18 -41t-45 -16q-31 0 -51.5 21.5t-20.5 56.5q0 54 34.5 86.5t92.5 32.5v-41q-59 -6 -72 -47q14 2 17 2q63 0 63 -54z" />
    <glyph glyph-name="uni0326.ss02" horiz-adv-x="0" 
d="M-92 -138q0 -54 -34.5 -86.5t-91.5 -32.5v41q24 2 44.5 15t26.5 33q-14 -2 -17 -2q-63 0 -63 53q0 25 18 41t45 16q31 0 51.5 -21.5t20.5 -56.5z" />
    <glyph glyph-name="dieresistonos.ss02" horiz-adv-x="485" 
d="M195 587l21 135h111l-51 -135h-81zM63 641q0 24 17 40t41 16q25 0 42 -16t17 -40t-17 -40t-42 -16q-24 0 -41 16t-17 40zM324 641q0 24 17 40t42 16q24 0 41 -16t17 -40t-17 -40t-41 -16q-25 0 -42 16t-17 40z" />
    <glyph glyph-name="brevecombcy" horiz-adv-x="0" 
d="M-84 702q0 -70 -45 -105t-124 -35q-80 0 -125 35t-45 105h90q0 -72 80 -72t80 72h89z" />
    <glyph glyph-name="NULL" horiz-adv-x="0" 
 />
    <glyph glyph-name="CR" horiz-adv-x="223" 
 />
    </font>
</defs>
</svg>
