<svg width="31" height="28" viewBox="0 0 31 28" fill="none" xmlns="http://www.w3.org/2000/svg">
<g filter="url(#filter0_d_4_315)">
<mask id="path-1-outside-1_4_315" maskUnits="userSpaceOnUse" x="-2.45344" y="-6.45834" width="34.9747" height="35.4584" fill="black">
<rect fill="white" x="-2.45344" y="-6.45834" width="34.9747" height="35.4584"/>
<path fill-rule="evenodd" clip-rule="evenodd" d="M15.6451 23.1692C16.7106 23.4634 17.8396 23.3341 18.8414 22.867L19.6929 22.4699C20.4071 22.1369 20.8589 21.4411 21.3107 20.7454C21.7625 20.0496 22.2144 19.3539 22.9285 19.0209C23.472 18.7674 24.0559 19.0282 24.6116 19.2763C25.1162 19.5016 25.5976 19.7165 26.0043 19.5269C26.8234 19.1449 26.7111 18.1413 26.5949 17.1028C26.5282 16.5058 26.4601 15.8974 26.567 15.3889L27.0202 13.2323C27.3726 11.5561 27.1618 11.1473 26.3035 9.48201C26.0152 8.92259 25.6537 8.22138 25.216 7.28269C23.4753 3.54974 22.5612 3.66995 21.7644 4.04153C21.3699 4.22546 21.5561 4.61404 21.7441 5.00652C21.9359 5.40697 22.1296 5.81149 21.7107 6.00684C21.363 6.16896 21.0446 5.65951 20.6746 5.06763C20.1618 4.24724 19.55 3.26848 18.6242 3.70018C18.4776 3.76854 18.3376 3.83204 18.2047 3.89229C16.893 4.48698 16.2807 4.76456 16.9832 6.27104C17.7275 7.86724 17.7275 7.86724 17.0168 8.19586L16.9295 8.23635C16.5986 8.39066 16.2927 7.8873 15.9349 7.29865C15.4312 6.46983 14.8247 5.47193 13.901 5.90266C12.7505 6.43913 12.1515 7.00656 12.0976 7.67582C12.0775 7.92557 12.1333 8.1895 12.2647 8.4713C12.7482 9.50822 12.7705 10.1757 12.1483 10.4659C11.8518 10.6041 11.5004 9.88683 11.0069 8.87953C10.4647 7.77294 9.75106 6.31631 8.75035 5.25939C8.34839 4.83484 7.9981 4.42911 7.67976 4.06038L7.67975 4.06037C6.48414 2.67554 5.73928 1.81279 4.40116 2.43677C2.70675 3.22688 5.82222 7.65002 7.71552 9.54444C9.60883 11.4389 12.0684 15.0891 11.4323 15.8907C11.0564 16.3643 10.1712 15.7534 9.13339 15.0372C8.41466 14.5412 7.62276 13.9948 6.8762 13.723C5.05165 13.059 3.76709 14.2945 4.12597 16.147C4.39286 17.5247 6.44686 18.731 8.39181 19.8732C9.06205 20.2668 9.71935 20.6528 10.2861 21.0356C11.6635 21.9659 14.0448 22.7272 15.6451 23.1692ZM21.3884 17.7987C20.9612 17.998 20.0497 17.0083 19.8484 16.5766L18.3621 13.3891C18.1574 12.9502 17.9757 11.6291 18.4157 11.4238C18.843 11.2246 19.7545 12.2143 19.9558 12.646L21.4421 15.8334C21.6468 16.2724 21.8285 17.5935 21.3884 17.7987ZM23.0346 15.0908C23.2359 15.5226 24.1474 16.5122 24.5747 16.313C25.0148 16.1078 24.833 14.7866 24.6284 14.3477L23.142 11.1602C22.9407 10.7285 22.0292 9.73885 21.602 9.93807C21.1619 10.1433 21.3436 11.4644 21.5483 11.9034L23.0346 15.0908ZM18.2022 19.2845C17.775 19.4837 16.8635 18.4941 16.6622 18.0624L15.1758 14.8749C14.9711 14.436 14.7894 13.1148 15.2295 12.9096C15.6567 12.7104 16.5682 13.7 16.7695 14.1317L18.2559 17.3192C18.4606 17.7581 18.6423 19.0793 18.2022 19.2845Z"/>
</mask>
<path fill-rule="evenodd" clip-rule="evenodd" d="M15.6451 23.1692C16.7106 23.4634 17.8396 23.3341 18.8414 22.867L19.6929 22.4699C20.4071 22.1369 20.8589 21.4411 21.3107 20.7454C21.7625 20.0496 22.2144 19.3539 22.9285 19.0209C23.472 18.7674 24.0559 19.0282 24.6116 19.2763C25.1162 19.5016 25.5976 19.7165 26.0043 19.5269C26.8234 19.1449 26.7111 18.1413 26.5949 17.1028C26.5282 16.5058 26.4601 15.8974 26.567 15.3889L27.0202 13.2323C27.3726 11.5561 27.1618 11.1473 26.3035 9.48201C26.0152 8.92259 25.6537 8.22138 25.216 7.28269C23.4753 3.54974 22.5612 3.66995 21.7644 4.04153C21.3699 4.22546 21.5561 4.61404 21.7441 5.00652C21.9359 5.40697 22.1296 5.81149 21.7107 6.00684C21.363 6.16896 21.0446 5.65951 20.6746 5.06763C20.1618 4.24724 19.55 3.26848 18.6242 3.70018C18.4776 3.76854 18.3376 3.83204 18.2047 3.89229C16.893 4.48698 16.2807 4.76456 16.9832 6.27104C17.7275 7.86724 17.7275 7.86724 17.0168 8.19586L16.9295 8.23635C16.5986 8.39066 16.2927 7.8873 15.9349 7.29865C15.4312 6.46983 14.8247 5.47193 13.901 5.90266C12.7505 6.43913 12.1515 7.00656 12.0976 7.67582C12.0775 7.92557 12.1333 8.1895 12.2647 8.4713C12.7482 9.50822 12.7705 10.1757 12.1483 10.4659C11.8518 10.6041 11.5004 9.88683 11.0069 8.87953C10.4647 7.77294 9.75106 6.31631 8.75035 5.25939C8.34839 4.83484 7.9981 4.42911 7.67976 4.06038L7.67975 4.06037C6.48414 2.67554 5.73928 1.81279 4.40116 2.43677C2.70675 3.22688 5.82222 7.65002 7.71552 9.54444C9.60883 11.4389 12.0684 15.0891 11.4323 15.8907C11.0564 16.3643 10.1712 15.7534 9.13339 15.0372C8.41466 14.5412 7.62276 13.9948 6.8762 13.723C5.05165 13.059 3.76709 14.2945 4.12597 16.147C4.39286 17.5247 6.44686 18.731 8.39181 19.8732C9.06205 20.2668 9.71935 20.6528 10.2861 21.0356C11.6635 21.9659 14.0448 22.7272 15.6451 23.1692ZM21.3884 17.7987C20.9612 17.998 20.0497 17.0083 19.8484 16.5766L18.3621 13.3891C18.1574 12.9502 17.9757 11.6291 18.4157 11.4238C18.843 11.2246 19.7545 12.2143 19.9558 12.646L21.4421 15.8334C21.6468 16.2724 21.8285 17.5935 21.3884 17.7987ZM23.0346 15.0908C23.2359 15.5226 24.1474 16.5122 24.5747 16.313C25.0148 16.1078 24.833 14.7866 24.6284 14.3477L23.142 11.1602C22.9407 10.7285 22.0292 9.73885 21.602 9.93807C21.1619 10.1433 21.3436 11.4644 21.5483 11.9034L23.0346 15.0908ZM18.2022 19.2845C17.775 19.4837 16.8635 18.4941 16.6622 18.0624L15.1758 14.8749C14.9711 14.436 14.7894 13.1148 15.2295 12.9096C15.6567 12.7104 16.5682 13.7 16.7695 14.1317L18.2559 17.3192C18.4606 17.7581 18.6423 19.0793 18.2022 19.2845Z" fill="white"/>
<path d="M15.6451 23.1692L15.9113 22.2052L15.9113 22.2052L15.6451 23.1692ZM22.9285 19.0209L23.3511 19.9272L23.3512 19.9272L22.9285 19.0209ZM24.6116 19.2763L25.0194 18.3632L25.0194 18.3632L24.6116 19.2763ZM26.5949 17.1028L27.5887 16.9917L27.5887 16.9917L26.5949 17.1028ZM26.567 15.3889L25.5883 15.1832L25.5883 15.1832L26.567 15.3889ZM27.0202 13.2323L26.0416 13.0266L26.0416 13.0266L27.0202 13.2323ZM26.3035 9.48201L27.1924 9.02386L27.1924 9.02386L26.3035 9.48201ZM25.216 7.28269L26.1223 6.86007L26.1223 6.86007L25.216 7.28269ZM21.7441 5.00652L22.6459 4.57454L22.6459 4.57454L21.7441 5.00652ZM20.6746 5.06763L21.5226 4.5376L21.5226 4.53759L20.6746 5.06763ZM18.2047 3.89229L17.7918 2.98152L17.7918 2.98152L18.2047 3.89229ZM16.9832 6.27104L16.0769 6.69365L16.0769 6.69365L16.9832 6.27104ZM17.0168 8.19586L16.5971 7.28819L16.5961 7.28866L17.0168 8.19586ZM16.9295 8.23635L16.5088 7.32915L16.5069 7.33004L16.9295 8.23635ZM15.9349 7.29865L16.7895 6.7793L16.7895 6.7793L15.9349 7.29865ZM12.0976 7.67582L13.0944 7.75608L13.0944 7.75608L12.0976 7.67582ZM12.2647 8.4713L11.3584 8.89391L11.3584 8.89391L12.2647 8.4713ZM12.1483 10.4659L11.7257 9.55954L11.7257 9.55954L12.1483 10.4659ZM11.0069 8.87953L10.1089 9.31951L10.1089 9.31951L11.0069 8.87953ZM8.75035 5.25939L9.47651 4.57185L9.47651 4.57185L8.75035 5.25939ZM7.67976 4.06038L8.43669 3.40688L8.41285 3.37928L8.38707 3.35348L7.67976 4.06038ZM7.67975 4.06037L6.92282 4.71387L6.94665 4.74147L6.97243 4.76727L7.67975 4.06037ZM7.71552 9.54444L8.42284 8.83754L8.42284 8.83754L7.71552 9.54444ZM11.4323 15.8907L10.6489 15.269L10.6489 15.269L11.4323 15.8907ZM9.13339 15.0372L9.70136 14.2142L9.70136 14.2142L9.13339 15.0372ZM6.8762 13.723L6.53418 14.6627L6.53418 14.6627L6.8762 13.723ZM4.12597 16.147L5.10771 15.9568L5.10771 15.9568L4.12597 16.147ZM8.39181 19.8732L7.88541 20.7355L7.88541 20.7355L8.39181 19.8732ZM10.2861 21.0356L9.72638 21.8643L9.72638 21.8643L10.2861 21.0356ZM18.4188 21.9607C17.6115 22.3372 16.7262 22.4303 15.9113 22.2052L15.3789 24.1331C16.6949 24.4965 18.0678 24.3311 19.264 23.7733L18.4188 21.9607ZM19.2703 21.5636L18.4188 21.9607L19.264 23.7733L20.1156 23.3762L19.2703 21.5636ZM20.4721 20.2008C19.9824 20.9548 19.6774 21.3738 19.2703 21.5636L20.1156 23.3762C21.1369 22.9 21.7355 21.9275 22.1494 21.29L20.4721 20.2008ZM22.5059 18.1146C21.4846 18.5908 20.886 19.5633 20.4721 20.2008L22.1494 21.29C22.6391 20.536 22.9441 20.117 23.3511 19.9272L22.5059 18.1146ZM25.0194 18.3632C24.7611 18.2479 24.3842 18.0758 23.9875 17.9854C23.5675 17.8898 23.0424 17.8644 22.5059 18.1146L23.3512 19.9272C23.3582 19.9239 23.3967 19.9021 23.5435 19.9355C23.7135 19.9742 23.9065 20.0566 24.2039 20.1894L25.0194 18.3632ZM25.5817 18.6206C25.6656 18.5814 25.7021 18.6156 25.5857 18.5867C25.4541 18.554 25.2925 18.4852 25.0194 18.3632L24.2039 20.1894C24.4353 20.2927 24.7667 20.444 25.1036 20.5277C25.4557 20.6152 25.9363 20.662 26.427 20.4332L25.5817 18.6206ZM25.6011 17.214C25.6635 17.7712 25.6988 18.1446 25.6599 18.4228C25.6429 18.5448 25.6174 18.592 25.6112 18.6018C25.6098 18.6042 25.6091 18.605 25.6092 18.6048C25.6093 18.6046 25.6095 18.6045 25.6093 18.6047C25.6091 18.6048 25.6075 18.6063 25.6037 18.6087C25.5998 18.6112 25.5928 18.6154 25.5817 18.6206L26.427 20.4332C27.2415 20.0534 27.5513 19.3404 27.6408 18.6992C27.7215 18.1206 27.6426 17.4729 27.5887 16.9917L25.6011 17.214ZM25.5883 15.1832C25.4417 15.8808 25.5396 16.6641 25.6011 17.214L27.5887 16.9917C27.5167 16.3476 27.4785 15.9139 27.5456 15.5946L25.5883 15.1832ZM26.0416 13.0266L25.5883 15.1832L27.5456 15.5946L27.9989 13.438L26.0416 13.0266ZM25.4146 9.94017C25.8658 10.8155 26.0583 11.205 26.1398 11.5707C26.2092 11.8819 26.2078 12.236 26.0416 13.0266L27.9989 13.438C28.185 12.5525 28.2544 11.864 28.0919 11.1354C27.9416 10.4613 27.5995 9.8138 27.1924 9.02386L25.4146 9.94017ZM24.3097 7.7053C24.7563 8.66303 25.1254 9.37902 25.4146 9.94017L27.1924 9.02386C26.9049 8.46616 26.5512 7.77972 26.1223 6.86007L24.3097 7.7053ZM22.187 4.94784C22.3506 4.87156 22.4044 4.86631 22.4182 4.86599C22.4197 4.86595 22.4233 4.86548 22.4356 4.86953C22.45 4.87425 22.4892 4.88961 22.5547 4.93642C22.8701 5.16192 23.4434 5.84757 24.3097 7.7053L26.1223 6.86007C25.2479 4.98485 24.4938 3.86414 23.7178 3.3094C23.2908 3.00413 22.8388 2.85574 22.372 2.86652C21.9358 2.8766 21.5766 3.02572 21.3418 3.13522L22.187 4.94784ZM22.6459 4.57454C22.5958 4.46991 22.5642 4.40305 22.5412 4.34528C22.5172 4.28509 22.5236 4.28545 22.5284 4.32423C22.534 4.36972 22.5415 4.50855 22.4582 4.67092C22.3705 4.842 22.2428 4.92183 22.187 4.94784L21.3418 3.13522C21.0888 3.2532 20.8364 3.45057 20.6785 3.7585C20.5251 4.05773 20.5169 4.35272 20.5432 4.5674C20.5882 4.93489 20.7732 5.29453 20.8422 5.4385L22.6459 4.57454ZM22.1333 6.91315C22.3885 6.79414 22.6428 6.59722 22.8043 6.29058C22.9625 5.99035 22.9753 5.69194 22.9499 5.47017C22.9067 5.09125 22.7166 4.72205 22.6459 4.57454L20.8422 5.4385C20.8933 5.54523 20.9256 5.61365 20.9491 5.67301C20.9736 5.73467 20.9672 5.73531 20.9628 5.69702C20.9576 5.65086 20.9522 5.51523 21.0349 5.35831C21.1209 5.19497 21.2423 5.12187 21.2881 5.10054L22.1333 6.91315ZM19.8266 5.59766C19.992 5.86219 20.22 6.23495 20.4706 6.50295C20.5994 6.64075 20.8009 6.82612 21.079 6.93867C21.399 7.06822 21.7744 7.08053 22.1333 6.91315L21.2881 5.10054C21.3658 5.06427 21.4629 5.03845 21.5715 5.03736C21.6781 5.03629 21.7665 5.05933 21.8293 5.08477C21.9384 5.1289 21.9719 5.18031 21.9315 5.13702C21.8984 5.10163 21.8465 5.03626 21.7707 4.92476C21.6962 4.81513 21.6175 4.68939 21.5226 4.5376L19.8266 5.59766ZM19.0469 4.60649C19.0954 4.58385 19.0823 4.60065 19.0442 4.5921C19.0249 4.58779 19.057 4.58872 19.1431 4.66459C19.3444 4.84198 19.5481 5.15205 19.8266 5.59766L21.5226 4.53759C21.2883 4.16281 20.9298 3.57331 20.4655 3.16414C20.2188 2.94674 19.8923 2.73266 19.482 2.6406C19.0528 2.54432 18.616 2.60067 18.2016 2.79388L19.0469 4.60649ZM18.6176 4.80306C18.7499 4.74307 18.8947 4.67744 19.0469 4.60649L18.2016 2.79388C18.0606 2.85964 17.9252 2.92102 17.7918 2.98152L18.6176 4.80306ZM17.8895 5.84842C17.7357 5.51871 17.6963 5.34178 17.6897 5.26322C17.686 5.2194 17.6936 5.26147 17.6616 5.30786C17.6525 5.321 17.6811 5.27318 17.8614 5.16921C18.041 5.0656 18.2755 4.95816 18.6176 4.80306L17.7918 2.98152C17.478 3.12376 17.1441 3.27403 16.862 3.4368C16.5804 3.5992 16.254 3.82644 16.0157 4.17163C15.4601 4.97633 15.7004 5.88634 16.0769 6.69365L17.8895 5.84842ZM17.4365 9.10353C17.5659 9.04368 17.8362 8.92657 18.0434 8.75965C18.1699 8.65776 18.311 8.51089 18.4127 8.30345C18.5159 8.09279 18.5488 7.88054 18.5455 7.69134C18.5398 7.36604 18.4223 7.05198 18.3285 6.8216C18.2233 6.56357 18.071 6.23755 17.8895 5.84842L16.0769 6.69365C16.2676 7.10262 16.3944 7.37518 16.4763 7.57636C16.5163 7.67452 16.5368 7.73441 16.5466 7.76887C16.5571 7.80587 16.5468 7.78425 16.5458 7.72625C16.5446 7.65735 16.5568 7.54559 16.6168 7.42315C16.6753 7.30391 16.7505 7.23296 16.7887 7.20223C16.82 7.17696 16.8319 7.17455 16.7891 7.19681C16.7471 7.21862 16.6921 7.24425 16.5971 7.28819L17.4365 9.10353ZM17.3502 9.14355L17.4375 9.10306L16.5961 7.28866L16.5088 7.32915L17.3502 9.14355ZM15.0803 7.818C15.2403 8.08118 15.4596 8.44988 15.6999 8.71608C15.8226 8.85204 16.0178 9.03962 16.2903 9.15662C16.6068 9.29249 16.9866 9.31308 17.3521 9.14266L16.5069 7.33004C16.5909 7.29087 16.6948 7.2641 16.81 7.26451C16.9228 7.26491 17.015 7.2912 17.0793 7.3188C17.1902 7.36643 17.2245 7.42031 17.1846 7.37614C17.1528 7.34082 17.1027 7.27559 17.0294 7.16449C16.9574 7.05536 16.8812 6.93022 16.7895 6.7793L15.0803 7.818ZM14.3236 6.80897C14.3683 6.78812 14.3502 6.80575 14.308 6.79578C14.2859 6.79058 14.3174 6.79081 14.4038 6.86916C14.6046 7.05127 14.8068 7.36797 15.0803 7.818L16.7895 6.7793C16.5593 6.40051 16.2064 5.80385 15.7471 5.38748C15.5035 5.1666 15.1786 4.94631 14.7673 4.84925C14.3359 4.74742 13.8955 4.80184 13.4784 4.99636L14.3236 6.80897ZM13.0944 7.75608C13.0998 7.6893 13.19 7.33758 14.3236 6.80897L13.4784 4.99636C12.3111 5.54068 11.2032 6.32381 11.1008 7.59557L13.0944 7.75608ZM13.171 8.04868C13.0947 7.88507 13.0912 7.79505 13.0944 7.75608L11.1008 7.59557C11.0638 8.0561 11.1719 8.49393 11.3584 8.89391L13.171 8.04868ZM12.5709 11.3722C12.8657 11.2347 13.1383 11.0253 13.335 10.7232C13.5307 10.4226 13.6095 10.0943 13.6205 9.78399C13.641 9.20602 13.4288 8.60145 13.171 8.04868L11.3584 8.89391C11.4645 9.12154 11.5344 9.30595 11.5759 9.45232C11.6182 9.60149 11.6228 9.68292 11.6218 9.71327C11.621 9.73576 11.6189 9.69349 11.6589 9.63202C11.6999 9.56907 11.742 9.55192 11.7257 9.55954L12.5709 11.3722ZM10.1089 9.31951C10.344 9.79934 10.5853 10.2958 10.8123 10.6461C10.921 10.8138 11.0827 11.0394 11.3034 11.2097C11.5471 11.3977 12.0275 11.6256 12.5709 11.3722L11.7257 9.55954C11.8893 9.48323 12.0737 9.4644 12.244 9.50091C12.3953 9.53335 12.4902 9.59926 12.5252 9.62626C12.5812 9.66947 12.5686 9.67864 12.4907 9.55843C12.3445 9.33286 12.1633 8.96703 11.9049 8.43956L10.1089 9.31951ZM8.0242 5.94692C8.90193 6.87395 9.55357 8.18608 10.1089 9.31951L11.9049 8.43956C11.3759 7.3598 10.6002 5.75867 9.47651 4.57185L8.0242 5.94692ZM6.92283 4.71388C7.24001 5.08126 7.60433 5.50346 8.0242 5.94692L9.47651 4.57185C9.09246 4.16623 8.75619 3.77695 8.43669 3.40688L6.92283 4.71388ZM6.97243 4.76727L6.97244 4.76728L8.38707 3.35348L8.38706 3.35347L6.97243 4.76727ZM4.82378 3.34307C5.0446 3.2401 5.17826 3.22687 5.2565 3.23105C5.33208 3.23508 5.4275 3.25899 5.56821 3.34594C5.91029 3.55734 6.2854 3.97556 6.92282 4.71387L8.43667 3.40687C7.87849 2.76034 7.28336 2.05478 6.61958 1.64459C6.25736 1.42075 5.84094 1.25941 5.36315 1.23389C4.88802 1.20852 4.42678 1.32144 3.97854 1.53046L4.82378 3.34307ZM8.42284 8.83754C7.5342 7.94838 6.3404 6.44175 5.58634 5.08947C5.2026 4.40131 4.98324 3.84127 4.92687 3.4658C4.89936 3.28255 4.92331 3.22193 4.91855 3.23494C4.90161 3.28123 4.8537 3.32912 4.82378 3.34307L3.97854 1.53046C3.52501 1.74194 3.20381 2.1009 3.04032 2.54771C2.88902 2.96124 2.89316 3.3906 2.94903 3.76274C3.05943 4.49803 3.41956 5.31032 3.83956 6.06351C4.69295 7.59394 6.00354 9.24608 7.00821 10.2513L8.42284 8.83754ZM12.2156 16.5123C12.5109 16.1401 12.548 15.7082 12.5313 15.4097C12.5139 15.0985 12.4309 14.7834 12.3293 14.495C12.1245 13.9136 11.7759 13.2537 11.3732 12.6018C10.5637 11.2916 9.42827 9.84357 8.42284 8.83754L7.00821 10.2513C7.89608 11.1397 8.93711 12.464 9.67171 13.653C10.0409 14.2506 10.3064 14.7719 10.443 15.1596C10.5121 15.3557 10.5317 15.4721 10.5344 15.5213C10.5379 15.5833 10.5126 15.4409 10.6489 15.269L12.2156 16.5123ZM8.56542 15.8603C9.05615 16.1989 9.61822 16.591 10.1132 16.8186C10.3603 16.9323 10.6893 17.0534 11.0482 17.0578C11.4617 17.0628 11.9012 16.9084 12.2156 16.5123L10.6489 15.269C10.7754 15.1098 10.9633 15.0566 11.0727 15.0579C11.1274 15.0586 11.0998 15.071 10.9489 15.0016C10.6479 14.8632 10.2484 14.5917 9.70136 14.2142L8.56542 15.8603ZM6.53418 14.6627C7.13578 14.8817 7.81589 15.343 8.56542 15.8603L9.70136 14.2142C9.01344 13.7394 8.10974 13.1078 7.21822 12.7833L6.53418 14.6627ZM5.10771 15.9568C4.97684 15.2812 5.17153 14.8976 5.35412 14.732C5.52174 14.58 5.88441 14.4262 6.53418 14.6627L7.21822 12.7833C6.04343 12.3558 4.85155 12.4877 4.01048 13.2506C3.18437 13.9999 2.91622 15.1603 3.14422 16.3372L5.10771 15.9568ZM8.89821 19.0109C7.91041 18.4308 6.97256 17.878 6.24488 17.3101C5.47984 16.713 5.16686 16.2621 5.10771 15.9568L3.14422 16.3372C3.35197 17.4096 4.19943 18.2507 5.01436 18.8867C5.86663 19.5519 6.92825 20.1734 7.88541 20.7355L8.89821 19.0109ZM10.8458 20.2069C10.2479 19.803 9.5616 19.4005 8.89821 19.0109L7.88541 20.7355C8.56251 21.1331 9.19081 21.5025 9.72638 21.8643L10.8458 20.2069ZM15.9113 22.2052C14.2978 21.7596 12.0693 21.0333 10.8458 20.2069L9.72638 21.8643C11.2576 22.8985 13.7918 23.6948 15.3789 24.1331L15.9113 22.2052ZM18.9421 16.9992C19.1195 17.3797 19.5008 17.8392 19.8638 18.1668C20.0531 18.3375 20.2938 18.5245 20.5624 18.6537C20.7907 18.7635 21.2862 18.9498 21.811 18.7051L20.9658 16.8924C21.1252 16.8181 21.2658 16.82 21.3402 16.8299C21.4096 16.8392 21.4418 16.8574 21.4293 16.8514C21.4005 16.8375 21.3208 16.7875 21.2036 16.6818C21.0938 16.5827 20.9842 16.4647 20.8944 16.3526C20.8501 16.2973 20.8146 16.2484 20.7886 16.2091C20.7607 16.167 20.7523 16.1489 20.7547 16.154L18.9421 16.9992ZM17.4557 13.8118L18.9421 16.9992L20.7547 16.154L19.2684 12.9665L17.4557 13.8118ZM17.9931 10.5175C17.4745 10.7594 17.2923 11.2465 17.2253 11.5032C17.1491 11.7953 17.1379 12.1023 17.1479 12.3578C17.1671 12.8509 17.2792 13.4333 17.4557 13.8118L19.2684 12.9665C19.269 12.968 19.2597 12.9472 19.2449 12.8982C19.231 12.8521 19.2159 12.793 19.2016 12.7237C19.1726 12.5831 19.152 12.4251 19.1464 12.2799C19.1403 12.1246 19.1534 12.0354 19.1605 12.0083C19.1634 11.9972 19.1558 12.0345 19.1175 12.0936C19.0761 12.1574 18.9891 12.2599 18.8384 12.3301L17.9931 10.5175ZM20.8621 12.2234C20.6847 11.8429 20.3034 11.3833 19.9404 11.0558C19.7511 10.8851 19.5103 10.698 19.2418 10.5689C19.0135 10.4591 18.518 10.2728 17.9931 10.5175L18.8384 12.3301C18.679 12.4045 18.5384 12.4026 18.464 12.3926C18.3946 12.3834 18.3623 12.3652 18.3749 12.3712C18.4036 12.3851 18.4834 12.435 18.6006 12.5408C18.7104 12.6398 18.82 12.7579 18.9098 12.87C18.9541 12.9253 18.9896 12.9742 19.0156 13.0135C19.0434 13.0556 19.0518 13.0736 19.0495 13.0686L20.8621 12.2234ZM22.3484 15.4108L20.8621 12.2234L19.0495 13.0686L20.5358 16.2561L22.3484 15.4108ZM21.811 18.7051C22.3297 18.4632 22.5118 17.9761 22.5788 17.7194C22.6551 17.4273 22.6663 17.1203 22.6563 16.8648C22.6371 16.3716 22.5249 15.7893 22.3484 15.4108L20.5358 16.2561C20.5351 16.2546 20.5445 16.2754 20.5593 16.3244C20.5732 16.3705 20.5883 16.4296 20.6026 16.4989C20.6316 16.6395 20.6522 16.7975 20.6578 16.9427C20.6639 17.098 20.6507 17.1872 20.6437 17.2142C20.6408 17.2254 20.6483 17.188 20.6867 17.129C20.7281 17.0651 20.8151 16.9627 20.9658 16.8924L21.811 18.7051ZM24.152 15.4067C24.3114 15.3323 24.452 15.3342 24.5264 15.3442C24.5958 15.3534 24.6281 15.3716 24.6155 15.3656C24.5868 15.3518 24.507 15.3018 24.3898 15.196C24.28 15.097 24.1704 14.9789 24.0806 14.8668C24.0363 14.8115 24.0008 14.7626 23.9748 14.7233C23.947 14.6813 23.9386 14.6632 23.9409 14.6682L22.1283 15.5135C22.3057 15.8939 22.687 16.3535 23.0501 16.681C23.2393 16.8517 23.4801 17.0388 23.7487 17.168C23.977 17.2778 24.4724 17.464 24.9973 17.2193L24.152 15.4067ZM23.722 14.7703C23.7214 14.7688 23.7307 14.7896 23.7455 14.8386C23.7594 14.8847 23.7745 14.9438 23.7888 15.0131C23.8178 15.1537 23.8384 15.3117 23.8441 15.4569C23.8501 15.6122 23.837 15.7014 23.8299 15.7285C23.827 15.7396 23.8346 15.7023 23.8729 15.6432C23.9143 15.5794 24.0013 15.477 24.152 15.4067L24.9973 17.2193C25.5159 16.9774 25.6981 16.4903 25.7651 16.2336C25.8413 15.9415 25.8525 15.6345 25.8425 15.379C25.8233 14.8859 25.7112 14.3036 25.5347 13.925L23.722 14.7703ZM22.2357 11.5828L23.722 14.7703L25.5347 13.925L24.0483 10.7376L22.2357 11.5828ZM22.0246 10.8444C21.8652 10.9187 21.7246 10.9168 21.6502 10.9069C21.5808 10.8976 21.5486 10.8794 21.5611 10.8854C21.5899 10.8993 21.6697 10.9493 21.7869 11.055C21.8966 11.1541 22.0062 11.2721 22.096 11.3842C22.1403 11.4395 22.1758 11.4885 22.2018 11.5277C22.2297 11.5698 22.2381 11.5879 22.2357 11.5828L24.0483 10.7376C23.8709 10.3572 23.4896 9.89757 23.1266 9.57006C22.9373 9.39932 22.6966 9.21227 22.428 9.08309C22.1997 8.97328 21.7042 8.78701 21.1794 9.03176L22.0246 10.8444ZM22.4546 11.4808C22.4553 11.4822 22.4459 11.4614 22.4311 11.4124C22.4172 11.3663 22.4021 11.3072 22.3878 11.238C22.3588 11.0973 22.3382 10.9394 22.3326 10.7941C22.3265 10.6388 22.3397 10.5496 22.3467 10.5226C22.3496 10.5115 22.3421 10.5488 22.3037 10.6078C22.2623 10.6717 22.1753 10.7741 22.0246 10.8444L21.1794 9.03176C20.6607 9.2736 20.4786 9.76071 20.4116 10.0174C20.3353 10.3095 20.3242 10.6165 20.3341 10.872C20.3533 11.3652 20.4655 11.9475 20.642 12.326L22.4546 11.4808ZM23.9409 14.6682L22.4546 11.4808L20.642 12.326L22.1283 15.5135L23.9409 14.6682ZM15.7558 18.485C15.9332 18.8654 16.3146 19.325 16.6776 19.6525C16.8668 19.8233 17.1076 20.0103 17.3762 20.1395C17.6045 20.2493 18.0999 20.4356 18.6248 20.1908L17.7796 18.3782C17.939 18.3039 18.0796 18.3058 18.1539 18.3157C18.2233 18.325 18.2556 18.3432 18.2431 18.3371C18.2143 18.3233 18.1345 18.2733 18.0173 18.1676C17.9075 18.0685 17.798 17.9505 17.7082 17.8383C17.6639 17.783 17.6284 17.7341 17.6023 17.6949C17.5745 17.6528 17.5661 17.6347 17.5685 17.6398L15.7558 18.485ZM14.2695 15.2975L15.7558 18.485L17.5685 17.6398L16.0821 14.4523L14.2695 15.2975ZM14.8069 12.0033C14.2883 12.2451 14.1061 12.7322 14.0391 12.989C13.9628 13.2811 13.9517 13.588 13.9616 13.8435C13.9808 14.3367 14.093 14.919 14.2695 15.2975L16.0821 14.4523C16.0828 14.4537 16.0734 14.433 16.0587 14.384C16.0447 14.3378 16.0296 14.2788 16.0153 14.2095C15.9863 14.0689 15.9658 13.9109 15.9601 13.7657C15.9541 13.6104 15.9672 13.5212 15.9742 13.4941C15.9772 13.483 15.9696 13.5203 15.9313 13.5794C15.8898 13.6432 15.8029 13.7456 15.6521 13.8159L14.8069 12.0033ZM17.6759 13.7091C17.4984 13.3287 17.1171 12.8691 16.7541 12.5416C16.5649 12.3709 16.3241 12.1838 16.0555 12.0546C15.8272 11.9448 15.3317 11.7585 14.8069 12.0033L15.6521 13.8159C15.4927 13.8902 15.3521 13.8883 15.2778 13.8784C15.2083 13.8691 15.1761 13.851 15.1886 13.857C15.2174 13.8708 15.2972 13.9208 15.4144 14.0265C15.5242 14.1256 15.6337 14.2436 15.7235 14.3558C15.7678 14.4111 15.8033 14.46 15.8293 14.4993C15.8572 14.5413 15.8656 14.5594 15.8632 14.5544L17.6759 13.7091ZM19.1622 16.8966L17.6759 13.7091L15.8632 14.5544L17.3496 17.7418L19.1622 16.8966ZM18.6248 20.1908C19.1434 19.949 19.3256 19.4619 19.3926 19.2052C19.4688 18.9131 19.48 18.6061 19.4701 18.3506C19.4509 17.8574 19.3387 17.2751 19.1622 16.8966L17.3496 17.7418C17.3489 17.7404 17.3582 17.7612 17.373 17.8101C17.3869 17.8563 17.4021 17.9153 17.4163 17.9846C17.4454 18.1252 17.4659 18.2832 17.4716 18.4284C17.4776 18.5837 17.4645 18.673 17.4574 18.7C17.4545 18.7111 17.4621 18.6738 17.5004 18.6147C17.5418 18.5509 17.6288 18.4485 17.7796 18.3782L18.6248 20.1908Z" fill="black" mask="url(#path-1-outside-1_4_315)"/>
</g>
<defs>
<filter id="filter0_d_4_315" x="0.91333" y="0.230347" width="29.2698" height="27.096" filterUnits="userSpaceOnUse" color-interpolation-filters="sRGB">
<feFlood flood-opacity="0" result="BackgroundImageFix"/>
<feColorMatrix in="SourceAlpha" type="matrix" values="0 0 0 0 0 0 0 0 0 0 0 0 0 0 0 0 0 0 127 0" result="hardAlpha"/>
<feOffset dy="1"/>
<feGaussianBlur stdDeviation="1"/>
<feColorMatrix type="matrix" values="0 0 0 0 0 0 0 0 0 0 0 0 0 0 0 0 0 0 1 0"/>
<feBlend mode="normal" in2="BackgroundImageFix" result="effect1_dropShadow_4_315"/>
<feBlend mode="normal" in="SourceGraphic" in2="effect1_dropShadow_4_315" result="shape"/>
</filter>
</defs>
</svg>
